<mxfile host="app.diagrams.net" modified="2024-02-28T09:04:27.780Z" agent="Mozilla/5.0 (Windows NT 10.0; Win64; x64) AppleWebKit/537.36 (KHTML, like Gecko) Chrome/121.0.0.0 Safari/537.36" etag="AvlSEadN3r6_YdUK55y4" version="23.1.7" type="github">
  <diagram name="第 1 页" id="AudnUj5fP0Oso3ssCLVb">
    <mxGraphModel dx="1050" dy="574" grid="1" gridSize="10" guides="1" tooltips="1" connect="1" arrows="1" fold="1" page="1" pageScale="1" pageWidth="827" pageHeight="1169" math="0" shadow="0">
      <root>
        <mxCell id="0" />
        <mxCell id="1" parent="0" />
        <mxCell id="DZzNzvdSw967rxI9cEoq-2" value="" style="shape=image;verticalLabelPosition=bottom;labelBackgroundColor=default;verticalAlign=top;aspect=fixed;imageAspect=0;image=data:image/png,iVBORw0KGgoAAAANSUhEUgAABawAAAHeCAYAAAB3+0zkAAAAAXNSR0IArs4c6QAAAARnQU1BAACxjwv8YQUAAAAJcEhZcwAADsMAAA7DAcdvqGQAAP+lSURBVHhe7N0HYFNV2wfwf2e696QtnZS9QaYCKkMURUFB2VNRUXEiuFBRRFFBRdnTgUx9RWXJ3nuU7r33SNukWX3vuT2le6+kfX7flze5J0ktSZqc+89zn6NXKAAhhBBCCCGEEEIIIYQQ0sL0+TkhhBBCCCGEEEIIIYQQ0qIosCaEEEIIIYQQQgghhBCiFSiwJoQQQgghhBBCCCGEEKIVKLAmhBBCCCGEEEIIIYQQohUosCaEEEIIIYQQQgghhBCiFSiwJoQQQgghhBBCCCGEEKIVKLAmhBBCCCGEEEIIIYQQohX0CgX8MiGEEEKI1itUqSCLikKBcNIUFEDPyAgSd3eY+vhA38SE34oQQgghhBBCiC6iwJoQQgghOiE/KAhpf/6J7LNnUahU8tFS9PVh2acP7MeNg2XfvtATtgkhhBBCCCGE6BYKrAkhhBCi1VRSKRJ+/BFZJ07wkZqZd+8Oj0WLYOziwkcIIYQQQgghhOgCCqwJIYQQorUK4uIQ8e67UKan85HaY+1BvD76CBY9evARQgghhBBCCCHajgJrQgghhGilgoQEhL/1FlSZmXyk7vQkEnh//DEsunfnI4QQQgghhBBCtBk1dySEEEKI1ilUqxHzxRdlwmqNSorLaTlIUpX/rl2DzOxkHI5PxJmcApTubl1YUICYFSvEtiKEEEIIIYQQQrQfBdaEEEII0Tqp+/ZBFhrKtwTqPPx58yJeDklBWumDwzQyXAw8h8cuBePn+Gh8efEkJt5OQoqGXy9goXfihg18ixBCCCGEEEKINqPAmhBCCCFaRaNUIm3/fr4F5EujsfTsWXyaqoRazwBSNb9CoJKG46tYNR7qOxjb7huI3/o4QS8xFH/ll0qsBZn//QdlWhrfIoQQQgghhBCirSiwJoQQQohWyTl/HqqsLL6lgTQ3F7kmTpjuYQZjYbs0QzNPvNytC563MRS39YQTm9yUvZVAo0HGoUN8gxBCCCGEEEKItqLAmhBCCCFaJffWLX6J0Yeza1esvq8HnjRlcXQ5RpYY1s4RbmxGo0zDpqAUpNl6YYxZxSlO2Z9LCCGEEEIIIUQbUWBNCCGEEK1Spnd1Lalk8Vhx8Rp+02uPlT3c4F7JDEcWFoZCTYXaa0IIIYQQQgghWoQCa0IIIYRoFWV6Or9UO4qcMLxx/g6OmXTAT/07YaCk8umNRiaDRi7nW4QQQgghhBBCtBEF1oQQQgjRLoWF/EIl9PRhVLoziCIJn10LR6hDD+zo442uRny8KlRhTQghhBBCCCFajQJrQgghhGgVQ2trfqkcPT0xzM4plTknxgXjiEyD+PgbGH3oH/T8h51O4ttsNb9FCT1DQ+ibmvItQgghhBBCCCHaSK9QwC8TQgghhLS42K+/RubRo3yr8Zh27IgO33zDtwghhBBCCCGEaCOqsCaEEEKIVjHr0oVfalzmTfRzCSGEEEIIIYQ0HgqsCSGEEKJVbB54oElad9iNGcMvEUIIIYQQQgjRVhRYE0IIIUSrGJiZwe6RR/hW47Ds1w8mHh58ixBCCCGEEEKItqLAmhBCCCFax3nKFBg5O/OthtE3MYHbSy/xLUIIIYQQQggh2owCa0IIIYRoHQNTU7R/+23oSSR8pP7cFi6EcSOF34QQQgghhBBCmhYF1oQQQgjRSuadO8N72bIGhdbuixbBdsQIvkUIIYQQQgghRNvpFQr4ZUIIIYQQrSOPiUHsqlWQhYbykZqxdiIer78Oi+7d+QghhBBCCCGEEF1AgTUhhBBCtF7m8eOI//57GLu6Qh4RwUcrMnZxgf24cbAbM0ZsK0IIIYQQQgghRLdQYE0IIYQQrVao0SBkwQIxhHYYPx6KhATkh4RAHhUFTUEB9I2MIPHwgGmHDjDx9ISePnU8I4QQQgghhBBdRYE1IYQQQrQaq65O3LgRnTZvhn4jLMJICCGEEEIIIUR7UQkSIYQQQrRWoVqNlF9+gdMzz1BYTQghhBBCCCFtAFVYE0IIITVgoSlrQSFjbSiio4vaUBgbQ9K+vdiGwrxTJ+gZGvJbk8aUeewYErduRadNm8THnBBCCCGEEEJI60aBNSGEEFIFtUyG9L/+Ek/K1FQ+WpGhnR3sx46FwxNPwMDcnI+ShmJfFATPny/2rXYYN46PEkIIIYQQQghpzSiwJoQQQiqRe+cO4r7+GoqkJD5SMyN7e7gvWgTLPn34CGmIjCNHkLxjBzqy6mojIz5KCCGEEEIIIaQ1ox7WhBBCSDlZJ08iYvHiOoXVjDI9HZHvvYf0f//lI6S+xN7Vv/4Kp0mTKKwmhBBCCCGEkDaEAmtCCCGklJyLFxHz5ZeARsNH6i5+zRpkHj/Ot0h9ZB49ikLhObAbPZqPEEIIIYQQQghpCyiwJoQQQjhlZiZiv/6ah9WFyMvLwOnEJJzPkSFPU76DlgbZ0jQcT0zGRakCSj5aLP6776BITuZbpC4KVSok8+pqWsySEEIIIYQQQtoWCqwJIYQQLnHTJqilUqBQievBZzH6/G2sj4nC5xdPY8rtONwu0ECsu9bIcDHwHMZeuIvNMRH47MIJTLiVhNRSRdkauRzxP/7It0hdsN7V0NOD3ahRfIQQQgghhBBCSFtBgTUhhBAiUGZkIOvECfGypiAZ30TL4OPaEcv7D8TewX4wSA7FXxlyFBQCKmk4PolRYGCvwdgxYBB+7e0A/aQw/C+/bBsR6aVLKEhI4FukNjRKJVJ++w3Ozz4LPQMDPkoIIYQQQgghpK2gwJoQQggRZB47huK+1fpGjljapyde9bSHm/BJqaenDxad6usJNxHODc088Vb37njdvqhdhb6+gfCBWr5lSJGMw4f5JVIbmcLjxYJq24ce4iOEEEIIIYQQQtoSCqwJIYQQQX5QEL8kMJCgo4MT+loYwUCdh/13QpFi44mRtiYw0ROuN7LEsHaOYpgNZRp+DklBuq0XHjar+LGaHxjIL5GaFFdXOz33HFVXE0IIIYQQQkgbRYE1IYQQIpCFhfFLJTTKLGy+cg5rlK54t3N7dDEuqrQuppLFY/WVG9iq8cBnPdzQvpJP1cp+Lqlcxj//QM/EBLYjRvARQgghhBBCCCFtDQXWhBBCiEBcbLEUdUEKPjt3Eb/otceKPp0xwtKoqLqaU+SE4b2LAfjLyBc/9OuEIZLKP1I1MhkK1Wq+RaqiUSiQsmsX9a4mhBBCCCGEkDaOAmtCCCGE0SuVRqul2HT5Bs5adMDqXh0w2NQAxvwqkSIJ39yIwC277tjRxxs9ylxZidI/m1Qq/e+/YWBuDpvhw/kIIYQQQgghhJC2SK9QwC8TQgghbVbwCy+gICZGvCxNu44xl5OQK24VM8MzvfvjDWczZEWexITg/ArXzxo8FK9Zl60ONrSzQ5edO/kWqYymoABBs2ej3fz5sBk2jI8SQghpTv/99x8MDQ3h7OzMRwghhBBCGkdCQgKMjIwwdOhQPlI9CqwJIYQQQeyqVcg8doxvNR6rgQPh9cEHfItUJnXvXmQcOQL/tWuhp08HfxFCSEswMDCARqPhW4QQQgghjUsikUAul/Ot6lFgTQghhAhYWM1C68bW7oUX4PD443yLlKcRJiyBs2bB7cUXYXP//XyUEEJIc7OysoKbmxvmzJnDR1pGQUEBli1bhs8++4yPtG0HDx6EqakpHnzwQT7SdrEvVBYvXoyVK1fykbbt8OHD4vmoUaPE87bu7bffxooVK6BPxQ84JuzXsPfSsWPH8pG27d133xU/V4yNa+rj2PqdPHkSOTk5GDduHB9pPmvWrIFarUZ8fDwfqR4F1oQQQoiALfoXOH061MIHeGPRk0jEdiCsNzOpXMru3cg6fhwdfvgBetTrmxBCWoyLiwv69euHv/76i4+0jNzcXPF3YecEYkBrY2Mjnrd1LOhggRM7J8BHH31U5rytY0eJKIT5PDtv69gXfuw9lL74K2JmZoa0tDTxvK1btWqV2JqDnTe3gQMHiq/LO3fu8JHq0VdPhBBCiEBf2AFyfOopvtU4HMaNo7C6GmqZTGwH4jxlCoXVhBBCCCGEEEJEFFgTQgghHAusTf38+FbDSNzdxSCWVC39zz9h5OAAq8GD+QghhBBCCCGEkLaOAmtCCCGE0zM0RPt334WhvT0fqR8DKyt4LlkCfYmEj5Dy1Pn5VF1NCCGEEEIIIaQCCqwJIYSQUiSurvD94gsYOTnxkboxtLWFz+efw8TLi4+QyqT98QeMnZ1hPWgQHyGEEEIIIYQQQmjRRUIIIaRSrAI49OWXoUhK4iM1s37gAbi9+CIMraz4CKmMOi8PQbNmweONN2A1YAAfJYQQ0pK0ZdFFJj09HfYNPNqptcgX5iPsSCRTU1M+0rbRa6MEe20wtJBcEXptlJDJZGBRH702itBro4RcLhcXrjVvgXWWaNFFQgghpBHIo6OhFCY3XsuWwW7sWBhYWPBrytIzNobtyJHwW7MGnosXU1hdC2kHDsC4XTsKqwkhhFSKgoUSLHCisLoEvTZKsNcGBZIl6LVRgr1n0GujBL02SpiYmLRIWF0fVGFNCCGElMM+GsMWLYJFjx5wnT373hirtmZBdmFBgRhU51y6BI1cDs933hFvQ2qmzs1F4MyZaC88Zlb9+/NRQgghLU2bKqwJIYQQ0rpQhTUhhBDSQFn//QdlSgqcJk/mIxAPx2X9ra2FD1qbYcPE3ssscJUFB/NbkNpI3b8fJh4eFFYTQgghhBBCCKkUBdaEEEJIKaxiOnHrVrjMmAGDGg6lM+vUSay6VmVn8xFSHZVUKrYDcZ42jY8QQgghhBBCCCFlUWBNCCGElJKyezcMra3FvtQ1MbKzg5GjI/KDgvgIqU7avn0w8faGZZ8+fIQQQgghhBBCCCmLAmtCCCGEU6SkIHXvXrR7/nno6dfuI9KsY0fkU1uQGqlycpD2xx9wnjqVjxBCCCGEEEIIIRVRYE0IIYRwiZs3w7J/f1h0785HasbaglCFdc1S9+yBqZ8fLHv14iOEEEIIIYQQQkhFFFgTQgghgry7d5Fz/jzazZnDR2pHrLAOCUFhYSEfIeWxHt9p//sf9a4mhBBCCCGEEFIjCqwJIYS0eSxsTli3Dg5PPAFjFxc+WjumHTpAU1CAgthYPkLKY33BWbBfl8p1QgghhBBCCCFtEwXWhBBC2rysY8egTEuD0+TJfKT29I2NYertTW1BqqDMzET6wYNwoepqQgghhJA6YUeppf/zD5K2bUPipk1I/u035AUE8GsJIaT1osCaEEJIm6aRy5G4dStcpk+HgZkZH60b6mNdtdTff4d5584w79qVjxBCCCGE6CYWIGedPCl+GZ/+77/IuXwZGqWSX9t4CuLjxaP/wt95B2n79iH7zBnkXLggFlnEffstIpYuRaZwmRBCWisKrAkhhLRpKb//DkMbG9iOHMlH6k7sY02BdQXKjAyxKoh6VxNCCCFEl8nCw+8FyMk7dyLtwAGk7d2LxPXrEf7WW+J8ks17GkNeYCBivvgC0itXALWaj5alTElBym+/ib9TYRW3IYQQXUaBNSGEkDZLIUz2U/ftQ7vnn4eefv0/ElmFtTwmRqzWbgkqqRR5QUHIvX1bXACypX6P8lJ27YJ5t25ihTUhRLepCgsRkp+Pg+np2JCQgB/j47EtKQmnsrKQrFDwWxFCSOuTefw4YlaurDJA1uTlIfPIEUR/8okYbDcEm0/G//ADNDIZH6ke+52SduzgW4QQ0nroFbKVpgghhJA2KHrFCrEqxWvpUj5SfwGTJsFT+DkWPXrwkaZVkJgoHo6ac+4cFElJfJTT04OJpydshg2D3ZgxMLS25lc0H9YTPGjOHPgKO3isAp0QoptyVCr8lZ4uBtWZwuWqdDEzw+MODhgqvN/oC+9BRPe4uLigX79++Ouvv/gIIYS14mD9o2tL39QU7d9+GxJ3dz5SNzFffQVZcDAU0iisvXAbJ/MM0K3TQCzuZAfzwgJcv3UGn4dJYefVD5/0docjr7do/+67MPXxKdogRMdkKpU4lZ2NMJkMco0GEmEe4WFigmE2NnAxNua3Irpu4MCByM3NxZ07d/hI9ajCmhBCSJuUd/cucs6fR7s5c/hIw4htQYQdjKamzs9H3PffI1j4vVlPwwphNVNYCHlUlLiDFThtmrhAT3MfLsqqqy169qSwmhAddk7YeXxeeF/bmZxcbVjN3BXem1bExGBpRARVXBNCWgV2BFvyL7/wrdphldH1rXhmxQgsrAYUuHb9HHZpfPBaFzOcvHAex/ILocgKxNKr6ejb3RPZt05hbWpJ7+ysEyf4JUJ0Bwuq2RFbi4W5A/tyPEiYS0TJ5QgW/o6OZmbi/chIrIqNRVxBAb8HaUsosCaEENLmsIOLWM8/h/HjYeziwkcbpjkWXpTHxSHkpZeQ8ffffKRmhSoVkrdvR/ibb0KVk8NHm5YiNRUZhw7BeepUPkII0TW/JSfj0+hoZNfxy66beXlYGBqK8Foezk4IIdqKVVcXFi+oqJHh9Pm/8eKdTJT5Sq5QhrMXDmLG5WTk8SF5RATkwvtnXbHFHIsYY+ADz+Hs6M7obKSGytAE1gZ6kGUnIl7SDiM9vTDUTIZrGQXQ8Huw1iBq4f2XEF2RpFDg85gYXMvNvfc6rgwLsVcKtwsTzknbQoE1IYSQNoetsM5aVjhNmsRHGq6pF14siItDxDvvQJmczEfqhlV/RyxZ0iyhNVsEyKJPH5j5+/MRQogu2Zeaiu31fK9hctVqvBsRgRgt6adPCCF1xYobsk+dKtpQZeDXk3/hxYAEBOepUPI1XiHSYy/j3TuJuCtVlgnd6lPxrIiP55cYjfCzL2LeyWT0G3AfBkmE/5pGDbWeAQyEaw31CqFWa4TfoAgL1tnaLITogjxhnrBa2Lep6eitYjKNBt8Lfx8pdARXm0KBNSGEkDaFLUiYuHUrXGbMgIGZGR9tOBZYqzIzm2RnQSNMzqI++UT8+cU0KikupWQiQlm+JkGDzKxE/C8mDqekBSg9DWQVP3HffCPuhDUVBWsdcOQIXKZN4yOEEF0Smp+PzYmJfIvRQBV1DZlxwvubvOT9RhV3HTl37yKr1Ck7NBEqnuSw0PrL2FhxsUZCCNE16uxssbihaEMBhX1vLHGXoHSHfnV+DL68kIaebmYo32VXJsy56orN94rlplzH/KPhcB8wBh97mYohtZGZNayVUqQpZIhWGMLdUiKOFyukMI/oiBNZWUgrPnqBybmISwtm4KCwf3bwpdVIruRggTyNBv9kZPAt0hZQYE0IIaRNSfn9dxjZ2sL24Yf5SOMwsLCAxM2tSaqsk3fuREFsLN8SqPPw582LWBiaDHmZXScVAoLP46nLwdiTHIsvLpzBi5FS4TYlci5eRNbx43yr8bHqasv+/WHq68tHCCG6gn2ZxSqeSn8Npo75H25NfxGBu46h4F5gnY/M79/AlQUL+OkFXJr6LM7N+w7Zpd5wWFuQA6mpfIsQQnQHK3C4R+KCGT084FI6PdHk48TF87ju2gMjzYQZmFKGVGXJF3Rl7l9L+iYmRRcK83Ds8k0EquU4dnYfBm77E79INTB36IpZDkl4+fe/8adpZ8xzlRTdnmMLPhKi7TTCXON0VhbfKqKKOIaIa4VweHAUvEf0hJkRv6KcSzk5yG/mdXlIy6HAmhBCSJvBqp9T9+2D6/z50NNv/I9AsY91Iy+8yBb8SfvzT74F5Euj8eH5c1iepoRaXwL1vYNBBYpk7EuQoXPXQdjWfxA2+kkQHBWF2+WOtkv+9VcUaspXZjccWywo89gx6l1NiI5i/acj7oUs+ZAe+ADnnvkEKdkFgLkdW8+VM4Pjiv/w4MmTeFg4PbhuPKwsbOH8ziuwNec34f5IT4eaqqwJITrmXnhcFU0+gnILkRdzEZ+G5SM77ho2pZRUjNZ4/0qweaRIzxxPPDobQXPn8tNTmGYpzFsN7TD30am4OmUarj01AH1LlXUbWFpC0q4d3yJEe90V5hrpZVqBaFAQdh252aGI3LkbcckmMCx96EApCmE+cbGZ1uQhLY8Ca0IIIW1G4ubNsOrfHxbdu/ORxtUUCy9mHj1a6hBPDaS5ucgydsQcDzMYF5Y6lI7Rl8DJsBDpeXLkaJSIyJZDbSCBVekibAHrkZh74wbfajysutpqwACYenvzEUKILvk3PZ1fEqikyAs3gu2IUXBtbwJ9vXLvN8VUEQh7cwfy+r2LLqNcKuxcpCuVuCqV8i1CCNENBlZWMLS15VuVMHTAS+OexZkpz2BDFwvYew/BYreSBNnE05Nfqj3roUOhZ1RFaek9+jAzkcC43NxOvK+hId8iRHullm4FIiqEQYepGLzyBzzyxUhIf/oAd0ML+HUVVbw/aa0osCaEENIm5AUEIOf8ebjOnctHGh8LrGVhYSis5QIitcFWfS+hD2fXrlh9Xw88alJuT4UxtMMEPwfIws9h+NFjeDHREKM6e8GvkioF6dWr/FLjKEhIEFuNUHU1YRQaDa5Ipfg1ORkroqOxLCoKnwvnPwvb7HBOeRNU+JOGu1t6BX5DZ7i88T66fbIAVuWTkVKUJ5YjJskF3gtHwKSKiihWTUUIIbqEHYln/cADfIuRYMSoaTg6wBFlG28YoeegyTj7oDss+QhjM2wYv1R7hpaWsOzbl2/VgfC72pT5XQnRXhXXtlBBHhGOXIU1zNzdYWKogkpR9TyR1sZoOyiwJoQQ0uqxvqwJ69fDYfx4GDs789HGZ+LlJe401Gehncqw31sWGsq3aqbKi8AHAWlw7jAAhx8cji3+Zjh++w6OlloorVhdfm5tsDYjVoMH16uiiLQeUpUKWxMTMT0wEB9ERmJHcjJOZWeLh2+eFs5ZYP1RVJR4/Ub2JUcjfrlDGiZbeC7KLIBUKymIW3MNhf1fgZt3+SXHSoTKZPwSIYToDpv77wfqUbUsad++3mt5OE2aBCMnJ75VO87PPQcjBwe+RYh2Mzco/+22EUxc5Ij79An88sgHyLn/RXTuVHU/9or3J60VBdaEEEJaPdZXma307jR5Mh9pGnrCBMrMz6/R+lhrZDKoc3P5Vs1yMlMRomeP6e3t4GBogj7uLuhfmImjORVDQUViIr/UcAVxccg+eVLcYSJt1+WcHLwQEoLfU1ORU8OCOLnC9fuEv8kXhL+VM9nZfJS0JBZY11naMcQnGMD+uaEou/RXWfX62YQQ0sIMra3hNGEC36odPYmkQUebsUW8Pd54A8ZubnykGvr6cHr22XpVcxPSUrqam6Ps10D6MBm0BE9duYBJx4TTmomwqvo7cPQQ7k/aBgqsCSGEtGpslfakrVvhMmMGDJph9fTG7GNdWOMq2HowEE7FLMwtYaPOwYXcop7XmZkpCFIbwbuS4/Qbc9HF5F9+EXsnmrRvz0dIW8N6H38YFYXMOgaTLNj+LDoaB1JT+QhpbGw1fhYYxwnvhQF5ebiQnY3DGRnYk5KCzYmJ+DY2Fh8Lz92XMTH8HpXQE95njIxgYFi2NYjyznEU6HvBqXPpA+Er0mf3J4QQHWT78MNwePJJvlU9fWGe6fbSSw1ey8PIzg6e774LpylTKg2uWSjO5l2e770H2wcf5KOE6AZrQ0P0sqxk3mBoARMb02pDSi8TE3g3w/4c0Q56hex4Y0IIIaSVStq2TewD7bd6tdiPsKllnzmDxC1b0GnTJj5SfxqlEnfGj2e9QfhIMQ1iI89iUqIzNvbvgC5GxWFQAW6F3cAbETnQNzGCXK5BR+/eWNXBtkxfRUbi7o6O69fzrfqTx8YiVNg581+7VvyZpO05mZWFL6oLO2tpobBT/oi9Pd8ilVEL7wU5KhWkarUYQpc+Z+PsC4Dy53nCib2DsHcJSwMDWAo7ilbCuVW5c4nw/vhTQoL43ylDFYvIyZORPOItdJ3yGCxtSuqi8n96GOf+HI1+e9+CsI9ZpfuEHdOPaDFWrefi4oJ+/frhr7/+4iOEkGJsLRS2EDY7Lz8vYwEyW9TbbvRoGAt/R42NtZpTpqaiUJgX6pubw6xjRxiYmfFrCdE94TKZOHesaxg519UVA6ys+BbRNQMHDkRubi7u3LnDR6pHgTUhhJBWS5GSguD58+H96aew6NaNjzYt1nokcPp0dPntNxg2woQq5MUXIY+K4lu1o1bmI1qmgbmwM+NsWHlIzw4fbf/OO3yr/qJXrBBXpW//5pt8hLQlqQqF2AZEVkXFfmFWINLOh6LQXdiR7+aKcgW6ZRjr6eEHf3+4CTv+bYFSeMxKB8us/3d2ufPyAXQ+f5zZXzULn8WwuYoAuvicBdTWwjnr+VhTpfO8oCDEC89pY5vq7IznmnD9ANI4KLAmpGZsbpl7/XpRyzbhfdXI1haW/ftTgExIHbGj8/YK+0219YC1NaY1wRdCpPlQYE0IIYRwLEyFWg3PpUv5SPO4O20a3F95Ray2aai41auRcegQ32o8rvPnw5FVbzeAPDoaoQsXwv+nnyBp146PkraEtfOovAe1BgUnluDS0ovQ6+yLwtA7UA96HwM+GQvTe0cEVNTHwgKf+vjwLd1RwMLnSgLm6iqh5Tx8NtTTE8NndojsvRC6mnMWQJvr60OvCdpsrImLw78ZGXyr8awUntNuwnNLtBsF1oQQQprTUWHOsTs1VZg1Vu9hW1s84+jYJHMf0nwosCaEEEIE7JDNiCVLxLYXxs1c2Re1fLnYz9ll2jQ+Un/s3xH+1lt8q3GwiujO27fD0MaGj9RPtPDvZP0aPV5/nY+QtiRFocCsoKDKD+csuIWAx+Yjd+bP6PucL/TD1uLMrD2wXPEHeg+tvt/xT/7+aG9iwrean4yFyqWC5fLnlVVCK/h0mlWJF1c0lz4vHzyXDqjNhJO2YIfoLgwN5VuNw1MiwVrhOaWdTO1HgTUhhJDmlibMJ09mZ4sFEGxR7mIm+voYYGmJ4ba2cG8jR9+1dhRYE0IIafPYR1vYa6/BondvuM6cyUebT+revZBeuwaf5cv5SP2J/5ZXX4UsLIyPNJzNQw+h/Rtv8K36kUVGir+X/7p1kLi68lHSlvyWnIztwqkymvBvcXrmZfhu+QDGAQFQOveGUz8vGFXXE4Sb6OiI2Y30mmL9m6sKnkufl658VvGpMdtRqixgLl/xXHzOgml2H13FKsB3JCXhn4yMOveUrM6bHh54UNjZJNqPAmtCCCEthc2/kgoKxDZzbF0NJ2NjnZ5XkYoosCaEENLmZRw5gqStW9Fx40YYtMBK0rnCh3DUsmXo+vvvDa4qVGVnI/qzz5B3+zYfaRgDCwuxhQdbgb4hoj75BAaWlvB47TU+QtqajyIjcUkq5Vtlqc4txMlFQTCwNobEywXKu7dR+MCH6PvBWFiYVP830c3cHCt9fflWETZdZVU3VfV2rnAunFgIXXyIqRkLn3ngXNvWG0ZtZCeJ7SD+mZaGX5OT4WdmhgkODvg8JqbKvuR1wRZb/NDLi6qrdQQF1oQQQghpKhRYE0IIadM0cjmC5syBy4wZsBs1io82L01BAe5MmAD/H3+EiYcHH6277HPnEPfddzDr0AEmXl5I3bOHX1N/nkuWwHroUL5VP7LwcIQtWoSOGzY0e7sVoj2m3b2LdJWKb5WlOv0ijr8cBOulW9HvmfZA1E84M3EnHH78B136V98ShDXI6GdldS+AZgE1C6uL41MLFioLp9q03ii+HesTTSo6n52NTYmJ4mW28v5Aa2vx8jlhnPUnb0hk7WZsLH7xYGtkxEeItqPAmhBCCCFNhQJrQgghbVrStm2QXrkCvzVrWrSqL+Tll+EwfjzsHn6Yj9SeOi8P8T/+iJzz5+E6bx7sx4wRK0yTtmxpUGjtvmgR7EaO5Fv1x6rHDVk/uVde4SOkLXry9m0UVDGNVN9djlMzL8Ljl73w8zMC8s/j6shXgSX/Q99Ha/6SY4azsxh0lq+EZmG1AYXPDRYpk2F9YiLC8vPxrPBYP+7gUCHUZ70kV8bE3GuRUhceEgk+9/GBHYXVDadIwrldW3DgUhxU9t0wauo0jPKzQG3r//Mjj+HXn//FjUQVbDs/hOdmjEUny8rvTYE1IYQQQppKXQNraghDCCGk1VAkJyN1/364Pv98ix+CbtapE/KDgvhW7bHe1yEvvABlSgr8164Vw2qG/XtcZs2C28KF0K/jgnSGdnbwWrasUcLq/NBQSK9ehdOzz/IR0lbpV/M3ZuA1EnZmSUi/GA1VIaAKOIIcjQdsO9Zuoc9nnJwwSnjdDrK2Rldzc3gIr3nWyoPC6obJUqmwJi4Or4aFiQsYbRTep55ydKy0An2o8Nh/16ED/OrYVulxe3usFu5HYXUjkAdg9aOdMGT6tzh65y6Or38Zj3S8D6/9m4KSZamqokLCHy+gj9/DeHHzOYQEn8amhePQud9L+Dul5nsTQgghhLQkCqwJIYS0GombN8Pqvvtg0a0bH2k5dQ2sWSuTuO+/R9THH8NhwgT4fPFFhXYbLLS2f+QRsdWI3ejR0DM25tdUjvWrdpw4Uby9Vf/+fLRhknfuFP/bxo6OfIS0Vc7Vvf7M+qLTR6OgWjcdp598DCdfPQfL5z+Gh0/Nq7w7GRlRz+NGptRosDslBXOE96RkhUIMol9ycxO/BKiOp4kJvvHzw3uenuhhbo6qnhVTfX2MtbPDj/7+eEH4ubRIUmNQIWrHy3j7qA1e/i8IV44fx/WQq/hicCS+e/4zXMrjN6uCJuUgFs1ah+THNiIg8CwOHb2EoIvvo0vIT1j0/R3I+e0IIYQQQrQRtQQhhBDSKuQFBCBiyRJ0XL9eK/oqy+PixErpbnv21FgRnXf3LmJXrRIDZo8336x132uVVIrca9eQsGEDDK2sYGhjI/63WL9rU39/WPbuDX1JzQFhbeUHByP87bfRadMmGDk48FHSVn0TG4sjmZl8qwqqTOQGx6HQ1R8WdpIqA8/ShlhbY6mnJ98iDXWW96lmVdTzXF3RX3ivqC+ZWo0IuRzxBQViqxC2mKWPqSnchPcZqn5vZOporB/ijefzViDwqvC+y78fyj4yFT6j/sPEUyFYd79F0WAFGiTuHAnvGVn4PPA8FvnzO6tTcHbnboS0G4cpI9uj/FdO1BKEEEIIIU2FelgTQghpc9hHWdirr8KiTx+4zpzJR1sW+53uTpoEz/ffh0X37ny0LI1SieQdO5D2xx9wEm7LTnoGbMm5ugmYPBmeS5dW+d9pLBHCv0XSrh3cFizgI6QtOxgXhx8yMvhW43nZzQ1j7e35FqmvcJkM6xISECWXY4qzMx4THlMKlXWI9Dhm+TyIP0YdQeTPD6NoOUyWY6/FfV4vAd9H4tJLXuIipRVJcXyWLx48PRfXrr4C5eE9OHo3B1ZdR+GZ8f3gVEVhPQXWhBBtps7NRdaZM8g+exaq9HQUqtUwMDeHRe/esBk+vEELnRNCmh71sCaEENLmZB49CqUwcWWBr7ZgLQ1YlTOrSq6MLDwcoa+8gpxLl+C7ahWcn3uuXmE1W6BRnZMjBslNKS8wEHm3b2vVY0yaH/siJlx47e7ZswdBwslU2FlsTKxid4RN7fpck8plKJVi9fuisDB4m5hgU8eOeMLBgcJqXaPMRFw2YO1mjdLdwA0s2YKkQHZCFpR8rCI5ksLShBsnYfUIHwyYugw/rf8cC5/uD9/hy3A+S8NvRwghuiF13z7xKL+0vXuhTEpCofBZB40GaqkU2adOIfrjjxEjzKdVwpyYENI6UGBNCCFEp6llMiRt3QqXGTNgUMfFwZpaZX2sWTVI8q+/Iuz112HVrx86fPcdzPz8+LV1V5CQAD2JBEZNXJHKelez/tlGdnZ8hLQlcrkcV65cwebNm3H48GGxEnP+nDmY6u7Ob9E42AKApvX44oYU9anelZKCecHByFSp8EOHDljg5gbLGvpUk+bBvsSs7UlUqIa6EDA0Niq7w6ZnACNhQCkrQJWxs1qGHJlw55AtONblJwRmpCImPg2Rv8+EzdmPMPWzq8jnNyWEkKbGWtil//MPYlauROSHHyLqk0+QsG6d2M6vNhI3bUKGcH8xpK6GTJhzx3z+OVRZWXyEEKLLqCUIIYQQnZa0bRukV67Ab82akh19LZFz+TLihN+ry44d4rY8NlbsVc0qoj3eeAPmXbuK4w2RdfIkUnbtgv/atXyk8Yn9wd97D502b4aRrS0fJW1Bamoqrl+/jiBhJ9De3h69evVCx44dYchDULUwjXwhOBjxCoW43RA+fIE/I1qwr85OCTvnmxMTIREeu/nt2qGvpSW/hmiLunw+ibtnmX9hvMc4XJt3AYHfDIA5vw6puzDcdTISlt7E7WU9UPkqBcnYMdgF0y8Nwabok5jtxr8EUkdj3WBvvJD1Pm7eWoYe5e7s7OwMOzs7zJo1i4+UGD9+PPz9/fkWIYTUjC0ozuaoORcvVhk2Gzk5wfGpp2DZty8fKSv94EGkHTjAt2pH0r49PIV5q7btFxDSVty8eROHDh3iWyW+//57WApz1IBafllFewSEEEJ0liI5Gan796PdCy9o5aSUVVizHnuK1FSkCpPt0IULYernJ4bLjRFWM6zC2tjNjW81jSRWXf3ooxRWtxEajQYhISHYJexk/vzzz1CpVJg4cSKmTJmCrsLrtjisZn5LSUGqQgGbBlbx2gv3X+LpSWF1HYXm5+PNsDD8EB+PCY6OWOvvT2G1lmIhdG1PIokrOjkBGZEpKP11kCItAilqAzj7OZVpFVKWCVy9hfdrUyc4m5c6YsHAGm7tzIG8dOSq+Fgp7L+tEP6e09LSKpwKCgr4rQghpGasZV3Ml18i+8yZaiujlcI8glVbZ/73Hx8pwdZ6yThyRLikRnzUFbz8v/2Y8Pdp/J7Bf55aiqNXjuDZ/Qcw83QQgvlwQUyM2MaOENIyZDJZpXMJtk9RF1RhTQghRGdFf/aZeO65ZIl4ro0CZ82CvkQiTtw9Fi2CZZ8+/JrGwfr1sSDZdfZsPtK4coUJf+QHH6Dzli0wpN7CrVp+fj5u3bolntj0sEePHuLJ3Pxebec9Co0G38bF4WZuLj708hID6/ciIxFXj1DL2cgIn/r4wE34OyG1ky7sxG9NSsLJrCxxMcXnnJ1hQa1UWpks/POsN8aefg6ng37AUAs2pkbMphHwm5uGD+5cx3tdq/qb0SBhx8Pwnh6BhRcC8NUA/jdccBvLhL/pTxw3IvLkHHiUe8nQoouEkMbA5hCxX30FWUgIH6kFPT20e/FFWPbqxQcght3sSEooErBkz39I7/kARqeewSd59+HwWD+YJp7C2P9kmPeAN26fOYek+57BVj8zsSrTvHt3uL/yStEPIoRoBVp0kRBCSJvA2lSwBQtd58zhI9on49AhKNPS2MwdHX/8sdHDakYRHw9JE1ZYJ+/YAYdx4yisbsUSExPxzz//YP369YiKisKwYcMwd+5cDBo0qNKwOkulwuKICMTI5VjNjhgwM4OTsTG+69AB4x0c+K1qZ6ydnVgVTGF17RRoNPglORlzg4IgFZ6HH4XHjrUAobC6NbLB/a/OgV/8j5jz2k7cSslG9H9fYPYbp2H40OuY2rHU34w8EBtemoSp7x1BitjYWh8ujy7BDLdofDNzEXbcTIc8Kwh7352Fz0LsMPHNx1DcJYSQYkq5BtJUBbKTFJDnNu6CuqRtybtzp0JYrZbF4rO/D2NbZhWvLWGuXL71B2slIjJuh8+em4J1nR1grtbAxMQYxnqARbsHcGrKaDznYASFxhB2xgb3Ai62n6DOzeVbhDQOVrCRrFAgTpgDs+IB0rSowpoQQojOYR9dYa++Kva7Y4stahtlRobYu5otuGg1aBAKYmPh99VX/NrGFTB5MjyXLoVF9+58pPHk3riBqI8/RqetW2FoZcVHSWugVqsRHBws9qdOT09Hp06dxP7UTk5O/BaVixIm6B9FRsLH1BRvt28Pk0paeLCJ/EHhZ7K+yimVTObNhPuw+33h60tBdR2cyMzElqQkmBsYYJ6rK3pT6482IBe3fpiFJ1/dgwie8Vj2exU7DnyFJ9xKteGRnsBs3xHY4rYGEZcXwptflRewCS89+wq23eZLLBp54/FPfsbWtwbBtpKyJaqwbptSwmUIOpGFqKtSqJUl0YBLR1N0Gm4Lz94W0DegXsCk9tgcuHRLDlnGXbx/7AL+yjbDrCcm4h3HqtuIebz1Fsx4v3x2hJ8iMVG8DE0+Tl38F69FWuGDcSMw3rLoWzd1fiy++PcY/rUagl9GdIB7qS/jvIQ5rET4vCSkodgRhOyotgs5OZBrSpY8djU2xgM2Nhgs7CeZNWLxQJowf74s/LeyeQsNa0ND9Bf+Gw5GVTcD0wV1rbCmwJoQQojOyTh8WDxEsOPGjTAwNeWj2iHr1CnE//ADzLt1g/vChWL/6nBh8t1t717oNXIVJGszEvD00+i8YweM7O35aOMJe/NN8d/hOnMmHyG6TiqViguh3BZ2JI2ESW/Pnj3RTXiOTWvxd8QmzitiYjBWeK3NcnGBfi36xrOJNqvEZpN7tiCgh0QCpTD1nBUUhO2dO8NexyfezSEoPx/rExKQIOwsTRce99F2djCghaTaFE1ePAIDYiCz9kP3jo5VLLRYFQXSwwIQlmUCj84d0c686gNsKbBuW1hF9Yn1CYi7ncdHKmfhYISRr7jBxpW+YCQ1U2VlIfydd9iCGHwEyEm6gz25+jh3/jY6jJlQbWDNCj2K29yVBNYK3Lx6EDMCLbB47P143MoYZobCe5kiBasPHsQui4HYcr8fvIyNhLmGeFeR17JlkLRrx7cIqTu2uDg7su1UdjYfqRwrxGDFBD0sxP5d9cbWJvk3IwN3hH28kr+gIuyl3dXcHGOEeSA7ulEXUUsQQgghrZpaJhPDapeZM7UqrFZJpYhesUKsKmk3bx683n9fbKNh6u0tXi+LjBTPGxNbcFFPImmSsFp67Rrkwu/sOGECHyG6LC4uDv/73/+wadMmJCUlYeTIkZgzZw769+9fq7D6QGoqPo2OxvPCjt8cYUJem7CaYRUh3YXJO6sKYZN4WyMjsX0Im2ifFnZqSdXSFAqsjInB2+Hh6CI8Xps6dRK/LKCwuu3RN3dD1/sGoV+dw2rGGPZ+vTGgX+dqw2rStqgUGhz6OrbGsJrJTVPi7y9ikJVIC2+SmrGjDEuH1YyVSzfM9rAQ3o1qJrbS4wysrcVzTV40vmatjeTR+GjfTvT5MxBxmkIkR1/GxnQ1MqLP4omd2zApUIp7S7oJn5UGdCQSaaCNiYk1htUMK8xgC2DfaEAbmjPCvPir2FjcqiSsZtjYbeG6VcJtWLV3W0CzFkIIITol9fffxYDW9uGH+UjLy7l8GSEvvAB1Tg78f/yxzO+mZ2gIUz8/yIKD+UjjUSQkNNmhjsk7d8LhiSdgSJN9naVUKsUFFLdv3479+/fDzMwM06ZNw8SJE+EnvCb1ahF8ssqS7+Pi8EtKCj719sYoOzt+TcMME3ZCa7MD0BaxnZ6dSUmYJ7xnsJ7V6/z9MbddO7EVCCGENIYLv6YgNVLOt2pWkKfB0e/ioVHTwdmkeoW8hUF9FapLelxb9e8vnuubd8C22XMRNJefnuoKd309OHd4FLeLx4TTga6WKK7dNuvcmeawpEEOZ2TgilTKt2rGAuUNwr5ZRj16W7P/zvbk5EqD6vLYbX4WbsuOfGztKLAmhBCiMxTCh3Pqvn1o9/zztQrbmpo6Px9xq1cj+rPP4DR5MryXL4exoyO/toRZp07ICwriW42HVVgbN8GCi9IrVyCPiYHjU0/xEaJLsrOzcfLkSXERxSvCc9m9e3fMnz8fDz30EOzrUI2fJ+w0fhAZiZu5ufjWz0+slG4sQ21sECz8/aQoFHyEsC59xzIzMU94r2A9Epd5e+N9Ly+4Up9vQkgjkklViLjIgg4V0iNX4pv94/DxkTW4nV8qaNSk4/b5mVhzJwzF0Ys0VYmYG7SIHameQQPnCgalFnu2GjAA+vVsfWAzYgS/REjdaYQ52X/CnOwe6SVcmD0Zfwr7e+x0cMmfEN5KK1AI96tr9bNSoxED6JKvAxXIOfQVjjw7EQff/RnplbztstuyViXsvq0ZBdaEEEJ0RuKmTbAaOBDmXbvykZaTe/s2Ql58EfLoaPh//z0cxo2rMkQ369gRsiYKrJuiwjqJVVePH9/gnQ7SfFjYGRUVJVZSb968GRkZGXj00Ucxa9Ys9O7dG5I6hp6JBQV4PSxMnLB/7eeHdo0cmrJFYzqztiBUZS0KzMvDIuHx3pSYiKkuLljToUOD+yASQkhlQk5lFy2uqArH+YCzwhzlJfSUrsPW20FF4bQqBP+dnIo1ARcQmycrU/EXdKJUgENIJVjPaCNnZ75ViqQ91k6bVG3/asaiVy9+CdAX5h62Dz7It2qPFXNY9OjBtwipO9aWI7300QISV7iOGQe/sUNgFnMDudZukFTxUj4jzG1Vwvy5tlh1dW6pIws0sXtwYslhmE1dADfpKUQEV17lnavR4HIdKsB1EQXWhBBCdELunTvIuXTp3kIsLUWjUCBh/XpEvvce7B99FL5ffglJDVXOrMK6ID5e7HPdmMSWII1cYc0eY/a7Oj75JB8h2kwhvB6vX7+OrVu34uDBg7CzsxND6ieF58/Ly6teRyLcyc3Fa2Fh4sIun/r4wNKw+p3L+mKrqp9q432sWYX5iuhoLI6IQE8LC2zs2FFcVLG2PcIJIaSuQqJuIf/+/ZA+dRzDNo/AqEGbca3ADj07GUNsPKTOhdp+AZ51t64QFiQGyVCQVxKsEFIZm+HD+aW6YdXUrKq6NPvHH4dlv358q2aGtrbioud6+hR1kfq7UX6fzdgDns9Mga93NJJMpmP4wr5V9mTPUasRLpPxrZqVr8hWhp5BptoEuX/sQIrTKPh2KjnqoLwTrXweTX/FhBBCtF6hRoPEdevEENW4sqqNZpIfEoJQYRKce/Mm/L79Fk5PPw29WvSVZW1CDO3sIBPu35hYsGzcyKufs97V7HEufUgm0T6sgvrYsWNYJ/xd3L59G3379hXbfgwbNgw2Njb8VnV3VPi570VGYpKTE15xd2/SBf6GWluLE/qkNtgWhPWp3paUhPnBwWDRz7qOHTHL1RVm1KeaENJEkvJDsD/yQyT23AalZyA0VhnQmEmh52oKL89s3C74Hmmjt0Ht2B4jewyDnX7l7/8FuRRYk+pZDx5cr1YeNg88IFZVl8a+eHedN69ofZgqPiPZUWbsZOLjg/bvvtski5GTtqV0xfM96nhEfPcfLOZOh2MNL2/WVq+2YgrKLmhbqMyHSl4IhxnzYX/1M5zaHS3OFSsTK6/9WgS6iAJrQgghWi/z6FFx1XHHZ57hI82LLSCTtGMHwt98U5yEd1i9Gqbe3vza2mFtQfIbsS2IOi9PXOSRHXrZWLIvXIAiKUlsB0K0D9sZCw8Px549e8SFFPPz8zFeeK6mT5+OHj16wMjIiN+y7tjP3pKYiLUJCXjX0xNPVdKLvbHZCb8vq+I+3YaqrNnjfER4L5sjvBdclUrFhSyXCo+3i3FVdTqEENJwMbk3cDjuW2QpEviIQJaG/1ZeQaiLD4beb4L0a2nIto1H3ugdUNsl8xtVpGdAR4CQ6hmYmcFtwQLo1WFewo5GZIt9V4ZVSztNmgTfFStgP26cWATC5ubsyEVFWpo4H2aLNSqFy5lHjohr3hDSEJUVbBSmnUfwXRf43e9aY5Ba2yPlWOs9pXAqzcDZH+amVrDw9oediyEUGbJS/a3LYk1L6tJ+RNdQYE0IIUSrqVkF5rZtcJk5Ewampny0+bAe1WGLFiH71Cn4rlwJlxkzoFePFgmNvfAi61+tJ5E0WhUJC9LE6uoJE8QdDaI9ZMLfwOXLl7Fp0yYcPnwYLi4umDNnDsYJO20eHh78VvXHqn2XC69zdljhKl9fDLCy4tc0PdYWpK6L0+gq1mrl1bAwbE1KwkzhOVzt54du1KeaENLEMuSxOJmwAerCouUT9YsDZ2MzOOklYNe0XVixUYN+s7xgL0xvCiUy5I04gEKDiiGIgZEeTK3oSBBSMzbvdX/1VejX4nPOondvuLE2HjXMrw2FOYPdqFEw8fYWw3ADS0sYOzjA0Noa+sJ9WXDNAuvI999Hwrp10JSrXCWktthaK+WpYq9DatoJtjY1vwdWdv/KsGDbuFy4bdRlGvoMT8K5R0fjZEh/dB/vh6r+MoyE+xrWMhzXRRRYE0II0Wopu3aJoax4KGAzYm1IUnbvRqgw2Tbr2hUdvv9enHzXF7uvLDiYbzWc2L+6ERdczDl/XqxMYb0CiXZISUkRA+oNGzYgJCQEgwcPxrx58zB06FBYCjtpjSFdqcTb4eFIE86/8fODdzN/KcTagkTJ5YhvxTuVyQqF+IUAa7XSV3jeNgnvBSPt7OrVX5wQQurqVsbfUBUWtV7SpMfiwGv/4WSUmpXBottb47Hsq27o1sEQSUfDEJpetMRioakKnV9fiS8GdEfpBg3e/S1haEwRAqkddnSh7+efw3nqVEjc3floERY4s4XU2y9eDLcXX4R+LY400gjzhZhVq5B79SqrtECVn6LCddIrVxD79dcUWpN6GSLMT8sz6rcc0y5/DbcapuBeJiZwr8Ni5X7l597GHvD/5gimnz6Bace+R2efqv82Kty3laFPG0IIIVqLHdKXtn8/2j3/fLOGOwWJiQh/+22kHzwI72XL4PbCCxV66tWVWYcOUOfnoyAujo80DKuwZqugN4Yy1dWtfOKj7TQaDYKDg/Hbb7/hl19+gVqtxtNPP40pU6agS5cuMGzEBRDDhNfja6GhcBV2Elf6+ootOpqbtfDv6WFh0SrbguQLzx1rs8L6VLNanPXCjvsMFxeY0EJQhJBmIlNlI1p6Q7xcEHIXG6YewbFLGcgqzvCU2biw+g6SenRB95wA/LY9DcVXKfxuolCvbOfUTsPrv0YCaZv0TUxgM2wYvD78ED4rVsDz/ffh9fHH8Pv6a7jOmQNTYf5RW4lbtqAgKopv1UweESEepUlIXbUT9vv867lPNKyOa8mMqPT2+jCwsIRBDVPG4Q1Yt0YX0IyZEEKI1krcuFGsvjDv2pWPND0WUoe+9BIkbm7wX7sWFj178msahk3YTTw9kd9IVdYssG6sCuvsM2egzMyEw7hxfIQ0t7y8PFy4cEGspj558iS8vLzERRQfeeQRuDZiJX2xc9nZeCs8HKPs7LC4fXsYt2CI+oC1NU4Jv09rwfoR/puejrnC3/rN3Fx87uODxcLfvhP1qSaENLOInEvQiF1OAXWuBp4LBqKbtR4MTfkh7fIchCUZw+9+D3S/zxQ5dzKRX1RkjULTXKjcwos2BB49zeHoTV9qk/pjR0yaCHMONn9l8+K6YGus5F67xrc0SI89j5mH7yCs+DsVtRSHLvyDJ3fvw4yzoYjk46zSmvW5JqSuHndwEAsO6sJNmOsNqONRkKxww74eBSm2wn16tfLWchRYE0II0Uq5d+4g5/JluM6ezUeaFmuHEbF0KZJ/+QXt33kHHosWNXovZ9YWpLEWXhRbgjRChTVrfZL8889wmjixzjsPpOESExPx999/i0F1dHQ0hg8fjrlz52LgwIEwa6Je4rtTUrAyJgavuLtjmotLi7emYIddslXOY1rBSue3cnPxSmgofk5Oxhxhh5y1Welibs6vJYSQ5pWryuCXhDlIn24YM8wChsJbvoGpPiRmBmwSAJVaD4YGetBnpXxqDdSlWldrzHLEc0dfEwyb23iLPBNSV5knTvBLKoTcPYmpRwJwISMPMv56lWUE4PMgNZ4a3A1WERfxU3JRz3bWHiT75Mmiy4TUQUdhHs7WHKltaOpoZIRXhbm1UR2LQFgf69nCnJH1o64tdls2z6zt4o66igJrQgghWoeFqInr1sHxySdh7OzMR5tO5n//IXjBAhiYm8P/xx9hNWAAv6ZxsV5+jVZhHR8P43YN33nMPn0aaqkU9o89xkdIU1OpVAgICMDPP/+M3bt3i20+nnvuOUyaNAkdhdeIfhNVO7NVxL+JjcW+1FR85uODEba2/JqWZckrRE7rcJV1YkEBPomKwoeRkRhoZYUNnTrhIeHxpT7VhJCWVFhYtqVHaSZWBjC1tYCjlQoZGQpkxxfAyNUCLMcupm9UCP/7rTHmDQ8YmVB0QFqO9OJFfkmNXI09Fgx0h3Wpj1iJRTsMMcvBwYBQBBi54oFSi4Pm3LsvIXUz0NpaLPBg7fOqwt4Z+wjz2Hfbt4dtPdvr+ZuZ4SU3t1q1jZMIc8sFwj4gC9RbO/rUISjUFEKWo0JehhJKOT8GjBBCWlDm0aNQZmTAadIkPtI0VNnZiPr0UyT89BPcXnoJnkuWwNDKil/b+MSFFyMjG7wADOuFzVZClzQwsBarq3/5BY5PP93gHt2kZlKpFGfOnBGrqc+fPy+G06ztx6hRo+Dk5MRv1TRyVCosiYhAsPDa+bZDB62r+n3AxgandLCPNetTvTEhAc+HhEAi7GRsEJ7TqdSnmhCiJSQG1R8ubuzohEfmOCDy/f348bAphkx1gYWBHgyM9GFiaYD7n/XBkOkuMBS2CWkphcJnrTo3l29J0KdbDwyz0C+z6KJKnonQAiN42FjBTpmOG7lFrXAYNt8npL66CnPmj7298YaHB/pbWsJD2GdiAba3iQketbMTW78tcHMTCzAagv133vf0xEPCnNisknmkqTD2oHDd+15e6N7KW4EU0ytkKy2RNocF1HcOZyDqqhTJoTIoipuVCWzcjOHqb4YuD9uifS8Lqg4ihDQrFsYGz5sHl1mzYPfww3y08WWfO4e4774TF0N0f+01GAkTjqbGPnIDnn5aXMixIX2580NDxUUhu+/fz0fqJ/P4cSRu2oROmzfXanV2Uj+xsbG4ceMGwsPD4e7ujt69e8NHmNw21+drnFyOD6Oi4CZMsFm/ajODunbka3q5ws7oc3fvYrWfH7x1YOFPtfC3fCgjAzuSkuAiPK7Pt2uHTm2g0oW0bi4uLujXrx/++usvPkJ0XWZBHA5ELeNbVdPkyyEzlMDcuORzyVDPGM/4roTEgNoakZbFAuuQF17gW0WyYw5j9HlrbJgwAN0NgayIv3D/BUf88nQX3Pjjd/ziPxH/62ENMUIU5j0df/pJvB8huqBAoxHbzGULr33GWngNs17XrDhCl7GWh7nCv+vOnTt8pHr0VWkbo1JocGpzItZPC8TpzUmIvZlXJqxmsuIVCDyehb1LI7HthRDE3S7+NpMQQppeyq5dMHJwgO1DD/GRxqXOy0PMqlWI/eoruEyfDu+PP26WsJphAaXYFqSBfazF/tUNXIiPTf5ZdbXTM89QWN0ElEolbt26he3bt+PAgQMwNzfHdOH1NnHiRPj6+tY6rGYL+LHA+XhmJvampmJPSgqOCpdZv2cWmtbkhlSKRWFh6GdpiQ+9vLQyrGYshN+LHU6pC4svssd0YWgodgnPBQuqWZ9qCqsJIdrIVuIOZ9MOfKtq+mYmZcJqxtuyP4XVRCvoCXMEgxoqSi1duuMJwwA898seLJe5Y4anRVFYLWjKoycJaQosmO4vvG4ftrUVT+yyrofV9UEV1m1IZnwB/vg4ChmxdT8Uvf9ERwyd1fILMxFCWjdFcjKC58+Hz2efNagCuSrS69cR9803MHZxgcfrr4vnzS1p+3YUxMbCc+lSPlJ3yb/+Cll4OLzee4+P1B1ru5K0bRs6surqevZbIxVlZWWJ1dSsRzVbNLFXr17oKryWjev4pUCGUomD6en4NyMDmaqSw1pLsxR24Ebb2eExe3s4VfLz/xbuvy4hAfNcXfGYgwMf1V7/ZWbiF+E9YGOnTnxEu8QXFGCD8HjezM3FM05OeMrRsU3uPJDWiyqsW6cY6Q0cS/iBb9WOPgwwznMp7Ew8+AghLSv5t9+QdewY36pCoRrZ+QUwMDWDRamPZ7sxY+A4YQLfIoS0FKqwJpXKjCvA7++E1yusZi7vScWxH+LFw9kJIaSpJG7cCKtBgxo9rNbI5YhfuxZRy5bBYfx4+KxY0SJhNcP6WDd04cUCVmHdgP7VYnX1r7/CcdIkCqsbAftsjIqKwv79+7FlyxYxtH700Ucxc+ZMsf1HXcJq9rP+SU/HXOE18mtKSpVhNSMVnsc9qamYJ9z2gHDOqrEZds6C6s2JiWJVtS6E1QxbrDBVqUS4TMZHtANrV7JeeDwXhISI/QlZoP6sszOF1YQQndDeshd62D3Kt2pDD4NdplFYTbSK7fDh/FI19AxgbV42rIbwWW09bBjfIIToEppptwFsIcV9H0QiL6Pqnd7auPV3Bq7tT+NbhBDSuHJv30bO5ctwnT2bjzSOvMBAhLz8shgSd1izBo5PPQW9FgyaWEsQZVoalOnpfKTuWEsQ4wYE1pnHjqFQpYLd6NF8hNRHQUEBrl27JobUBw8ehJ2dHWYLr9/x48fDy8urzkclsRYfq2Jj8V18POSa2i+CrBTutz4xEZ9GRyNbqcTHUVG4mJODr/380MfSkt9K+7F2Jax1yUktWXyRPR//E/5W5wYFISQ/H1/5+ooL7tjTlzyEEB3T13E8+jlOFCunq2OoJ8Ew13noYD2EjxCiHVihiUXfvnyr9iz794exjnxxTwgpiwLrNuD0lkRkJymKNgrzkJZ5GreSzyNeJoOm0oJpNfKyzyBCpuTbJc5sTUJGrJxvEUJI4yjUaJC4fj0cn3wSxk5OfLRhNEolErdsQcTixbB98EH4ff01TNq359e2HENra3HS3ZAq64L4eEjc3PhW3bDq6pTffoMTVVfXW3p6Oo4dO4b1wmuWHdLGDqGfP38+hg0bBmvh+a0PVln9bWws/mtAWHshJwezhdeVVKUS+yq3NzHh1+iOB2xscFoLAutrUileCgkR+4a/KPytfSU8nv7Up5oQosO6243G075foLf94zAztOWjRayNXHCf0yRM8l0JH6v+fJQQ7eI6cyZMvL35Vs1Mhc9utl4NIUQ3UWDdyuWkKHDjr6IqPo3yOv4+NxLf3lqPf4I/xPenHsHO6NuQlkutFTk/4+dLb+CvtBw+UkKtKsSFX1P4FiGENA7WT1mZmSmGqI1BFhGBsFdfRc7Fi/BdtQrOzz0nLtiiLcS2IPVceFGdnw91Tk69W4JkHDkifkFgN2oUHyG1wQLlsLAw7N69Gzt27IBMJsOTTz4pLqTYo0cPGDUw/D8svP6PlQlqNVBFXkZ6eDqURQuEl6OGIuAkUuL4F9KcTHhuB1hZwdqweKkh3cJ+9yyVSqxobgmxcjk+iIzE8uhojLC1xfqOHcUQnRBCWgMzQ2v0chiHZ3xWYLLvV5jgvVw4/xpP+XyCrrYPw9iAvpgj2kvfxAQeb7wBy3792ErmfLQS+vqwHDAA7osW0cLihOgwCqxbuVt/pwt72eySBtLkr3E6rxBW7p/gjQcOYlEHWwRGbUS4rLivdTru3BqPD86uQoSws1hVt+qQ01nIzahYfU0IIfXBAli2+J/LzJniRLQhxN7Mv/2GMGGCatGnDzp89x3M/Pz4tdqjIYE1q67Wk0hgZG/PR2qPtQERq6snT4aejgaazY0F05cvX8bGjRtx5MgRtGvXDnPmzMFjjz0Gd3d3fquGYQsssh7Jpalj/sTNGQsR9HcQCirp6KUO/x3X5r6JiFt5fKTEzpQUJBbUb82KlmYi7GSyldBPNXOVNatK/1H423opNBS2wt/Gho4dMcnJCcbUp5oQ0grp6enD1NAaVsZOwrnutI4iRF+YA7d7/nl4f/opbEeNggE7so19VgsnQxsbcYFF7+XL0W7uXAqrtUiaQoE9wvz0k6govBsRgQ8jI8X1VoLyKs5jCSlGs/BWLux8cZW0Pswd38OsXt9jensPGEIPBvrC/xq4w1CffzupSkJkrhm6d/0Uw8yqfnPXqIHoq1K+RQghDZOyaxeMHBxg+9BDfKR+5HFxCHvzTWQePlwyUdXSlhdiYB0aKgbsdcX6V0tcXflW3WQIjw3r3203ciQfIVVJESbVhw4dwoYNGxAqPFdDhgwR236wc8tG7gv9T0aGWBldJB/S39/G2ac/RVq2EsITxseLpSN97Qs4NfkrZOdrUFhJby9VYSH+bECP9Jb2gLDzeTo7u1kWemZ9qv9IS8Oc4GBEyuViK5VFHh6wo3Y5hBBCiNZiLQSdnn4afl99hY7r1okn3y+/hOOECdSzWouwo+a+E/bRlkRG4lBmJmIKCpCmVCJBocAVqRSrhOvYkW0BFFyTSlBg3YopZGpkxJZUWBlKOsLfqS9cjAygytuP/WHJ8HQbDefinTLDrhg3+BdMaeeMmpaJSgrVrhX8CSG6SZGUhLQDB8RKibouUFeMhVppf/yB0IULYerrC/+1a2HRrRu/VjuZ+vgAGg3k0dF8pPYK6rngIuvpLVZXP/usVrVH0SYa4TkJDg7Gb8Lj9Ouvv4rbTws7Q8899xy6dOkCgyZ43DTC6/fv0uGySorc0AKYjJgOL2+jike8ypOQejYHDks/hZdb1aHq4YwMKO6F4LqFVVhL1WoENXFbkEs5OVgQEiIG1q+6u2Ol8P7ha2rKryWEEEIIIfXFqqo/F/Z1buXlVXn0PpMo3I6F2mzBcEJKo8C6FctKKNvXsogGsqxN2HzhW0hdl2KUW2fYG9b9ZVA6CCeEkPpK2LQJVoMGwbxLFz5SN4qUFEQsWYKUPXvg9d57cH/55Qa3FWkOrB0HC9fr0xaEBdb16V+dcegQ9IyMxAUoSVl5wkT6/PnzYjX1yZMn4e3tjXnz5uGRRx6Baz2r2WuLTdIzVaV6fhg6w3Xpatz36ZMwquw7HJOu6PTzL+g+pvrFSVnFNqsY1kUSfX2xl/Wp7GyxXQrbgTmakYGjmZm4kZuLvHocmVBajPC4vBcRgS9iYjDS1hbr/P0xpJ6LZRJCCCGEkLLkwjx0dVwcMkrPcavBZnZbExNbbA0Top0osG7F2AKJZamRk7Ic31/6GYXtV2KS/0PwlhjV60WgVupm1RYhRHvk3r4N6eXLcJ09m4/UDWtvEbJgAYxsbcWqasu+ffk1usGsY8d6BdasJUhdK6zF6updu7Ru8cmWliA8ln///bcYVMfExGDEiBGYO3cuBgwYADOz5ll4KrQJJ+a6Oulnh4+yrP5/aWmYGhiIZVFR+FrY6fk6NhZLIiLwdEAAXgkNFavIC+pQRZ4t/Nwf4uPxsnBfJ2NjbOrUCU87OcGI+lQTQgghhDSaC9nZSBL2P0TqdMR+NhOHt4WJwXQxTfppnJ/5Iu6EFRVasmj7fzrc0o40Ppqht2JGJmWfXqV0EzbfPAErzw8x1Xcw2hlVseCWngNYW+vCag7cMDallw5pW1iv4ZxLl5CwcSPC334bQXPmIGj2bIQuWoT4H35A5vHj0OjoImctoVCjQcK6dXB86imxB11dKDMyEPnRR0jcvBkewuPfXng+DBu5p3BzEPtYBwfzrdpjiy5K3Nz4Vu1k/PMPDExMYDN8OB9pu1QqFQICArBz507s2bMHRkZGmDJlCiZNmgR/f3/oN3N4WdvKk/pgwa8uYe19Dgo7KrMCA3EiKwvVRdFhMhm+jYvDfOFv6Ia0+nU1WE/vfampmBsUhDi5HKv9/PCKuztsaOFRQgghhJBGx+ZxIlkI7r4zFUe2X0BGkuxewqQK+RUnp76IgAvByJOVxNisHVySorJOAaQtotSxFbNtZwx9w+LjiaWIDNuCWFUaQiJewQeHeuGNf3rijZPLcSe/8kOGDfWrrsJz8KYej6RtYMFq2l9/iQF11EcfIW3fPuTduQNFYqLYf1kWHIz0gwcR++WXCJw2DUnbt1NwXQuZR45AJUxknJ55ho/UTtbp02JVNet37f/jj7AeOpRfo3tYYF0QGwt1HRYZUQuTOHVOTp0WXdQIkz5WXe3UxqurpVIpzpw5g/Xr14vtPzoJjz9bRHHkyJFwdHTkt9IuxX3dK+3cpWcsrseoV7xwciWafsnCxqMU3muXR0eLFdAFhbX/zVOVSnEhn9+Sk/lIWazC5wXhfZoF4a97eOBzX194U59qQgghhJAmESWXI744dFbmQtNlAQYOtS6zTpo6VwH7BUvgbl1xHntWmLsRwlBg3YoZGOnDyae4l6sl/Hufx6pHbpY9DVuKbmbl+r0a+GDUA+fxspstH6jIpQPt7JHWT5GaiojFi5Gwdi2UKSl8tGrq3FxxUbuQl19GfkgIHyXlsdA1ads2uM6cWet+0yqpFDFffIG41avhOm8evD78UGwFosuMnZ1hKPwb6lJlzaqr9SQSGNrb85Gapf/9NwwsLGAzbBgfaVtiY2Px559/YuPGjUhOTsaYMWMwZ84c9OvXDyZa0O/ctroqXz09aLIyYFDZbE3fHBp1IQo1VYe7ulJBrC4sxOcxMTjXgMV2tgvPbenQOlImw7sREVglPP9jhb+Xn/z9MYj6VBNCCCGENKn04lYgjFUfdJs9DBbGZYNpSZ8Z6DHMRTyyvzy2fgkhDAXWrVyn4Tb8UuMxNtOHVz/dO/yekLpQJCcj/K23xGrqulLEx4tBd15AAB8hpbFQ38jRETYPPcRHqpdz+bJYVc0qsllVtd3DD/NrdF9d+1iz/tWsurq48rYmGrkcqb//XtS7ug316VUKE92bN29i27ZtOHDgACwsLDBjxgxMmDABPj4+tX78mlpubi4gvF9UytAD3nvPYejSR2FUWWG8kQ86/XMRgx6z4wMVddCRSuLdKSm4UCGsVkIefAmZwvNYcrqFrOhMVJXRs9CaVeWsiYvDq2FhcDM2xsZOnfCU8H5DfaoJIYQQQpqepg5HylWGFTIQwtDsvZXrOtIOhpLG3THvNsoOxqa0aBdpvVgFcMS779aqqroqLCiMfP99FMTF8RHCsDYqaX/8gXbPP19jaKiWyRC3Zg2iP/tMbB3iLZwba2nrhvoSA+u6VFjXccFF1q7GwNoa1vffz0dat6ysLJw4cUJs+3Ht2jX07NkTzwuvtQcffBB2dlUHu82F9c+Ojo7GyZMnsX37dvH3jL1+HaZ1WDiwtiTC35ePDgTWMcJ75c+lKqPvUUYhZulruPrKK0WnhQtwcfo0XPnqVJWBNfOZ8PgmFhTguw4d8LK7O6ypTzUhhBBCSLMxb2ALQgtaIJ5wFFi3chJzAwyd4cK3Gs7M1hADJtdtgTRCdE3C+vVisCoqVCE2MxVHk1MRJFNBVSEoUSA+IxmHkjOQUG59MxZax379tbhgIymSsGkTrAYNgnmXLnykcrm3byPkxRchj4yE//ffw+Hxx7WmKrYx1XXhRRZYS2oZWLPXX8ru3XCeMqVVV1ezhfoihdfJ/v37sWXLFjG0fuyxxzBr1iz06tULxsbG/JYtIyMjQwzP9+3bh7Vr1+Lvv/9GXl4e+vbtK4bp06dNw+Mujfc5XexhOztIdOB535+WVmbF+HuMOsB/zzk8fPKkcPoPQ17vCmOnofBfNKryFikce4seYWsLTy1o90IIIYQQ0tb4m5mVC52t0X7tBUx6pzvKlBFYj8CoC0cxoHvZAoveOriYPmkaesKOHtXbt3Ksv+WepRGIvVn7hb2qMv5DL/gMsOJbhLQ+svBwhC5cKF7WKDOw9vJV7FJawMOwANHCn9CQjr2w1MMa1qzhlioTe69fxfJsCTwNZIhQ2eKjIX3xpFnZNMXj9ddh24raWJTHPkZkISFi+5T80FDhYckUe+8a2tjArEMHmHfvDlPhnF3Pqs47rl8PY6fKv/hiCwSy/tbpf/0ltrFwnDixVS8UyKrIA4R/Y8eNG2u1kGLYG2/AduRI2I8Zw0eqxsLqrBMn0OH771tl2F9QUICAgADcuHEDcrkc3bp1EyuqrVu4TzH7XWJiYhAVFSVWU7Nw2lV4br28vMSTk/DaL/98pAmv+7nBwVA00pSMvQP96O8PDy0PbfPUaky5e7fGf3dh2kFcevR9GLy9H72f8oRBDS9n1gpltfCeQwipGxcXF7G//1/CZ7C2yc9WIeJiDvIylGAHpZhYGMCrjyVs3SX8FkQXpUXJEXQyC5lxcqgKCmFkqg8XfzN0HGYDSwcjfitCiK7Zm5qKfzMy+FbtORkZYbmPD98irc3AgQPFloh3atl2lQLrNqIgX41970UiMSifj9TdqNfcxXYghLRmsd9+i8zDh4VLhUiJu4Anggrg49sPW73NEB9xFs/G2eDDvl0wxtwAWQkXMO6OAd66vy8el+Thp9Nn8atNPxzs6QCLoh8nYmFth9Wr+VbrwT4+WCCauncv5BERfLRyJsLEgy1KaTNiBFxnzOCjZbGwO/arr6BnaAiPN9+Eqbc3v6Z1Y5Xkjk8/DVvhsalJwOTJ8Fy6FBbdu/ORyrEgPGjmTLi/+iqsBw/mo61Deno6rl+/jsDAQNjY2IhV1J06dYKRMMFtCezvIDExUQynWUidlJQEKysrMZz29PRE+/bta1Xl/WdaGn5KSOBbDTPV2RnPCSdtd1UqxfuRkXyrKgpkLR+Ni8e64b4/V8PWonZV47u7dm3wIamEtDXaGFinx8hx658MxNyQQlPuSDbGuYOpsH9ii/a9qCJPl6RGynDhlxQxsK6MnvBW797NHIOmOMPcjoJrQnRNmlKJD4U5Xl2LMZ5zchKPlCOtU10D69rN+onOk5gZ4KlPvcVvq+uKVTA8tsSTwmrS6rHWHVknT/ItPdg4dsG3PXrgY3dzsKmyIauq1jNEUVt4FWLSc5Fr7oz7TIW3Un1LPOKoj5z0dMSXO75dFhqKgqoWVtNRyowMRH34IWK//LLGsJpht2E9wWVhYeJ9S2OPe9LOnQh/800xXPX79ts2E1YztV14kfVWV+fk1KoSm/UJZwtbtpawWqPRIEx47ezevRs7duwQq5iffPJJTJs2Dd27d2/2sFoqleL27dtiqMPafOzduxfJycno3Lmz2Ipkzpw5eOihh+Dn51frliSP2dtjsFXDj2DqZWGBZ6o4gkHbhAqv6RrlXULon1mwnrkI1rUMq5lQmYxfIoToKhZSH1wRg6grlYfVTHKoDMd+SMC1A6l8hGi7+IA8/PtVbJVhNVOoAWJv5eEv4fnPTlLwUUKIrnAQ5uZzhX2WugSOg4R5MIXVpDQKrBtIoy4UvyG+czgDZ7Yl4dTmRFz4NRnh/JA1bcJC60ffaY9xSz3h4FW7w4QtHY0w4yd/+A9t2UOsScMpZGrkZ6kgz1WLFYGkooLYWBQWFPAtwFhijQFOdvA10oMiLxYrwuTo4eYCX2P21qlGWoEGEokxiuMoY4kRJBo50ippyJofEsIv6T5FSooYLkuvXOEjtZd79ap4X0Vamrgtj45G2GuviV8U+HzxBVxmzIB+C1XKthSxj3UtAmv2pYeeRAJDe3s+UjkWbKft2wfnqVP5iO6SyWS4dOkSNm3ahKNHj6Jdu3aYO3eu2KPa3d2d36rpKZVKsXqaLei4detWbNiwATdv3hQrvB9//HG8+OKLGD9+vFjtzcbqQ19PD++0by9O1uuLhdUfeHnBUEdawLDqm5qobu5CptoGHqM96zRpTa/FzyaEaK/E4HycWJ8ItbJ2c9abBzNw+1DdDz8nzSszrgD//RgPlaJ2z2t+pgqHV8eJRwsTQnQL60X9kpsbTGtYU4XNWh+2tcWsJljTheg2aglSTyz0u/VPOm7+lQ5patU7RZ69LdD7CQd497fUqh6i7Gln325HXc1FUkg+shMVYvjOFml09DGBfXsTnNmeJL55sMDazp0WL9I17PlkX5wEn8xCkjDpz0kpeZ2a2RiKh1D6DbJCp+G2MDKh766YzOPHxYrhsgohzYrAW1cjkO3SDUv9nNFFog99FOD45ZN4Fz3wd38XsOMPEsP+w5NRDvh2eA8MLLOiBMRezK6zZ/Mt3cXaeoS+8krJopT1ZOzqKvb1Ttm1C3ajR8N11izot9FF0uRRUQhZuBDd9u6FfjXVuCzUZ4+X/9q1fKRyyb/8gpyLF3W6DU1KSorY9iMoKAiOjo7o3bs3/P39YdCMLR7S0tLutfmIi4uDRCIRW3wUt/owMzPjt2xcauHzmbUH2Sr8jSlrOUVjjwprAfK0k5POhNXMd8Lj+k+1/Q0VyP5iNC6efhiD9y+FRR2+y3rd3V1ceJIQUnva1BJk3weRwv5JLtKi1uK32yeRbtANwwcuxjA786IbaNJx++IbOG75HhZ08xOPhNMX3gyf/sIXZtblJmFEa5xYn4DIy1K+pUBa5Gr8cvsi5DbjMXHAc/AR5tiV6TfBAd3HVP+FPSFEO8k1GpzLzsaJrCwkKkqOmDDT18dga2sMt7GBcwsvkk6aB/WwbgYRl3Nw5Ns45GVWcWxaJXzus8TIV9x1qgfX/5ZHiYdqtetijtGLPPgo0QWhZ4UPBGFCWN2XKcUkFgYY+KwT+jzhAD3W8qINS//nH8R/9x3fYgqRlhKA528kw9G7B97xtoe3YfFEWoPbt49hRnZHHBzaHqxJQ8TdI5iQ4oU9D3SAb7n5tv1jj8HtxRf5lu6KXbUKmceO8a1yCpWIzsxAsMIAnjZ26GDCgv2q6ZmYwPuDD2DRqxcfaZsKhUlcwNNPw/vTT2HeuTMfrSj511/FRUG93nuPj1SkzstD4MyZaP/WW7C67z4+qhvUajVCQ0PFoJoF1h07dhQrllmA0hxYNXfpxRLz8/Ph5uZ2L6BmwXlzfvGcJEzo/5eWhsMZGchjK4xVgbURmSk8Ru5a/IUPe25zcnKQmZmJLGFnpfh02swMwe3a8VtVJgeJ0x9EsP/3GLRkIKrIMSr1kfC83dcILVYIaXkKJJ3bhS0HLiFOZY9uo6Zi2ig/1LZDjjz6OH7e8TeuJyph43c/np4xHj3tKv/yT1sC64SgPBxaFSf80y9g855FyOm5Av1S38fOvDfxxdjHYa0OwX+nX8Wv4ZGw6b4bnw7ojuKlF3s/YY9ejznwLaJNZNkq/L44vKS9i+wQvtm9HBYDlsD+7mKcd9mKTwf1uvdclmbhYISJn3m3ykWkCWlLslQq5AvzQmN9fdgYGupUoQVpOAqsm9jlPSk4vbl+lYVmtoZ4ZoUP7Dx0o4ow8nIODq6MEVdsnrOpIywd6VsvbadWanBkTRzuHsviI7Xn1s0cjy/1hGkbrkrJOHoUcV9/zbeAAmkYZl2IgbNvL3zoZQubcoF+bsJFPHFbjblDB+BZSS42XriA32zvw/+62sKU3+Ye4cPYyM4OhjY2MBBO7NzQ2rrovPxl4aSNbTHyAgIQ/tZbfKssjSIN312+jt0qC/gYFSAiVx9DuvTFR27mMK1mHuIrPN7mnTrxrbYr4t13YXnffXB88kk+UhH7ssDQ1rbaSn3WC1x69So6fPMNH9F+eXl5uHXrlnhiO6I9e/YU+1I3VQVzMdYXmy2WWBxQs8USWTsPFlCzk4eHR4st5FiaUvg9I+VysSdzplIJNmljE/wOwuOzPzVVvLzAza3oxi1IJeyAZGdnlwmkiwNq1vObsbS0FB9jW+F1zM6jLCywqVQbpsa0s3Nn2LWx9kKkNZIjYPU4DHntKCS9h6NLYTBO3UhGx4UHceKbMXCq9qATDTLPvI+RD36Gqza9MKK3OeJOn0Wo1ZPYePY3zPGtOK/XlsD6+LoEsW91EY3w/2m4cnw8duBzfPbQMJgXXMOR4DgYJCzHIduN+LhUYC3ub33hQ8GmFmItW67sKek1rsn9DZ/s/gWDJuyE181H8EXaS/jiiefgUMWXMaNfd0e7zrzCnhBCiM6hwLoJscU8WC+1hmCtGCav8oWNa2XfHWuXQk0hNswIEn5nA7h1s8CI56urgiItjYXV/1sejYhLxRP8umO9zZ/+3KfNhtZ5gYEIf+MNvqXEhevH8XxS2Z55embt8U3/ThhhJuwlavJw4OoFfJJeCBtDFaQSD6zs3xnDq2ixYmRvD0M7OxhYWEBfIrwH6OujUKmEKjsbqqws8by4h7a+qakYTlYIs8sF22zbwMqqWXbMoj//HNmnT/Ot0gqRFHUaj4caY8qA+/CqFRAecgpTkpyxaXAndDWs+nezGT4c7d9+m2+1XUnbtqEgMRGeixfzkYrChNem7ciRsB8zho+Uxdq1sOpq9jMs+/Xjo9orISFBrKZmVdWsNzWrpmaLFOrX0OeuIViVLwuo2YlVUzPt27e/1+rDWvh70iUXhX/Pmrg47OjcWeyB3dRYKF06kC4fSrP3ISvh/ag4kC4+sW02Xr6lC+szPU14321szkZG2FLN0QqE6ApV1AaM7DgfkfP/w/XVI2Crn4sbKx/BoHdi8Py5u/h2UDXhnSocawZ2wKvpr+DE9a8xzEYfisgtGN9jNs6PPYiIXWNRfmkrbQms9y6NKGllp0nFrYtz8WOkJ6aO+wpDLIuD9mzcODwav1pvKBNYM5O/9hXbHYaeyUZuuhLsIBWJuT7a97KEzwBLGBrV/3OGtVJkLS3ys1WsFkFsP+Iz0ApOPhVKFUg5539ORtCJUkU1mmRcOTMTW2KVsEAcUk3exYonZ8CpiqdnyAxn+A+t3zoRhBBCWh4F1k0kOSwfv7wWJq5YXEQDufSq8NHqCw8LO0ju7SeqIM+PQoaq5PBdAyN32JuaoTgCdO1shkkrfaFv0PQ7lw3FFpJkK3Sz1iDztnWGqRX1hNNWx9bGiz3VG8q9mzmeXuHTJtuDaAoKcGfCBOFC1YffVyZXmoHwQlN0sjKt9DBGxnPpUvGcLTLIehazc3ERPX19SNzdYeLpCYlwYr2dWVDNKqzVOTlFQXb5U3HALVwv/q7CzzC0sqoQZFe1XZ9e0Wwhv4BnnqnysVHkZ+C01AB9nKxhq6dBTPhpPBPvjLWDO6JPNYE1DAzQbffuNtu/uhjrOR3/44/ovHUrH6koYPJk8XVk0b07Hykraft25N68Cb9Vq/iI9mGBZ3BwsBhUZ2RkoHPnzmJQzdptNAW2WGJsbOy9XtQsXHV2dr5XRe3KVi9vwoC8qbHq6ymBgVgivHewBRcbA3vMyofS7MQeOzbBZI9XZaE0O7HAv66P50eRkbjEK7AbywwXF0xycuJbhOgqNaLXD4H383lYEXgVb3fiQW32EUz1GYX/Jp5CyLr7UeVffu4pzPMbht+HHkT0nrEQYz51NH4a4IUFylUIvfo6/MpN67UlsN71Vri4ULjwj0D41Wn4MrAdJo9djkFWlpAYFn/xVXlgrSzQwNbdGLmplbduZMF1x2E26P24Q532xcIvZOPWPxnISijpv1qavacEPcfaw7OPJR8h5bH9SvYlwj3qRASEnQXaDUPh1SexTvUZvnj4AVR1fNWgKU7i2juEEEJ0EwXWTYA9RDsXhiI1Qs5HhJ3uvAPYcX4FMtotxwudHoIw9ymiCcX5C89iT64JzNjKHxB27Fy/wItd70PpGogHF7RDr3Ha318tK7EAW+YFw8nPFN59LTF4Gq3cqo3Ylwp7lkTyLQ0K8gIQlZcDU4tecDM1R2XzcbUyGGE51vCxdxEXqilt+HxX9BnfNAGStov84ANIr1zhW43DyMEBnbZsgV656kKNUomCuLii8JoF2TzMViQnQ8/YGCbt2xedvLxKAu1SwR57bxJD7eIAu/hUfpufNDKZeD89iaTSILvCNrssnNjvnXv7NiLeeUe8f00U0nC8ejESGr8B+NzTEnY17A/6fvklzLt25VttE3t+7j73HDr//DOMbCvujIlfGEyciM7bt4uvp/JUUimCWHX1e+/BsndvPqo9WGXzzZs3cVt4HbHFC1lI3VV4zk2a4IsK1v+6OKBmVdzsv1F6sURT09ZVBfdNbKzwHq+HV9zd+UjNFApFpYE0O2ctWlglNAuli6ujS4fSbLwxQ/4bwqR1SUQE32o4ifBYbO3cGdaG9AU70XVSHJ/lgwf/GIUjkT/j4eIDQNTRWHufF17C94i89BK8yk4tSqgT8esT/nju/EhsufgLZvoZI+vCcox64AMkzj+DwO+HVAi7tSWw3vd+BLKTlNDk/YGvdr2DoOLvyu2W4ovx0+AovgVVDKwV+WrIpGpYOhoJ71PVTz7cuprhoZfdYVDdl+ocawl551Am36pe36cc0OMRWhywMlf2puL2v6UW2tWk4MrJZ7AuKgd6Rr0wYewPGG1X9Wf0MGH/xKc/rU3QGNi8M/vsWXER9UKVCvpmZuJcnK0rw4ppCCGkKVBg3QTKhoH5SIr+ANuCTyBdrUG7Dhswx6cvLIvf1wt24edz22Deey/G21T9gWvtYozZGzvqRBXr7sXh4kIXrNXEvG2dYGxa1cyYtJRfFoUiKZiFkfmIDZ2DjTH5MJPoIS8/Cy4e72OK/4OwLp1aq8Nx5toM/E/5JpYMHo/yB8GbWBhg3o7OMKrLCletRM7ly4j68EO+1ThcZs6EE6tOriVW6S2PiakQZCvT0sQJJQuvy5y8vMSAuSYsIC8dYJcJtvlltXBSsnNhm01g2fGuBpaWYhU3u656hchOD8bbN2KR064HPu7ghA612BFs98ILcHj8cb7VdgXOmoV28+fDetAgPlIiPzQU4W+/jW779glPScXHNHHrVuQHBIjhvzZhbTdu3LiB8PBwsfVG79694e3duIsmscURWUBdHFIXCH8/xYslspNDJQF/a3JNKsUXwuP8c5cuZRauYaF0cQhdOpBmJ/aYsVCaVURXFUo3Z//XVcLvf6zG95faeVl47sfaU1hEWoMM7Bvpgglhr+FSwEr0v1d2moG9D7tgYtRbuH5nOXpV872fOuU4Pp44Hh+fVsPF3RTpcWlweuoHHNz6Anre23kpoS2BdYVK3FpQyjVimw5WNW0p7LfUhnd/SwyfX33Lw9v/puPK3jS+VTtDpjvD/35qXVFeSrgMB1cUteMqoYIsPxOFEkewbntVMTTWwzNf+kJS3Y1IjVj7ubQ//kCuMDeDumzbQ4Yd5cna9dmNHl2h0KY22L6GNq7DQwjRDhRYN4G/Po9GyGk+adIk40bgZ7ik9IVz9s+IdP0Gc/wG3wusVZlL8O3VePT0fxAqmRwWto/hPie3StsETFjuDc/e2n/YWODxTJzdniQG1V0eskW/CW2z8lZbsV56rF2NSHEcG08tRYThFCy8fwHMEmdiRVA6Jg/agx7mpmDxgzTpQ6y9+QfS2Z++1cdYOviJCoE1M+o1d3QbZce32o5CjQaBzy+EKr74S6qGMbS3R8cffxT7VjcUq7ItDq9Lh9ksaGZ9rI09PCFp7wljNw8Yu7rByLUd9Iwl0Kg0wgRSXXRSsZMGhaUui+elt4XLhcJlVZ5MOOVDnSdHYdglGCbc4r9JZQqRnHADC+5kiotULvWyg3st57nO06fDefJkvtV2Ra9YAWNnZ7jOmsVHSmSdPImUXbvgv3YtHynBvmwIEu7j9eGHsOjZk4+2HNZS4u7du2JQzfoas0pqVlHNQtHGoBZ2sIoXS2QnVlFtZ2d3r4La3d1dKxZLbA4snE/PyMBrqakYJ5fDUbhcHEzLZDIYGhqWCaKLT+y5sBDek5ozlK5OrvCcvhEWhljew7++hgjvg6w9irb8uwgprS6vy6Lds3TsftAFz8S+g+u3Py0VTGfiwCOuePLui7gQ+DUGVNU/QZ2K/5aMxbiVoegyZQGe7GGChBPb8NO/Soz/6Qh2zu+E8lk3C6z79u2LP//8k4+UKN+Dvimlx8jx5yfRfKs2CiFNU0KjBkyEXauC9K+wLtANzz00A27ir52DoEvv4M/UfOGyBTr0W4knnYuOfR231FNcw6Uy8lw1fn87HGplAdKi1uK32yeRbtANwwcuxjA74f6aBFy9/CH+F5cJe69XMa33/bAR9glZ2xEWrjakV3Zr9ccnUciIqft7fYeh1hg6g470bYj8kBDE//ADNML+RE3MhLmb20sv1Rg+s4BaevGiOE9lxTZi60DhvcLUxwc2w4bBUng/0aMjnghpc9g8hi1wX97gwYPFozkpsG5E66beRV5GuT5omlgcPzMRN13KBtaZEWPxVXAWbJxGwsswAcFJd2HtuwXz/fwrhNaDpjiLJ22nUmiwbspd9HzMAQFHMjB3SycY0ARMa7AvEy7+lsK3BIVqqKAHQ8gRHToFG9Mfw+w+0+EpMYK+MBYbNAd75eMx2mg9tme/jMVVBNY+A6ww/kMvvtU2KHLluPn9MaRfDkA75Vnhxc8X/GkAs/FzYODmVyYMLrmsEs/LhMeVBsnCbUpdLr5fyfVq4Wmv7q28UDyaQ99QX5h4GsKAvRaMDIRt4SSe6wuTyeJt4TalLwu3F+8XdQV6wWf4z6uoICsQMy4nwatzfyxzsyjV179mLrNmwenpp/lW25V64AByLlyA74oVfKRE8q+/QhYeDq/33uMjJRI3b0Z+cDB8v/iCj7QMFpSyth9sAsLCUBZSd+nSBcbGxQtk1R8LYIsrqFnVNmtJwSq2i6uoLdlRAK0UC56LK6NLn9jjLZfLxXA+VNixZH3gJ6jVZYJpbQqla5JYUIAXhJ1pZT2npYOsrLBYeE0Y0aHMREvVPbDOxF/jPTDu2jxcCPwGA+71FkzFruGumJywFDdvL0OPKhbPkN94Dz16L4fJshu48EHPor7A6hT8Nbs7xv3eHdvDDmFaUZp7D1tPII0dzVXJ39Hvv/+OCWydj2bCCoZKt2OsjqpAg7wstgiiDNmpH+PHiweRZDYL7098B94sK1PdwC97nkes94voZ2kOB4/H0ZMv3lhdEHr7UAau7EkVJogXsHnPIuT0XIF+qe9jZ96b+GLs4zDL/AlfnwhF/94+OPnfbnR94hCecSh6QoYIP9Nf+NmkrLDz2Ti9OYlv1Y6e8HJkXyzYt2/8NmJtBWtBGLNy5b32gLVh0bs33F58kW9VxI5KTf75Z2jy8vhIRQbW1nB44gkoU1LEI0XZ0ZusiIcVWJj36EHtRwhppdavX48FCxbwrRIsxGb7hwEBAXykehRY1yAvQ4l1UytZwb6KwFolu4S72fbwd/GFCVRIDhmP1XG9MPP+T+Ff7gtK7/ss8eRH3nxLux39Pg4FeWqx7UT/px2pN5sW2fteBKKv5fKtIqq8X7H50ioEF7jhvh6rMd7Vq1yAKEfs3XFYm1V1YG1uZ4jnd3bhW42PvfXcC2eVPHxlwWupy2Wuq+y25QPee5eLtlkQrOZjFW7LzsXtosvK3AIosvMBfT0YGBlCokqBo/Ia9FH5IoO1kefYD0qHzmL4KwbCRvriz9ZjAbC4zYLhcgFxqdveG+dBc4UwmV8Wf15xAF3qsjonC4p44W83hrcVYVXZMTHQsJDL2fleO5Hi1iISDw/hvpVXUrDKiZgqA1ElTlz+D6+mlX2s9Mw8sWFwZ/Q3qn4n3f3112H38MN8q+3KCwpC5JIl6LpnT4UJfOyqVeJhmq6zZ/ORIqy6nrUS8f744yoXY2xK7O84MjJSrKZmgbKPj4/Y9oOFyQ3B2lmwxRJZQM1+bnZ2tlj5V9yLml1uzD7KLY216CgfRhdfZlXULJQurowuHUgXh9K3c3PxkfBY/SZMAHUxsGWvo8+E5zlZeN49TExwXPh31xZrgzJVeD+b4OgI1subkNYjH1cXd0O/73vgz9gDGFd8kIoiEJ/36oL37bcj7uQ0uFTxJ5/++3A4T4rD29fu4LPeJUFf1r/PwOuRk5hwPAybhpf9sk9bWoIwbB0d1j5CkV/zPCw/SwllQSHMrPMQFbYfafrn8MvtDnh9QlFgrcnbg+W/voc0Cw/Y2I3H5PtfQGfe4pC1mpi8yg9GJhUfyD1LIyBNKS5eEH4PTRquHB+PHfgcnz00rGh9InUsLpx/DT8n9MALj7+PrvznOPqY4LF3PcXLpKzzPycj6ETt3+cHT3UWF8ok9Re3Zg3ybt/mW0U0sjis/O8mjPuNwuvOlc//3V97rdJ1ZrLOnEHy9u3sA5yPVKQRPtPVeXkoFM5Z60J9Sdlv19hRqLYPPgjbkSPpyChC2ghqCdLIUiNl2PFSKN8qpdLAWgVp5mHcVXRHX2cPsC/0pTGT8HWIE8bf/x16lquAcOloiue+6cC3tFtyaD5+ezMcQ2e64OZf6Zi1QTf6b7cFG2cGIufeZJrT5EOmSEVs7HvYGpmA0fftxRBrG2HHnl9fi8CaGTO1AAZ6POQtEySXCn/vnfMq4PLXl7oshsbCOQuRoan6rUfPgIWxZUPYohC3ZPveZfGc3b7sZb3S45XcjoW8BsI5E386BMlXo+A5sivchnWCgXHRfQrCgpC6+QdohDfVutAzMhL7Mts/8ggf0R7sLZ9VORS3FRHPY2JQEBuLQrUaEldXSIpDbHbevj0kbm5QCPcJnjOH/5TGZ+LjA/Nu3cTQlZ2zxR7bGnZYZcCECfBbvRqm3mW/zAx74w1xQm8/ZgwfKZKwcaNYee37+ed8pHmwEJVNNFhFNavy7SY8Z6yimvU+rg/2umStPYoDarZYopmZ2b0KahaAN8UCjc2JHf5WWSDNwnj2eLJK9MpCabbNHovqsMdvemAgFgh/q4N18G9nR1ISjgiPybd+frAT3j/ZQowHUlNxSSrlt6jIWNi5fVB4bJ50cBBDbkJao6x/noX32NN47nQQfhha1FpMHbMJI/zmIu2DO7j+XtdK2w4y2Uenwmfk/zDsQAT2PVFcaKJGzIYH4DM/FUtu3MLHPcv+7WhTYM2kRcnFohlZdsVeu6XlZihhbKp/b52dvJgXsfi8Z0lgLb+JCxHRcHJzR8DRGTjvtRuf9O10b9Hxpz71hrVz2aOBNOpCbHshhG8JNKm4dXEufoz0xNRxX2EIr9CGOgEBIVuw//JxtH94H6a3K/ocNBJ+n6lrdGM/ryVUWICxEgZGehg01RkdBlOlekMo0tIQuXSp8Bou9eVPoQwnTu/HCyEqPDJmMr5xr/xoOLYII2sNUhqbd7Jq7TI/rxxWHMNa1pXGAmr9StqDWArvOa5z59arZzYhRLdQYN3IqgusT5x9Gjdd1mC+330wFYNABaJuj8Ta5PsweeiX6GOcgGvXn8VexQt4Y8CzsCv3xb1rRzM8+40f39J+O14KQddRtrj8eyqGP98OHR+gb7q1QemWNRpVDMKSr0Nl8QA6WtvCQHkB20++hsKOP+NpN1+Y3XsN1i6w7t83GhLhxV0mIOaXi1pIlATAZW5T+rbCeZnwuPRlcbvU/fj1zSUnKg1XVv4tXu771iOw9q7Yn51VsMb/9BOyT53iI9VjYavbwoUw8fDgI7qBhdVsIZYCHmDf65MdHy9W+xq7uYlBd10OJawNFoZ7ffIJ8oQPLVb5wc4Vwu/Bqr3NeXjNQmyjNrKIWuiiRbAbNarClx0Bzz4Lz3ffhUWPHnwEUGZkIGjOHPh8+mml1S9NgR0qzqqpWY9qFqSyauqOHTvWq2c0C3CL23ywc9b7mvWfLq6ittfB55xNwIqD6OJTcTjN/n0sdC8dRpcOpU1Nq16ouTbWJSQgU/hvLBYeP11yUnhsvo2NxVd+fvAt9xikC/+e4Px8hArvO1IVO9xfD/bCzq6/mRk6Cidz2rklrV3uBbzZexC+1p+D7bs/wzjrO/hhzlNYeq4fNtz9F3O9ePgjD8SGNz7CSdu5+PrjkXBi8z3pObzeZwi+kT2N73Z9i7kDbZB8/FvMe3opTnRehZvHX0fn8sU0WhZYM2whRVaNG3I6q0JwbSjRg3d/K8TfyUV+Vsl15QNrZdZ+/BGixuDeDyDq8Gjsd9iGTwf0uBf2sxZ4tu5lHwy2iOPOhcX7gLkIvzoNXwa2w+SxyzHIyhISYc5akLoRv4TYY+x9vXB1/yM43fFvfNrTB+ydSV/47874sWPR3UmlspMUwnObibDzOWUq6dlRnmw/0/9+a5haVQw4Sd2k7tuHjH/+4VuMBmnRpzH1qjDvkifD8oGnqwys2aLrrOVc6cXdWR9scdFGTiGNwtoLt3EyzwDdOg3E2z4WkAhzn/L0hc94wyoKG6yHDoXLjBl8ixDSWlFg3chkwiTpx2fv8q1SxMB6Eq45fIIXOj5UEgTKT+LIzU/wX64pbA1ykKM/EI/2+RiDLCrWP/gOssIT7+tOj+Drf6Yh4EimMIGwRtDJLEz73p9fQ1rS5jlByEpUiJc1sr34/vQ3cOq2E+Nc2kM/62t8c/Uyuvf4FqOdXGF8r8JaieTQCfgmZRreG/I0qloOcOH+bjCSlPumpRVgb3vh+6/h7vaz8H60B7rMHCq26qgOC3PZZC/31i3IIyLEHmwiPT2xGtmsc2fYjRkDsw6tq5qGVf2yvncsvM48cgS516/zaxoHq0R3ePxxvlVEmZ4uBte5LMAWTqz621jYiRYDbOFk0a2buN0asS9HWFWKx2uv8RGIi20GTJyIztu3w8jBgY8CCevWiV8u+CxfzkeaBus1Fh4eLgbV8fHx8PPzE4NqNzc3fovaYYslsvsXh9SpqaliKF1cRc1+HlskUJux947qQmmV8L7AQunKWnewU0ND6eoECa+Td4Xn6deuXWGiI21BQoTf+R3hd36zfXsMaYNHVRBSG7m3fsCsJ1/FnggeyFr2w6s7DuCrJ4T3zKIRQHoCs31HYIvbGkRcXljUt1kgD9mJ155biHVXS9ovtHtwCTbsXIaxrhXfb7UxsC7GKp7j7uSJ7RrZ4oqmlgZw724OYzODCv2uK1ZYn8euvxfgP6kB9I2HYOqjX+F+q5KA7pkvfGBuV/GL163PB6OQdQLJ+wNf7XoHQcWZqt1SfDF+Guzlx7Dtr1dwJrcQ+ubjMHfscgywLHpcTSwMdKowqSWplBrkpaugLNCIlfKWDkZ0JG8jivv+e+TdvMm32LwyGov/vAhJv95QXbqAjP7j8K2fDcyqeMjd33gD5p06iZdZsUTEu++yyaG4zQr2Lpzag0WynljhnYr3z+Vh0cgBeNSw+AskDRISArEsNAVpRg6YPWI4nrSp+N7DeL7/vnhkJyGk9aLAuglsmBlYqn9ZbaggywtDqsYOzpZOVR6qN2S6MwZM1v5FF4vJpCqsnxKIiSt8cODDSIx9xxPe/VrvQle64s9PosTKhCIyJEUuwsawYBiYmCBfbghvnw/xmGdvOBmWrkQrCqy/TZuHpYPGVRpY27gaY/amoslJayJLk+Laqn8hjctE3zfGwLFX3SdGLMRVs0PVhbdPtnBI+Z5srRULTkNeeEFcNKUxGDk6wv+nn2BQQ4jHDikUK7B5iC2PjBQrrln1dXEVtq5VtFcl88QJpPz2GzoKj0ux/NBQhL/9Nrrt2ydWmDJidfXs2fBZseLeTkRjY4v93RYeb9b2g4XNPXr0EE+sZ3JtsSCXhdPsFBcXBwMDg3uLJbJKam1cLJFNi6TC33f5MJqdWPsOFkqz4JkF0JUF0y3ZumRWYCBmurpimPB7aLs04X30VeG1/Zjwt/yss+7MhQhpEZo8xAcGIEZmDb/uHeFYp2mHCtlRdxGUWABLz67o1M4MVX2lpc2BdXVuHkzHtQM1zU2E/TN5LvSNbVC6FsPOQ4InPqi8gOjQN7FIuJvPt6oi/NwCOYwlFmJldTGfAZYYNrcd3yKk5cR+8w3y75YU4MnSrmHOkUDEaNTIkimgsfTHpicfwKAqiqzdXn5ZXCSRyTh8GKm7d4uXS9Owqu3I4xh/RoNPhvfA/cU/S5WJL4+fx12//ngi7Sq+MR2Gow95FfV/L8f6/vvhMn063yKEtEYUWDeBf1fF4u6xioe1NNSkL33h1rWyt2vt9deKaJhZG4rVDPEBeZi00pdfQ1rKpd9TcGZr2dW2NeoUpOQkQCXxhYuZZUkFTh2wxU0efad1fcsddzIYN384Cqc+nuj50sMwtqS+p3UlvXYNke+9x7caxnX+fNiNHAkD87q9D7IFXPICAu4F2LLQUPEQQ9YWo7gKm/Xf1sUFXFglf/Dcuegq7AwY8L7FbMHLlF274L92rbjNxP/4o9g6hS222NiSk5Nx/fp1BAcHw8nJSexN7e/vL4bNNWG9mIsXS2QnFvy6urreC6hZGKINzwub+uTk5FQZSrOAnvWNLh9IF2+zftPaaIvwmogTnoP3hcdbm8k1GrwVHg53iQTvUDUVIVpDVwNrdkTs74vDoeEHv9XF4GnOVbY5jLmRi2M/xPOtuhn7jgec/apff4CQ5sCO3su9epVvlaJMwWd7jyB1aDUtQQQeb7997wjSlD17kHnokHi5hAapsRcx91gk2vcejhUuBvf6w6OwAKdvnsWyXAu0l+fAvvdIrOriVOm+qZ4wJ/D76ivo07oUhLRaFFg3gYSgPPz2ejjfahwOXiaY9kMHnQtUoq9JxRW7p67tgK1zgzHxMx+066JboXtrw/q/bZodxLcaD+vn5zOgfguoaRtlXgFu/nAMSZci0POlh+AxojO/htRH6t69SNy0iW/Vj5GzMzR5eVALH1hsEZbSizwWn9d2wspaaOQFBt7rgZ0fFCTeVwyweRW2qa+vzizmEjB5MtovXgzLXr3E7eRffxUXuPHiXxSwxXPYApi+X34JM//Gac3EAtrQ0FAxqGaLH7K+1Kzth3MNla9sCsEC7uKAOjExUayaLu5DzaqpJS10BAJrZVI6lC4dTLNQml3PqsVLB9LFJxZM16cvd0sLl8mwKCwMv3XpAjMtfb2z18xnMTFIVSiwUvi7NNaR9iWEtAW6GlgzpzYlIvxC8RGHtcPadrAjR6tqf1eoKcSepZHITavLkbaAXXuJTrV9JK0bK3xI3rmTb9WNvpmZON/U51/Us32AjH//FS8Xy025imkHA9Fu4Fgss1PBHIUlRxuopdh87iwOmLdH37wYXHEahr0PeFXZjtJr2TJI2tGRCYS0VhRYNwH2EP3+doRYUdxYxrzpgS4P2vIt3cEei42zgnD/LFck3M1DTrIC4z/y5teSlnLgo0hEXJLyrYazcjbC7I2doG+gexWq5aXdjsXVr/6FmbM1+r45BmZOrSOEb2lpf/yBhPXr2ZsCH6k925Ej4bFokXiZtRcpvcijeC5sFxYUiH2qJcUBNg+0Je7u0K8hSGQtW1hoLbYRYSF2YKC4cCTrM168iKOpv3+NP6clqKRSRCxdKgbuhtbWKGQ9xIXHxcjJCc5TpoghPKuuZo+b90cf8XvVH5sw3Lp1SzzpC49Rz549xbYf1fVaZvcpvVgia5Hh4eFxrxc1C3ubCwudWfhcPpBmJxZWF4fSlbXuYCddDKVrMj84GM84OuJhOzs+ol12JCXhsPA8rfbzg10rfPwJ0WW6HFgrZGr8/UUMMuOL1nWpiYGRHka95g4X/+qroNOi5fjnyxioCmo335FY6OPRdzxh7aKdR+KQtocVdrDWcvVZON3moYfgPHky3wIyjh5F6q5dfEtQmIc//t6FdxKLe1pbY/FDQ/Fc8QJfigTMOhyAbkNHYFLmaTwW449/JvaBZxXfVXsKc2A23yeEtE4UWDeRzPgC7HgpBCpFwx8u1vd5/DLdPFydObczSeznxiZ5m+cGY+qaDmLFOGk5GbFy7Hg5FGpl4/w5t4bqao1SjcAdZxH+x3V0mjoIHSb0pwVcGtmlj+dDciEOtX1U2ergxq6uYiuLDt99V2UFBftYUiYnFwXYxSG2cM4WXyzUaMT7sQBbUlyVzS4LY1VVUBeq1WLbEHERRxZiBwSIi2aadex4bxFHFma3ZC9y1gokdfduZP73HwoVVe9sG9rZQZWVBZ+VK2HRpQsfrTu2+CFbRJFVVbcTHjtWTe3r6yuG1uWxQJrdvjigTktLg6Oj470qarZYYm3ahdQXq/4uDqVLB9LFoTR7vbCq7srad1hbW2v9Qo6NbWdSEoLz8/GJjw8f0R4nhefsW+Hv+EvhtebHW94QQrSHLgfWjDxXjWPfxyElvGQBxspIzPUxYoEbXDvW7n0oJVwm/Nx48edXx8zWECNfcYOdO+0XEe3CjtbLEuaYdSLMCb2XLSuz0Dmbg4YvXswmZ3ykLLbGCiu2uKdQjuO3zuGN2ALoF+ph0JDx+K6zNar6Osf7009hTOtaENJqUWDdhAKPZ+KfL2P5Vv35DbLC4zp8mBirqt40JwhzNnUSw2u2UvfYt6kHZUtjfaxZP+uGat/LQmz1ostyYtJxdeXfYmjd9+2xsPF14teQxhITcAypy76By6MTYNWtB9L//lsMg8XFKEsx4L2l7R99VKwSDn3pJVj07i1WCPt9802dqpxZ8MyC3YLiamx+KoiPFyuoWfX1vQCbhdnCiU2yy385yEJvtnDjvQBbOGny82HaocO9CmyzLl3u9ZBuSuwjOEN47BI2bhSrymtL4uYGjzfegFkdFlxkwXNQUJDY9oMFv12EfyPrT+3g4MBvUSJD2OEobvPBFktklcgsoC4Oqc3r2He8Jux3q6pSmvXBZqyE11L5QJqds1C6KQNzXRMrl2NBSAh+EZ5fKy0K60OEv7F3wsPxhocHhgrPGyFE++h6YM2wNh6xt/IQdCIT8WzBxFJ7uuwIwk7DbeA32BoSs7p9bsilKoScyUbwqSzkppVtll38czsIP5et80OItmFV1jFffomCmBg+UjOnZ5+F7YMP8q0SVfbEFrBWf2ytmbIKoVAUINfMGi72VX/+s8XYvZcvb7GiPrZ/wPYpWMtCPWHeayTMj9nRjoSQxkOBdRNjiy+yFaMLi496qQMbN2N497XE9T/TxVDwqU+8dbblwp6lEWjX2UxcpIRVns/a0IkOfWtByaH52PtehPAcSITLdT/cq5hzB1OkRsrw0Evu6D5aOw8nrw57O4v48zoCtpyB15ju6Dr7fhgYt63qyuagkOfiwoczYBtriK5bd9zra8cef2VKClSZmcKnix4MbWzEkLr0xDNp505knT4NfUNDsarZ/eWX+TX1x1qAFMTFFYXXLMTmgbYiKUlcwEXsi80DbLGtCAuyS4W07Pdm1dusfUhxiM0qSEx9fIoWcWR9sIWToaUlv0fjYP/dhHXrkP7nn3ykbvSEx9Dz/fdh1b8/H6kcq0K+efMmbgv/NtZPmoXUXbt2hUmpHuFytiMj7MQUt/rIEybrrPK6OKBmiy82dAdCKTxPpUPp0sE0C6XZz2fhc+lQujiYZmE1hdK192JICMbZ2+MR4aQN0oXn/tXQUIwVfp/nqHKKEK3VGgLr0vIylMjLVEGtKoSJuQFs3Rt+JBX77E6NkIsLPbJDzMxsDOHoXXUbLUK0BQuT477/HvLwGtbm0teH09NPw/bhh/lAWbLISMSsXMmqDfhICVZcwopSKhDmeEbCHKC69WQcJ06E3ejRfKv5sHZ82cK+SdapU1Clp/NRgfA4sP0A2xEjxOIbQkjDUWDdDJJC8vHvqlhkxNa+Gq7HWDs8MMcVxqYGuP5nGo7/lABHHxM8+7UfDI11b8Gh4JNZOLU5EXO3dMKfy6NhbmuIh19259eS5hRzQ4o/PolG/wmOGPCsE/4nPB9h5+q26AzT+wkH8TXKVkT/67No3PeM8PMm606wIEvPxbWvD0EanYY+r4+GUx/qf9ZUbvz1NbDpOLwWvQWbBx7go7WjUSgQsmABrIYMQcbBg3BbuBC2w4fzaxsXqyYR+2OzEJufWHW2UpiM6pubFwXY5XpkF1dSFCQkFFVf8xCbBfHs+uLwmk1gjWwb1qs5cetWpP7+O9+qHxZas2oUVhVeHgugWTV1RESEGDyzoNrb21sMhtlHP1sgsTigTkpKEkPh4j7UrCe1Mf8ioi5YKF1ZIM1ObHLCWo6w/05l7TvYeGUtSUjd7RJer9eFHbAVvr58pOUUaDR4W9g5dhVeT4uF1yEhRHu1tsCaEFIWa4mXc/kysk6cgFyYH5bGijysBgyAzYgRMHGvfr8+5+JFJG7eLEy2K1bxsaIPTbmjBlkRS3Wt99h/23fFChhYVLUcY9PIvXkTCRs21HiUIzvy0k3Yf6ntgvCEkMpRYN1M1EqNeFgYC5+TgiuvaDU01kPHYTbo/bgDnHzLfvPODlP7+8tYWDkZiT2gTSx1qwpUJfz7108JxNjF7SExN8Dvb4dj7tZOMLelBZSaU8iZLPz7VSyGzWuHno/aIz1Gjp9fCcWIBe0QfkGKiIs1B9ftuphhyAwXeHQvmSAkBudj/4eR6DzcBsOfb9fgysqmFn8mBDfWHIVjTw/0euVhGFtSpUtTyUgIwt2P34SjiQ86fruGj9aN9MoVRC1fDte5c5G0aRP81qypcWLcmNihivdCbFaNzUJt4VydnS22MCkdYBcH2ur8/HsBNjuxQwaN3dzE/tdiFbZwMnZ05P+FmrEQPOKdd/hW5TRKKa7kGMDf1gw21eS4rIrdf+1asYUJC4zv3r0rBtVsMsAqqVlQzQJhVsVc3IeandiChKUXS2TBcW0oFIpKA2l2YpXZrBK6fKV0cUDNek1TKN30koTnaG5QELZ37tyiCxuyKeYK4e+L/T4rfX0hoeeeEK1GgTUhbQc7OlGRnCweqcjmkKw1nkE1i26Xl3vjhnjkJJs/l8Zaa7Be1mKfa2FOyIpBqm0BKMwN2j3/PCz79OEDzYOF1fHC/Lmy0L0yJsI8hrXj08ZF2wnRFRRYtwBZjgrJYTJkJRRAoyoUe5exgNq+vQQGRlXvnEVdzcH+D6NgYmGAqd/7w9JBt978/vsxHvnZKjy22BO73w0XV9m+f5Yrv5Y0tZsH03FyQwLGvOkB/6E24uGOv74eBtdOZnjoRTfxNtlJCoSczkJSiAxpUXIo5RpxVXQ7D4nY/sNvkHWFL1OKZcTJsXdppNj6ZcwbHtW+lluKMl+BWz/+h8Rzoeix4EG0f5gO12pKGo0ap9c+D9tDSfD75luY+fnxa+ouevlycULLDg9kQbDYz7qayovmoBIm3MXtREqfWC879nuWXuRRXPxQuL0sOFgMsNn9WHDMguviELvKRSWFf3eIMDFnoXeV1LnYe/08Vsg8sWmwP3rU0A3D8rHHENW5MwICAmBhYSEuothB2PFISUm514ua9aVmrT1YOM0qrlnLj6rabBQUFJQJoksH0/n5+eL9SgfS5UNpbf+Sqy1gLTgeEp6TxyvpUd5cfhZ2hP9JT8dq4bVoTzt4hGg9CqwJIXXBWoBIr11D1smTYls+dnSjuMi6m5u4gDprt1HdjJD1inadPRuWwvtOc2K/V8S779Zp/RjG5qGH4Dx5Mt8ihNQVBdY6hlWysupkfUM9PPeNL+zb605laEqEDL++Fob5P3dGSqhMbEUxb3tnseKaNK3zvyTjyt5UPPG+J9r3Kuqre2ZbEkLPZGPqdx1gZNI44bI0TYl970fA3M4Ij7/nKba00RbpAfG4+tU/MLG3QN83H4G5Cy2K0dRCr+xF1g874Nz9frR//Q0+Wj+sv13w/PnweOstpPz2G0y8veHx2mv8Wu3Cftfy1djsvFChEFcyZwG2kaurGNKKoTe7TUSEePhj8SKO7FzSvr14G1ZhHvnBB/ynV5SfFYY3r4fhYoHw8Wzpjy0DfWsMrJWGhoifPh3eHTuKFdAsoGaLJbKe1cV9qNm5WamFJFnf6qpCaZlMBkPhZ5YPpdmJBdMsFKdQWrvtS03FWeH1uKoBXyw1xGnhdfR1bCy+8PWFfzMsYEoIaTgKrAkhjYVVbksvXkQmC7OFeWlprPWH9dChsBk2TFzcsLml//MP0vbtK9rQyHD64nH8ajkI33azBWuIp5BGYe2F2ziZZ4BunQZicSc7sOXGWRjvu3IltQYhpJ4osNZB6bFy/PJaGNTKQkz83BvuXZu3d1ND7HwlFF0eskWfJxzEyx2GWGPAJCd+LWls7M+V9T9nPcTZop3OHYpCgITAPOx+JwKTvvIVK90bkzxXjQMfRYqvzyc/9oaZdcu2r9Go1AjceR7h+6+i47MD4f/MfdDTp+CsqeXnpODsl3PhckcfnTZvaXD/ZiZ1716kHzwIr2XLEPb663B7/vkqF3jRNuxvkS3qyFZbL12VzRZvZBXUxsJOPwuswUNsRWIi9M3MxOprdvhl+b6BJTRIiL2ONxPNMc8mCe+memB9LQJrJrRvX8Ta28PNze1eQM2C5eKFDsu372CBtZGRUbWhNNFdacKO4szAQGzu1AlO9ehH3hCh+fli3+pFHh54QHg9EUJ0g64G1uwoQ4VMLS5mb2yqT1+oEqJlxPYjbDFGlQr6wvzS1Ne3xVprsDl8xJIlUIm/TwZ+PX0Mn4Vnw6n7E/hrgCNMocCFU3uwSNYTK7xT8f65PLz5zFg8blb0vuI0ZUqTrb9DSGtHgbWOyklRiIFvQa4aj73rKQa/uoC1pWCn6Wv9xZ7ex36Iw7xtnXVyIUltxybj/34Vg8SgfExY7gNbt6L2CazNx/YXQ8QvDgZNaZpFElUKDQ6uiBF7ZE/41AfWLs0bfhSTxmbg6pd/QyVXot9bY2HTQXcWhdR1F/Z9BJM9t9Fu/CQ4PfMMH20Ydhhh6MKFsBo0SJy4xnz5JTqsXi32jdZV7N/EFmwUw+viqmx2WRhj4bWhpaUYYAuzZX6PqmgQFXoKk1NqH1jL+/SBfNQosVd1cSjNWnuwxRMrC6TZubk5qxchrdVb4eEYILzmJjo13xfJ6UolXgsNxWg7O0x1ceGjhBBdoEuBNduFjb+Th6ATWYgTzgt5G1qJuT58B1mL67BYObfMfJUQor1YeB61bBnfSMK24FwYJ5zHJtsx+J8YWBfRCP+XFnkc488Cnz/9EIbxzoWs7Z/7K68UbRBC6qSugTWlilrCyskYM3/qCAt7I/zvs2jcPJjGr9FunYTJIOvdnRyajw6DrWBiYYg7hzP4taSxsFD6wIeRSIuWY/Iqv3thNXNifQJMrQ0wYHLTBRLsC4hxSz3h3s0cv70RJraDaW4R/7uBE6/shG1HV4z4biqF1c0oIewc5OeuQ2JsAYcnn+SjDadnYAC3l15C6p49YkhtP2aM2Nua9b/TVezfZOLhAZuhQ+E8ZQo8ly5Fx/Xr0W3/fnRYs0asyqg5rK4fdWysGFazIJottPik8Fy98MILePnllzF16lQ89thjGCr8Xt26dROrsCmsbv0esLbGKfYFSTMp0GjwcVQUugivrSnO9B5NCGka2ckKcR2gI2viEXurJKxmCvI0uHs0E3vfjxTb5WnUVJtFCCnBFlK/R+KCGT084FIhFdMgPfYi5p1MRr8B92FQqWV22OLthJDmQYG1FjGzMRQrle3cJTi2NgFntyfxa7QX61ftN9gatw9liG0Z+j/tiCt7Umly2IjYop67F4dDWaDBpJW+4pcaxSIu5SDweCYeebO9eBhkU2I/f9RrHug6yk7sux57O5df07TkGXk498E+BP92AfctGYeeLz0EAwkt3tVcVAoZ7vy7FnYR+mg3b36jH75n3rUrbIYPR/yPP8J1zhyxbUbcDz/wa1sP9riZenvDsndvPtL47ExN8eijj2LIkCHoKjyubFHF0j2rSdtzv40NImQyJNRxUaH6+iY2Vjx/3cODDsknhDQJtqD43ytikJ2o4CNVEHZF2Noux36Ip/2SShQWahAjvYETCRvwb+wqHIr9BqcTtyAhL4jfgpDWSc+w5vaWuSnXMf9oONwHjMHHXqYofaAjWyiSENI8KLDWMiwAnrK6g9iH+NLvKTj8bax4yJs26zbaTjwcjwWqnR+0FSaFQNDJLH4taQhpqgK/vRkOU2tDsQ2IiWXJB6wsWyW8PuLwwBzXMhXXTW3oDBcMme6C/e9HIvRs01buJZwLw38vboOBkQEeXDsDzv29+TWkuQSe2wmbMDXMO/jDesgQPtq42OrgstBQZJ89C8/Fi8UFWjIOHeLXth7yzDxkR6byrZrp6Rd9RNvWMvcrpICQlGMj7JT1sLDAyaym/0z+JTkZd/Ly8IGXFyT8tUsIIY2Jtcc7siZOXF+ltuJu5+HaAd04crW5BGQexe6Id3Es4QdESi8hMT8ICfl3EZZzDofiVmFf5AeIyLnIb01I6yIu8ljdPKUwD8cu30SgWo5jZ/dh4LY/8Yu05DAOY0dHfokQ0tSoh7WWUis1OLAsCjE3c+HV1xKPL/WEgZF27gCyl9DmOcEYNNUZXR60xdUDqbjzbwam/+hPFVYNwPpF710aCY+e5hi9yKNCBfWfn0SJvaWf+sSHjzQvtvDjoW9iMWx+O/Qca89HG4dKpsDtdScQdyoY3Z8fDq/R3fk1pDllpYTj/IbX4HYBYm9pU5+me62x1bqTf/5ZbJ+Rd/s2olesgN/XX4tVybpCXaBEXnIO8hOzkZeUhfykHPE8LylbuJwtXK+CkZkh3PMPQY+VflVLg5jwM3g6wQX7hvrDrRZvpSnCBDqwXz+xPzU72dnZ3bvMTqyXNWl7DmVkYH9qKn7q2JGPNL4zWVlYFRuLL3x94U9V/YToLG3vYc2OLDy5IbFoQ5OO2xffwHHL97Cgmx9YzaNSehgHzm9GoNIHQ/q/gxFO1mJ1lpGpvniUopEJfZl2JmkbQrPP8K3q9bIfh94Oj/MtQlqP+B9+QO6NG3yrbtovWaJT+yeENKZslQqnhXl/hFwOuUYjFql4mZiIbQhta3H0AS262Iqww9f++SpGPJzNyc8ME5d7w9isFitvtYALvyYj5kYunvnCV+y3vGFGIEYvcofvQN1YPFLbsIUV938YiS4P22LYXNcKwX/AkQyc3JgofilgYddyhyVFX5fiz0+j0W+CIwY91zj9SjOCEnBl5T+Q2Jih31uPwNzVhl9DmhM7VPTUr2/A9nQG7Dr3bfLFRdhHUfjrr8OsUye0e/55JG7ahJwLF+C3Zg0MTIuXP2lZ7HeUp+feC6DzxGBauJxcdLkgMw96BvowdbQUXrfWMHe2hhk7d7ERTsJl4WRsafJ/9s4CToryD+PP3V7sXnd3H3d0d4eohEiD/FFssUUUFAUTA8UCxaBLFBGku7svue6Ove24/7zvznHBdcf75TOfnfeduWV3dnb2nWeeeX600KQsJoZ/1sbDbuZM6I0ahby8vAcmNTe4MDMzKydgk4mI2hYWFtBnjth2i5j77GeFheH7gAB4cgPKxuaeVEqLO77q7o6hVux4zWC0ZVq7YP3fykRkRMsAdRSOnX4FW2PiYNV5Jz7q2xnGyMWVA2OxRfg2Zpptwa/3euGtKe/Clx8mE2NN0NCOfYy6krULt3MP8K3a0d9xDoKshvItBqN9ILl7F8nffMO3ao+xpye8li7lWwxGxyFPpcKOrCxcF4tR2T1O5EyyK3euOc3BAXbVCNdMsG6HHP0xBbf358DSyRjTVvrA1LrlBMqqEGcrse5/EZj/SyCsnI1xfksG4q+IMfNrP34NRm2JvyrGvx8noO9MB/SZ+mAhRVJoZuMLURjzmhsCBrX8wJsU3PzrvTgEDLbCiOddaJZ5fdBqtIjccgHRf15GwPQ+CJzel4p/jJYh7uY+xO/eAPtbagT99hsMLJv+4hMRce+99hr8uAGkkBsQxrz9Nr3tzoN7bC6Iu1+SRlzRhTpRusQhncZNmYXQqjQwshDChBehiTBt4khEaZ04bWJnXuV+q+Z+4PNPnEDmtm1Q5+XxvY0HcaQTwb8i5GeeFGMsEa9zc3PvzxcWFlKxmhRqLBGwy4rZolZysYDRMJbFxcGX+yyfcHLiexqHXG7w+kp0NMZw+8rcRn5uBoPR/LRmwVpaoMb2N/mLvYprOByZDEHqxzhovQ7LiWCtTcWJPeNxzG8PFtv9jHf33cWEaX9ihLnO7OMcZIJxb7jT+Y6IVJ2PnTGLoYUS2UeuY9uvScgxtsOwd/phaKAhVMlx2P3JbYRLrDDwjb4Y3sWYChDG+maY5rsSBvqt7/yTwWgISdz5hvTuXb5VCwQCuC1cSOvvMBgdiTSFAquSk5GnVvM9VWPJfU+IicXNuPLIWiZYt1PObU7Hxa2ZMLE0wPQvfako3Nr46/04OPiKaMaxXKzGL/MiMOlDL7h3NuPXYNRExIk8mks94gVXhI6x4XtLKdYWY8fiWFjYG+Khtzz43pYnL0WBXUtj4ehngocWucOgjvE1RSl5uPLFfqiK5NRVbR3ozC9htARySR6O/LoAXldFcJwwGfZTpvBLmp6UNWsgi4qC71dfQZWTg+iXXoLT3Lmwffhhfo2GUazRQpot5mM7St3ROtd0PpSFcugbCGDiaMG7o3UOaeKOLhGnDU1qH61RrNGg8PJl5B05AvGlS1SIN+/bF5lbt3AL+ZUaAZGfH/y+/bbOMUzEeV0iXpediKit4AYnQqHwvoBdVsgmArdBLYrWMFoHx7jPlGRMr6vkgkZ9UWq1WBQTA3sjI7zr4cEiwBiMdkBrEKwLM5S0Fk5quBRKqQYGRnrUtOMcLKLnQtzpq25FFODGobHYavmLTrAG93sW9z6+OH0KGuNiZIltMWPaXxhjofutsnI1wuQPOu5t/Nez9+BGzr/coDsVv40/hsKnh6DX7TPYlN4Hn//hiuhnd2KLVV/MdAvDr/844a29/eHLJzwNcvof/C2bpo5Jc6HWqhArvoio/NMoUKZDU6yCscAUrqahCLIaBjuhJ78mo6OglcuRzI2dZffu8T3VIBDAad48WPbvz3cwGB0DcqfmJwkJyK6FWF2CNXeO+C53zktq6VSECdbtmOt7snHi51Sawzb1Ux8qDrYmos4U4MTaFCz4I5jmLZ/4JRU5CXJM+ahlMpbbGuTzPf17GsYv8oBf/8rdrJf/zMSNf3PwxI8BtEBna0KSq6JOa6G5ABPe94JxLeNr4v67iTu/nIT7iE4IfXooDITMwdHSXN73OXAlFuaJagSsWQP9ZqyGrZFKEfn003AkIvW4cRBfuYL4jz6C31dfQeTry69VPUqxnHdH6xzSJeI0mWRZYipaG1ublnNH03kqTltCaGvWYPGNuMWJSJ13/Dj0uEGu1fDhsBk1Ckoz4PaJX6B38BbMUmpfNKomPN97r9EH0VLusygrYJfM5+fnQ6vV0iiREgG7rJhNokeYeNm6kGo0mBkWhi+575B/I2VMf56YiGSFAl9wzylkkTIMRrugJQVrab4aZ9anI+WupNILuqS+D3FZkwLkhsbkmFNRsFYiN2UP7qAfuhZ/h2XHZXhy2mp04T0+1m7GmLTMS9fogGyPeYu6rHVwG1gjw5U3/sJGDMEnX9ng8rSdODZhChaH3MS7T2RjwuGJGOGqO7Y7CH3xsOdiOt8Wicg/iatZf0GplfI9D0Le4xCXBTA3tON7GB0BrUqF7L/+ooXftTIZ31seYy8v2E+eDNNOnfgeBqPjsDsrC/u480CCNuc0Lr6xFeZLv0GonxEgvoQLr3yNTP7QKvCZhSHLJ4D7mcYY7rxwqsODaQFMsK4Gkq2cFSuDhBsQkd9pEysD6ghuSwU4wo7l4eDXSVQQnvSBFzy7m/NLWh5SuXvtnDB6u51PbwuIs1X47ckIzPjat9WJ660NMkC/8W82HUi7VeFIz4qTYcur9/DYCm+4d2mdrnWFVIN/PoyHQqKhr7O6+BpFvhTXvzmE3Mg09Hh1LJz6sgsbrYHMhGu4vHM5PM8L4P7WW7DkflSam/yTJ5Hy448I/OUXGFhYIH39etrn//33EJiYQKvWQJpBChoSV3SJO5p7TMun/SqJAgJjg/sCtM4hbaF7JK5pRwtueeOL8Coi5h4/ToVqRUoKLPr3h/XIkTDv0QNKRRHCz21Awp3D8AwdAw+/EUh8YzH0ZbW/Wl0VVsOGwWPRIr7V9BCxmkSJlBWxS0RtiURCndclAnZZIZs8Gldxexij6fkoPh7O3PZ/yrnhd7BszcjA3pwcfOvvX21OHYPBaFu0lGBNogX3r0yCJK/q30StthjiLBWdF1kIYCQqqiBYa5Af9zZWHD8CqZ4JfHv9joWdA7l+HW6dTTH6ZTe+1bFQaeXYFL2Qb3FopLj1+QH8dMACc7YMx0A3PeQdPIMvliZBY8mdcyQLMePQZIzx0J0jCwVmmOm3is63NW5k/4vrOXv4VvWIBJZ4yONNWBqxiKuOBnFbF168iKJbt6DhxrJ63NiGxBJaDh7MCiwyOiya4mK8HRODAo0G6qitOP3KJ4iJc0DnnXvRt7MIUCYhYfcpSOS5SF3zA3Imbsbkt3uC3Itspq+Plb6+MKxgamGCdQVUCi0iT+bj1v4cpEfJHrxir8cNzvxF6DLeFoFDrfgr9q2bmAsFNOOY8NCbHvR1txaIA1ycpcSjS3QOhkPfJkMp0eCRd9ltVpVBIj6OfJ+CmIuFVOB18Kk8L1at0mLLK/fg0d0Mw5524XtbJ+S17l+ZiMwYOaZ87F1pfE36xVhc++YgbAKd0f3VMbTAIqPl0aiVOLbhebjEW0CkFsHnk0/4Jc1P1FtLoDGxhdmwhyBJzUfGvqPcCRd3OmpsBVm2mK4jsjXTZUnz0R0lAjV5FFqb0nWaGuLMIMUhaeTH1aswCQiA9ahRsBoyBAIzM26bqhBzfTeiLm6DtXMQOg99mvuOyHFpz0ew0ThAuC+iUidZbRFx/5/Pxx9DYNo877cmlEplOQG7rKCt4raViYnJAyI2mUjECCv82LSQit6/pqXh96CgBjngzxYU4MvERHzGDUIDG8mtzWAwWgctIViTc7V/P4pHQbpOjK4OSb4KaoXuR9PU2gAGRg/+bmiU2SiCBSyNysd3DX3GmRpqOiJyTRG23nuNbykR8+0+fLHdDDN+H4z+XkYwNi5G7rl7uAMXdNVcxbK31Hjy0Ch04TeXgZ4x5gZ8r2u0IWILL+Fk2i98q3aYG9pjotcyGOqzC+wMBqNjc00sxk+pqXRecW09IpONkPrxr7Be969OsOZRnH4TO5fZYPTed+FY5tRggbMz+lqU/91lgnUZSPG6Q98koSindg42UxsDjHnFDd5tYDCTeLMIfy+LQ7GmGEMWuKDHxNZx+1J2ghybXorCM5s60bxtkm28/rlIzFsTCGtX9sNfltoIuyWcXJdKi1jO/s6/zvnQLQER4o/+kILocwVUiC9x2KvlKhr/kXQsDJ2fGQavh7rQfkbrIPzsRmRePQmbI5nwX70aQq+mu3VWo1SXie0o4GM7+AKH3KRRqKEPNUxdrGHm5QiRlTHEx/bBYWR/OE8aBxMHC+gbtlwsjiQigorUBadOQV8kgvWIEdRNbexW6t5KiTqDu6d/g76+AUKHPg0nn95IuHMIN4/9CL+QR4ANp2Di6wdJWBg0hYX8X9UBfX36OYl82sbdCWRwUpkrm7i1CZaWlg/Ei5BH01Yixrd1FFotjQX5yNsbneq5TWNkMrx57x5e4fbzYdxnw2Aw2hctIViTvOrzmzJ0DW0Obl98A8fNl+L5UD/Q+zc0Sbhy9XMcShXD3nsRJjj5Q8h1GxjqcedutbvDQ2QpwLTPfekdqh0RbbEG66Oe5+aKoc2IxpejTiKi5PpAUH98/mcwDI+exIo34yHVM4Tva+OxcL7NfXe6qYE1LbzY1vg7bhnylTqxhdsKyDl0GRvWJEPs7IXJy7qjs0Pl51QDHZ9AgNVgvsVgMBgdk/05OfgrO5tvcRQcx6GxH8PylzKCtSYF4TMfReSkPZgwy40W6y3hUVtbTLArr1MywZqDvKWz69NxaUcW31M3ej9uj0HznVp9Bmd6lBR/vhtLM916TLLH4Pmto1DdlteiETjYCj0fs6ftvZ8mwMhEQC8GMHSQIjL/rIiHXKzBY8u9qx1wJ90uwl9L4zDzaz8aYdOWOLcpHVf/zsbE9zxhbiLBlS/+g6GpkBZWNHNlYkdrQpybhOMbX0JgvAfM/ILg+uKL/JL6QY7D8pyi0riOMo+kyKEiTwI9fT2IHEhUx4MOaeKazv1rB709z/+772gOtPjGDcQvWwbfL76gTubmRpmVhbyjR5HPTUrux9ty0CDYjBwJ065dy/1e5HMng7dP/IzCnEQE958Nr666gpF3uL7EsCPoOuBZFK3eAjPu79xefRWaggIkf/89Cs+do+vVhJ6BAc34liclQX7vHvy+/hr6QnL63jbRaDQ0F7usiF0yL5PJYGRk9ICIXTIZsjiKOkFypy2479Lzrq58T+3JVanwCre/jea2+xNO7HZpBqM90hKC9e4P45GXrADUUTh2+hVsjYmDVeed+IgvpJgZNhcf3AnGvL4OuBwhweBuL8OLvzXJzNYAAoOajRx9pjsgZFTHHnceTFqFVGkY36ocTZEURcXGsDQvbwgIsByCgU5z+VbbIE0agQNJX/EtDkUu9i44gZTx3eG0/RhODZyIz96y010UqYCNsTsmer3PtxgMBqNjsoc73/03J4dvcVQiWBdn/Il/Rv4Gv/3/ItS9/G/HOO68bYq9ThMsgQnWHKd/S8PlP+snVpfQ8zE7DF3QuqMXCMTRvHNxDM3n9h9kibGvure4e4DEr1z/J5u6qgmZMTJsfe0envwtCOZ2TFwgRWVIcUIjkT4mLvOqtngiyYTe8EIUuo63RZ9pD4bWtwVu/JuFGz+fhTUSEDCtNwJn9eP20dbvEu9onNnxNkxzDGB4LApBv/5Ks6NrQi1T3hegdWJ0PvdIsqV1WdJalQaG5kKdIE2LGlqVF6btzaFXzb6gVSgQ+dxzsJswgRY7IaRv2kSdzQEkz9qs6bPcSaYdKcRC/s+i27dhGhpKIz8sBw6EQFT+ApKsKAdhZ/5ASuRJeHd9GIH9ZsFIaA6FrACX934KmTgHvYYuRMbH38AkJATur70GvTIxGKRQIykwqc7PRzH33itC3NtWI0bQYpQGVlY0jiRm0SIYOTrCc3HbLYZUHXJu+1fmyiYCNxG6SYHHikI2mScFIVnhxwe5UFCA71JSsDE4GPp12D5KrRaLuP2T5FUv8fRk25bBaKc0t2CdkyjHnhW6mEMoruFwZDIEqR/joPU6PpeaFFYciTXiHggUCWDv+xoe8/OHJk8NraYYxib6tAhjdQSPsEK/mY58q+OSKL6Bo6k/8K26MdFzGWyEbct4dCZ9PaILzvCtEjTI3HseP61Ihc+qCZg9QFjODViWSV7LYG3MzFYMBqPjcoQ779qemcm3OCoRrFVXlmDb8zKMOPY1XCuU15tiZ4dxtrZ8S0eHF6yjzhRg7yf8wIeihVx8BQkaV7hZuMK03K+SEnk5B3FPagg7u2HwFpV3qD282AOBQ1pPPnRVFKQrsePtGMiLNHDtZELzo1uykCRxD6+ZHYapn/rCOUgXBbFraSxsPYWtPn+5qSnIUGLXEt22ePhtj0qz98py4Ksk5KcpMH2lL3WjtjVIEbwrX+xHUXoRkoqC0O/pYHR7lFXfbm0k3j2COyfWwfuKCHYTJ8J+0iTaX6zRQpotLu+QptEdunlloQz6BgKYOFo84I7WzVvB0KR8hmRdKbx0CYmff47AtWthyP3oFWu1iFuyhMZweL3fNO4X8rMo4X5EaeTHmTNUHCZxH2Qi4nBFSCb1vSt/IfryTth7dEPo0KdgZq07ySnIjMXFPcthbuuJrv2fRuLSD6g73P3NN8uJ1QQiQIfNmAGvDz+EkZMTlMnJKFar6XsVenvTgpMVUeXkIPrll2HHfWYOU6fyve0f8hmRKJGyInbJvFgshkAgoLnYFcVsMokqXGjoSKi478+ssDC86OoKA27/S5DLIef6DPX04G5sDH9uH3M1MnpAkCbO7CRu3S/9/CBkWeMMRruluQXrxBtiHP2hJLKBQATqsoUUuXHkf4Pwo+wZvNFPDzuOnMCASVsxxtwQskI1dyarRyMIK8NQpI+u423QeVz5k+WOSnGxFn/GLUGRqszt3bXAUeSP8R7NV9i5sTiU/C1SJBUFEQ1yzkbh4OrLuBk8Css+cMGDIysdY9xehatpCN9iMBiMjkeGUon34uLqXW5pmZcX3CoU3O/QgrVMrMbvT0dCXqjhewC1ZDc2nv8MhV4/YIZ3TziWmFm1Sbhy/UnsLrCBm6kGKQUqdO2+HpPsrVAy7BGaCzD/50CIqhgItSaKclX4c3EsfbRxNcbkj7whqsFx0JQQoVVgqHe/GjeJtdi9LB4L1ge16OtqSbLiZDTaw7u3OUYtdKvRCR99tgAHvk7CEz8EwNKpYaJfSxB/8DZurz0BtyGB6PzsMKRFK/HPh/HoPtEOA59gt5O3FiTZ2Tj+yyJ4FLlDLyYWmv5zIMkUU2FaliWmorWxtcl9AdrUiYjTOqc0EaaFtmZN7raMX7GCRoJ4vvsubavy8hD90kuwnzIF9o89RvsaA0VaGhWpSeyHhvshJYUTiUhtGlL5CQv5+UwOP467Z36HkciCFlQkgnUJyZEncf3gN/DpMRH+nR5F3NuLIfTxgceiRfT9VKTw8mUkf/MNgjdtqtM2ldy9i1hu2xAB37xnT76340KKOxLhmriwS4TskkdSFFIoFD4gZJN5InATobu9Qip9n+K2yc+pqbTad1UQ4ZrkzY3itouxvj62ZWTQ2wG/9fODXYUiZgwGo33R3II1qTd0fE11grUUMecfwRfZL+DjkRbYuOsruD20B4/b6U6AnQJFsPMUIuFGERRFGjq2Jndz+g+0hE8/izZRTL85yZUn4b+klVBp5XxP9ZgYWOFhj3dgZmjD97QdDiV9gxTpXb7FIc3C/o+jYPFMH/ge/hvv/hmIj/d2hXMVp6WjXV+Bm1ko32IwGIyOyaqkJIRJpXyr9viLRFjk4cG3SunQgvWlnZk483s635IiPXE5NkYcRY6mGA6+32G2b//7grU07RmsCtPH6AHfo49Ihehbk7FV9iwW9p2MsglnA59wRN8ZbeM2MiLYE0E0P1UBkZUBpn7iA3P7ljm5TL5DikLG47nNne67vbe+fg9ePc3Rf3bHuy0v5a4Euz+IQ5fxtrXKGpfkqrD+hSi6buexbWuQqCiQ4cbqQ8i5m4Lur4yBc38/fokuHuav9+Pg29cCI190rVa0lxWokR4tQ26SHGplMXfSoQc7LyEc/EwgNGu/olJjo1VrIM0sfMAdXfKokigg0JfDvfgClP6jIAzurBOjnaxgQsRpR0sYCFs2ykeZmYnIZ5+F13vvwbxHD9pH4jnili6Fz+efwzQoiPbVBw33A5x/6hQVqqURETDr3h02o0bBon9/6FcjzuWk3KU51TJxFoIHPgHP0DHQ09Md64iLiUSDxF7/Fz3GvQ5Hxy40usPY3R2e77xTqVhNSP72W1pI0W3hQr6n9uTs24f09evhxz2HsXPrqGfQGpFIJPed2GVd2QUFBfQCBIkSqShmk8ncvMI9bm2MZIUCX3MDzog6DDhdjY1pXvXWjAx86uuLoEoc/gwGo33R3IJ1WqQUB75M4luEioI1oC78C7/89yFuKgQwc1mEN0bMgDP/M0riEAfNYyaIupAli8ORlO8h11Rf7NnC0AGj3V6BhVHbjCQ8lfYbYgrP8y0OjRTXl+3FD7uKUCwwRf/Px2P+w+ao6oxigud7sBU+KLYwGAxGR+J2URFWp6TwrdrzrIsLelVy/tRhBWvyNtbNj4A4ky95rM3AjfBPcEnlC9fCLYh2WoWZ9wVrOeJuj8fvisVY6G+AsJxc2NmPRSC3QSteZDWzNcTT64PaTByDUqbBP8vjkRkjh8AQePxjXyrytQS/PR2BvtMcEDJaJ7jGXCzEwa+TuO0Z3KKRJc1NLPe+936WgIFzne4XoqyJv9+Pg76BHia+78X3tA0yLsfh2jcHYenrgB6vjoXQxpRfUgqJOCEXVsh+Ob5CLArJIyTO8hv/5lCRvyq8eprRaBHiVmdZqoAiX6rLjab50USYJvM6UVqWU0QOkBDZmuniOkqc0s6WUAtycevCKnRBdxSL5fBZsYJ/xtZH5s6dyD14EAE//QR9vtBexrZtyN2/H/7ffw+DOgiKJFak6Pp1XeTH+fM0foPkUluPGAFDm+ovEEkKMnD39G9Ij7kA356TEdBnGgyNSoU8pbwIV/5biaLcRPSduAymxraIXbxYlzO9ZAktmFgZ5DWFzZ4NjzffrLdLOnn1akjCw+G/alWbLsLYEmi57U9E64pCNpmXSqW0uCNxYFd0ZZNHUhSyNXNXIqG385Hoj/rwKPc+n3djOZ4MRkeguQVrMu4jsYaygqrv+qAUKyHjTvGMueNt2TOI0a+4wi206etZtDeUGimiC88hMv8UCpRpfK8OO6EXAq2Gwse8Lwz0227toaSi2ziSsppvlaIpUkApNIaomht+LY2c8Zj3cr7FYDAYHZudmZk4xJ0X1Zbh3DnTrEpiNAkdVrDOS1HQOJAH0CbhxJmpuFFOsM7GrcuTsE1iAxN9S9gZSZBcqEJIl18x1cnhAdH6f2sDYOPedk7+1Sot9n2aiOQ7Eno7/+TlPnANeVA4bGou7chE7KVCzPhS57AluxopIBg61gY9J9VOuG3r3D2SiyPfpdBolE4ja1ed/OZ/OTi3MZ0Wrawql6+1oVGocGfdKSQeuYuQp4bA55HSWITKKCk8SfIFJ/GFJ4mTmkTJpEfJ+LVqxqO7Gca+6tZidxI0Fxql+r4AXdEhTR41chUMREZ8YcMSUVr3SJ3SjhbQNyzvIdFq1Di+6SU4m3eC5o8jVPQVVnLbTmuBZDlHvfQSrAYPhuPs2bo+7pgS99571LHs9cEHNV68kCcm6iI/jh1DsUoFq2HDqFBt4u/Pr1E1KqUUURe3I+babjhzvyUhQ+bDxKL8D7E4JxEX/lkOkbk9+jzyDvTVeoh95x0Y2trCc+nS+0J7ZRDHePyHHyJk27YqRe2aIBnYsW+/TbO+S+JTGA1HoVCUE7BL5smk5vZLU1PTcgJ2yWRpaQn9Fs57Jo7qd2JioGjAUI98q9719MRA7v0wGIz2TXML1oRru7Nwc18u36o95vaGePwTH77FqC+58mTINAXcsV4AEwNLWBm3j7u0yBjxz7h365zZTejjMB0h1qP4FoPBYDB2Z2VhH3ceVBNjuHOgqQ5V35nTYQXr8ON52P9F2VvKeCoVrDNx/dIEbCocgpeGrYS3gRyJYRPxU/YELBz4Ilwq3Bs07g33WouNrQXiWDj0TRJiLhRCrdTi4cWe8OvfvCebJE/7lyfC8b81gbB202XNhR3Lo7EtT/0WCIFh+3ZZX9mVhXOb0vHIu57w6W3B91ZPXqoCG1+MogUZffu1DXEgPzoDV774j8ZG9Fw0HuZutYswIcU5/1mRQKM/+kyzx8FVydCo6n44MjbVx5SPfeAU0HZvVyeHYXmuRCdAp+U/IEqTZeQuD5G9uU6MduYzpMsI00YWdSskF3VpBxLuHIJ3uDVEPj5wff55fknrhcaAvPcedVmXxF6oCwponrXthAmVFh1Ui8XIP3GCCtWy2FhY9O5NRWpz7rE6AbkEEu+RcPsgws9thMjCAZ2HPQNbl0780lLSYi7g6v4v4BEyBqFDF6BYKqO50gILC3gtW1bj/5W6di19LyTfuiGouIFE9MKFtHimw7RpfC+jKSDfWzLgqihkk3lSEJKI1US0rsyVbdIM8RoyjQYvRkcjXanke0oplqVDkiyGtmQIKDCD0MMZRoaVX/Qx4d7LmoAAlmHNYLRzWkKwluSpqIlBrajbGLDfLAcED29b52eM5iUi7wTOZ27mW7VDKLDAFO8VMBKwGCwGg8EoC4kYPMGd61zkzq/L3rlprKeH3tw5L3FWe9Rwl2+HFazL51eXoVLBugj3bj6CdUUv4Z2Bj4PIgoUJk/F1bGfMGrwcARXMbW0px7os5KMlhUzCjuRR1/WI513R5aHmrZRNcpttPYQY/KROXCJC+m9PRXCDTEeEjml7BTxqy6lf03D7YC4mf+AFl061c7eTbbP9zRjYehpjzKvufG/rpVhbjKgdlxC59QL8HuuJoNn9oW9Q4WpPDWi4/XLX0jgk3646/qM2GJnoY9rnvnDwrZto25yoZUoqQJMcaWkGL0bTTOl8rl0IrUoDQ3NhORGazvPiNBGr9QWNc5GHxFocW/8curo/BvHWfxH46691itRoSRK//JIKu2XjS0qKDvp88gktkFis0dAChkSkFl+6BKGnJxWpiaPaoA4u0czEG7hz4mco5WKEDH4SbkHDHnBxk+Ns5MWt9AJAt5EvwSNkFM3FpmK1SASvDz+sNgu7hPD//Q8uCxbActAgvqf+kFgQ4uz2WroU5r168b2M5oQ4r0nRx4piNpnkcjmMjY0fELHJRGJHSPxIY7AuNRV/ZVfmLNNCvmsGTqxI5L4PuovJenYjEPrze3C0rfoY058biL7n1bZiqhgMRt1oCcGaQIqzH/shhRsL8x014DfAolY1YRiM8xmbEZF/gm9Vj6G+EOPc36CxKAwGg8GoHCJWpygU9FGorw9n7lzXpJaF6zusYH1xeybOrq9CsD47DTccv8Yc3/6w47djUcoCfB0uwKj+P2CAaS6uXpqIv4sX4c3ek2FV4XxtwBxHKrC2VUi8xJW/skA+aZIp3Zzv5d75Ahz5PgXPbAi+X2Dvxt5sXP8nh0attJVs8NpCROfDq5ORcE2Mxz7yoZXLa8uFrRm4ezgPc3/wh5GobsJvcyPJKMDVL/ZDnlOEnm8+BNsQV35J3ZAVqrH+uSgaEfIgWkjFZxAt1sDSuh88RKJyuYUVsXY1xpzv/VusIjwR8GVZYipAV3RIE5FaWSiDnoE+jecoiekw5cVoKlA7W8LQRCceNTXn/34fhgIRTP+KhP1jj8FuwgR+SetHnZ+PyGeegdvLL5cTd0nGddZff8Gyf38UnDtHY0Kshg+nBRSFdRTZivKScefkOmQl3oR/n6nw7zkFAsMHPxu1UoarB75CXnok+k54D9ZOAdDIZLQYJIn18CZidS2ypGUxMbj3+usI2b690bKnc/bvR9pvv8GfFGF0ceF7Ga0BGbePVBSyyTzJ0NZoNLTAY0Uhm8yT/tpm9ku555kbHg5ZpbnVUmQvegh3TD5G3/cGoS4/N+sCA+Fi3DzHKQaD0fy0lGBNILVLTvycCqW0mrx97hBI7nold+axGiaM2nIt+x/czjnAnVlUdr6hw9zQHiNcnoeNsPWbhhgMBqOt0mEF65v7cnD0h0qqV1LBejouWy3GS6ETICoZ22gTcCf8LexMK4SJoQIF2s54qNdKDDZ/UCwY8bwLLfDWlrm6Owtn/kiHQKCHoOFWGPmCa7OIxUTA/fmJcIxe6Ho/4oJElKz7XwRGcK8hYFDbiL2oDeR97f00EbnJcjz+kQ8sHGt/63RGtBTb3oyhWXwtkTdeFxIO38XtNcfgMtAfnZ8bAUOT+t8ifuCrRIQdzedbZZEgNnwufk2SwN7SAbKiQrj5f42p7r4QVrPbkhOYQf9rOseNskh+X4imTmk6n0/niVhNMuONrUxKHdI0U5qI0hb0kRQ+bOmLNClRZ3Dj8LfobvEwxGfOI+DHH6m425bI2bcPmdu2IeDnn6GVyZB//DhyjxyBIjERBlZWcHvlFVq4sK7vizipI85vQfytfXALHIbgQfMgMqv8rhRJfhrNqyYFF/tMWAKhqQ20cjmNLCF4r1hRa/E5feNGyGNjaXRIY0KLMIaFwW/VKur2ZrRuSOFHEiVSVsQumScDOwMDA+rALitil8wLK+xrB3Jyqq7orUlG7GOPI33Iy3ASZUNt0w1O4wfCwqLm78vj9vZ4ko/jYTAY7Y+WFKwJKoUWsRcKEXEyH7lJCr4XMDbTh98ASwQNtYKFQ9uKJiLnB+Rsu6UMFQwdMnUhogpO00KTErUuh1UP+nAx7YQgq2FwN+3CLoIwGAxGE9NhBeu0SCm2vnaPb9UelTweuWoRLE0cIaxiHDHjK1+4BLduEbE23DmUS0V9Ep/gFmqKhxZ5wKAZcqRJPAYpijnx/VKXIynIGHWmAHNW11zsrC2gkGiw+4N4OtB+bIV3nYolkr/Z/HI0fPu17tsblWIZbqw+gqxbSei2cBRcBwXwS+qHOFuFdf8LR3ElRhqtdD2+O7MZjl02Y4qTPbS5H+DL68kYM2ANeldT1pvs289sDK63Q12r1kCaWfiAO7pkXiVRQN/IAKaOFjBxJqI075Cm89yjoyXN8m6tkMKBR/94Fv7BEyBbtZUWAjTv0YNf2nbQKBSIIpnb3M+XKisLJgEBNPLDjHsvpOigzbhxcJw5k1+7ZrRaDeJu7EXEhc2wsPWiOdVWjrpisZWRmXANl/d+BpeAQeg64nnoCwx1YvWyZbSYo/fHH9dJII587jnYT5kCm9Gj+Z7GgRZhXLwYBjY28FqyhO9ltEVU3GdZUcQumSfLRNz+VlbE3mdigkuaKu6tFx/H5VGvIs91CJy6m0N+7ggK7J5Azx9fgI159WOCTtzzfulX9XeDwWC0bVpasC6LTKyGSqqFwEgPQnMDCAzajpiYl6ygonvMxUKoZLqBLik07tPHHMHDrO/X9mG0DBqtCppiFQz1RUyk7iCQuEDxtWsounEDmqIieickKVJO7tYUujNXPYPRXHRYwZpkNP849S7UysZ9O/oCUAHMxKr1ilB1IfpsAf5bmQiRpQBWzsZURDY2bVp3JXEcb3g+Ck+vD4apjW47EoGXFGR8dIknPHu0jezcqpDkqmgOs8jSABPf84SRSd2257GfUuhtkLO+8W+1g/HMa/G49vVBmHvaoecbYyG0MeOX1J8LWzJwblMG3yqPMudtrLyhwOj+X6KviQGgOoS1J1ZAGLIL81yqrjpLGP2yKzqPqzqrXVEgLeOOJoK0LkOaOKVl2UVUBCXvj7qjHXUuaV1sh06cFtq03YtXt46vQV56FLxTXaERi+H9wQf8kraBJCKC5lIXnDoFPUNDGg/i9f77sOjbl18DkHLrxLz9NnU4m3XpwvdWTXrsRRr/QUTr0CFPwcV/IL+kcqKv7EL42Q1U1Pbu+jDt0yqViF+2jMaBkBxtQR0K6ilSUhD57LPotGULDCxqV5y1LtAijC+/DNtHHoHjjBl8L6M9QQZ9FUXs7S4uKKzqookmHwVnLkIbPALWDoYoztiOixN/gNGyP9HjoeqPr6Soyq7QUOizE3wGo13SmgTrtohKrsXJdalIull9bRb3LqYY+rQLDKtySzEYjEahWKtF7v79yDt+HJqCAr63PEJfX9hNmgTToCC+h8FgNBUdVrAmkOzg2wd0t/g0FuSqPneoQ9BQa3Qea1PrAnqtGZKv/M+KeJhaG1An6uQV3jDjheSmYtub9+Db1wK9p5aeDJ/+PQ3pkVJM/cyX72l75Kcp8Oe7sXDyN8FDb7lDUEfHesJ17rP4MB6zvvWvU951c6FRqnH3t9NIOHgbneYPhs+j3RrNibDznVhuQF/Et8qjlf6O1We2wrHzRjzubA9l5jv48uppmPr+hjcDqh9MBA2zxOAZZjRnW1fUsNQhTR41chUMRIb3BWhdbAf36KhzSpNsaYFh7R3ybYX8jGic2vYG+vV/HRkffU2jQIzd3PilrRdlVhbyjh6lkyo7mzohbEaOhGnXrkj96SfIYmPh+8UX5fbLrL//Rtaff8L/++9haG3N95anICsOd07+QgX8wH4z4dt9AnVKV4VGrcT1w98iM/4a+jy6BHZuobSfuJjjP/wQmsJCnVhtVreLOSR7mzg+fD/9lO9pfIjQT5zWnkuWwKJ3b76X0Z6ZefcuCqpwWBdLYpF1NBIGg8bAxkYASC/h5kMLIXt+J/rN8ODXqpo/Q0JqXViFwWA0JhpkHPkcX4Y9hC9e7s731YQS6ee24/fdl5CstkXomDmYO8YPZlUMV5lgXX+IWL3/i0TkJJZGmVSHjYcxxr/lwURrBqOJKFarkbJmDSQ3b/I91cCNa5yeeAKWAwbwHQwGoyno0IJ1VpwMG1+M5luNg6mNAYo1xbBwMqLPb+lozA32bGjBDxOrtitqpYZL8Nf7cTCzNqTZalM+8mnS29NIHMnlnVmY/0sg3wNI8kgkRASmfe4L56DaOxJbC5kxMvz1XhytVF6fTHC5WI0NL0Sh52P26DnZnu9tPeTHZOLqyv+gbyhAz0XjYeFRtWu5rpDDzo/T7kIhqaqwjgSxEfPxe0IahCZW3PpWEClTYR+yHU84V58nb4giuOtfhImd+f2ojvsOad41bWzZsfJ8i4u1OLnlNdi5dYbw3wgaoeHyzDP80tYHidcoOHuWuqmLbt+GaWgojfywHDiwXNSGRiJB5NNPw2n+/AfiNOJXrIBGKoXPxx9z383Sk0GFNB/h5zYi4c5heIaOQfCAuTA2qT5LXyrOwqV/VtD5PhPfg4m57vtKxOqEjz6CKicHPp9+CgPzut8tcu+112hxyKYufJl78CBS162D/zffwNi1fkVSGW2HWWFhyOdO1CqjOOlXnJm8DgYvbETvJ32gPbMEZxfFwW3db/DvVPNv8a6QEIiYYM1gNDtFN1dh0qDXcaLXDqiPT+V7q0OOu98+ioGvHoFx92HoVByJUzcyELhwH06sGgeHSr7GTLCuP0d/TEHi9cqNGFXh0c0MI19kv8kMRlOQ9uuvKLxwgW/VAu58wXXhQphx5x0MBqNpqKtg3a4u6dp7i9DzscYrjthjkh2NsRj8lAsURVoYmxjA1sMYkafy8fPcMOxZEY/Yy4W0sGBbg2RyT1/pC3mRhmaqbXkjGulRUn5p4xM4xApFOSoafVGCqbUhFf8v7czke9oOSbeLsGNRDLo8ZINRL7nVq5AeyRMnFwnIftaaKNYWI2rnJZx6fSuc+vpi6KpZjSpWEzTq4mrEaoIpfIJ2YNngnzCj00q81HsuLLh/tsKaxRR9UwtM+OcVjPljAQZ9OhXdXxmDgOl94TY0ENYBTh1OrCbE3thLhVpntScUyclwnDWLX9J6IBcxim7dQtLXXyOMe30ZW7bAtHNnBHGDTd/PPoPNqFEP5EILTE3hvGABHZCqxWK+V4f7a69BmZ6OjM2baVujViHq8k4c/u0pSArSMXzOanQb9VKNYnV28h2c2PQyzGzcMHj6F/fFauLaSPzkE5qhTZzV9RGridAtjYqCRTO4OWzGjoXV0KGIX76cCvmM9o2NQdUX1PXcZ6LzcyGQ/bIAZyc/jFOLw2D54jJ41eLCsYg7mTMucwGIwWA0A9oiRGx7CUP7vY6jddBD1fEb8dKiI7B66RgirhzH8etRuPr5AMR99yw+uVR9ZAWjbhSkK3mxWo2cuJVY9fejWH54NW5L+QuH2lRcvfg0Ptj1OL67ehr5/BA48UYR/VsGg9G4yOPjS8VqrQynz/+HF+7koeTbpi6Kw8oDf+PR3YexOknKfXM5tFpk7dxJlzMYjNZBuzvrGPiEExz9Gy5IOfiKMHCeE/QFeggZZY3/rQ3A8GddkJeipAOLLuNtqfv6wFdJtHDcmfXpNB6iLUEE/ulf+kIp08Lczgg73o5B/NXyok9jQW53CxxiSZ3WZen1uD3iLhUiJ1HO97R+os8V4O/34zDof04YMNeJ760bESfyEHdFjHGvu7eqYh8ky/nM4h2I23cTAz6agpAnB1OHdaNT0zUe1WGsOdQX36eawMPWD4q0dUgy6oUA01rEpnDbU1/ABJUSZEU5CD+7Hp0HPY3M9RvhNHdunWMrmhJFWhrSN25ExPz5VEwlRVBI/jQRqomwbuToyK9ZOdYjRkDo6Yn033/ne3SQ9+j5zjvI2rULcf9uwNE/nkHincPoNX4xBk75GBZ2pUVgqyLu5j6c27UE/r0f5/5uEQSGurtQSOGWhM8+o6+dOqvrmT1dcP48RH5+MLJrnotWrs89B4G5OZK++opeIGC0X/yrzVE3gdWCdRh+ZCt6fPwtBh74Cz1mB6M2iVb+IhHLr2YwmhUJLrzVE8Ezf4bssXfxlA/fXSMapBz6FSeVoXjhxYGwpt9vM3R79n1MsUnEjj+uoW5eYEZ1kHE9RR2D83fPwiTwRXQVr8UftyOg4rpV+XtwJMUCQ3oMR/aN93Aot/Sc8f7fMhiMRiP/5EndjDoXW0/uxQt3UxEpUXNHRtqJmHt3cdYoEC96iLH2zG1E8NeWlKmpkEZG6hoMBqPFaXeqjoGRPqZ85A0Hv/qL1vY+Qkz5xBuGxqWbhzhoA4daYe4P/hjzqhvSIqQIP55Pc60HzHVE5j0pfn86EjsXx3D9eTRmoy1g7WKMGV/6QasuhhU3v/vDOIQda5qBUyi3rYg7XSktzdW0dDRCwGArXG4jLuvbB3Kwf2Uixr7qjm6P1k9kEmercPTHVIx4wRXm9kZ8b8uTdCwMx17cAJG9BUb8+ATsOjddvrHAUA9GJtUcfgwHYrynN/LinsPXpx7Fj4nWGBDyAny473dNtOWonqbg9vE1sHfvBsH1RCri2owbxy9pOYjDN+fAAdx7800a6UFcxs7z59PCg24vvwzTkBB+zdrh+uKLND6EFFwsi8ICkHazQf6v2+HjPwYj5v0EJ5+aM5y1GhWuH16NsDPr0W/iMvj3msIv0YnViStXQpGYqBOrLat3aFdH4blzzZqVRy4GkBxrsr0zt27lexntkS6mNdfb0DN1hnmnAIjMan9RMrQWz8tgMBoTPZgEzsWakwm48fsTCKj16Y0UsedjUGzdBT2cy4w1zQIwwAtIu3IL2ZXH3DPqQexl3vBjEIhHHtmJycYXcEPCnSu4uYIcYQ1tnsPbE1+FScox5JoPR4hZac2M2EtNYxZiMDoqJFqw8NIlXUOjhNK2O951M+aOpiUYILDbI9jZyxgXEiVw93CDa5mhUP7p0/wcg8FoadqdYE0Qmhtg2mc+NK6hrnQeZ4NpK30h4p6jMogb1q+/JWZ/649H3vGkERfHfkqFracQs1b5wb2LGc6uT8fa2WE0y4zkHLd2zO0MaTwIcZNbuxrj8OokXNmVxS9tPEgMiYWDERWty9JnmgMiTuSjMKN13xJ3cVsGTvychonve9GLF/WBuBoPfp0Ez+5m6DSi8mJwzY1SLMflz/bi1prj6P7yaPR66yEYmjRdnjkR7MOO5NGLS1VjAo/AbXh/6C+Y2/1XvD14DcbZWtNBf004NcIdFu2FjLjLyIi/ik7dptPifiS3Wq+FsmdJlW7x1atI/PxzGvmRvXs3LPr1Q/D69fBZsYLGVegb1e8CjtDDA3aTJyP5+++poCwTZ+Pqga9wevubMBnWD1a9+kJv33Xo8aZisk7BuXNIWrUKUS+8gNsTJ+LWI4/gzuOPI/r113Dl7fkovHsTw2Z/CwevHro/4iDvgbiTZTEx8PnssyoLOtYGEmFCIlAsBg7ke5oH8pq9li5F5o4dKLx4ke9ltDcGWlrCvJG/6+SIPc6m7uMqBoPREEzQ5ZmleHaIM+r2C6lCXnIBYOkKy7L1hAXmcLTmOgpSkU+sv4wGQ8b2cnF59V9gHAh/i1zciYtE6T2kApjb9oCj/DSu5pb620k8I4njYzAYjYMqNxfFSl5XMHbCvC7ucKrstFPfGIGOFshNjkNkGRmCRAoyGIzWQbsUrAlGJgKMWuiGqZ/7wLtPzdmi3r3NMfUzH4x+2Q3G3N/WBq+e5tSdPHm5N7Ji5dj2Zgwk+WpMW+mDR971hLxQja2v3cPGl6Jw499sOiBprYgsDej7J0K9hb0xLmzLwMl1qY1+2zjJrL5zsLyD285LSLfllb8aXyRvDMg2OLE2FVf/zsbjn/rAs0fds2pLuL4nh8afjHypdRRYybyRiGMvbICyQEZd1a5DSotiNhbEUR9zsRDHfkrB789E4pcnwnFtdzYsncqeQVWOwMgTLuauMBHU/hZ011DmACRoVArcPPojggfMQd6Of2DeowfMunXjlzYf8sREpP32G8KfeII6kwUWFvD94gsErlkDh8cfh6Ft4+SjO86cCY1YjLDvP8CR35+GSiHBiCd+Qudhz8Dj9TdpXnTahg3IPXwYEU8+SYsl5nHzJOOuWMWdtWu10EqlkEVEQhiWC+tDaUj76CtIo3WFfKlYvWoVdXFTsbqBwp340iVa/FDo1nR3MlSFSWAgXF94AYnc50AyzRntDyN9fUxs5KiZ4VZWsKvnRSUGg6EzvdR2ajjF0JAaOwZGFeJ+9CAgHSoZFG3jZtA2wf2PTHUb+099hgjziRjhZYOs1Nso4LazImsdfr9wEXZ+s9BDmIzwrGw+moCHJS0xGI0GHddXiwq3b53CZ6nmmNjJCzbiVNyWlR4Qa/57BoPRXOgVN7Yi2UoRZymRGiZFerQU0jw1yLsmGdSO/iZwCTahzt+GQmJCiNCbcK0InUZYoc90BxibCRBxPB+3D+QiL0UB/4GWNBrDvYtpIw1IGxcSZfLvxwnITVJAJddSJ/CY19whMGic1yrNV9OClXN/CICtR2kecWq4BH++E4sF64NhYtl6Ih1IQU3iiE66LcHjH3vDxr0WGcpVQITqzS9HY8J7XlSgb0k0KjXCfj+DuP9uodO8gfCd1KPR9keyzch3gRSSSbgupvOkwKZnDzO6P3l0M6ffi2u7s3D6t8a9gk0KiD67MZhesOro3D39OzLjr6JPrxcQu/gdBKxZA2NnZ35p06IuLET+iRPIO3oUsthYWPTuDetRo2DOPeob1nyhoq6Qn7Gk8GOI3fkzrK4Wwenjd+DUeRC/VEfR7dvcdlhMVuZ7aom+PhxmzaJuC8mtW/BduRJGDg78wvoTv2IFdYY7zZvH9zQ/KT/+iKKbN+G3ahUE1WYeM9oiKq0Wr967hzh5w2tEWBsY4KeAAFhUU8yRwWBUT13GWZWenikjsbJHEN613wH18al8Z1XkYe8kdzx67WlcCF+Fvvev5Wdh+zBnzEhdgpu3P0SXCjfUOXC/b6amppg4cSLfU8r8+fPRtWtXvsUoy/ZFMfT8EtpMXD87Fz9EpqJYzxH9h63HfF9X6EmPYv3el3GmqBj6po9iwfiP0Ze/m5dE2U3/wpfOt0UyZTGILbwIqboAxdw/EwNL+Jj3gaOJP78Gg9G8KLOzEffOO3yLoMDxQzvwseU4/NvXHiJokZlwFnOPRCIVenD0HYb1Q3zhyl/cI/VlPN5+W9dgMBj14ty5c9ixYwffKmXbtm2wtbXF3bt3+Z7q6TCCdXNCYkAubstEzIUCBA7RCddEnE2PktKigyT+QmRhgNAx1ug0yoZGcrQmNOpiWkySxJ2QrGErZyNMWOpFCyc2BntWxMOSe86hC1z4Hh07uMGeS4gpBs2rXyHDxoYI9ns/SUBBhhJTPvamhSnrC9mmW1+/B+dAE4x8sWXd1QVxWbj6xX4632vReFh4NdyFl5skR8J1IlAXIfmW7jZHty46gZoI1TZuOqFfpdDSizckckZfwA0IuO9BRnTjxeb0fMzugf2qI1KYnYATmxdi0NSVyPliLcxCQ+H81FP80qahWK1G4ZUr1LUsvnyZFkIkIrXVsGENynmuiZyUu7h94mcaAxI88AkU7zoPgUhUbqCpKSpC7JIlkPFu6fqgzz2n/w8/wNip4ccnkq13d+ZM+H7+OUwCAvje5od8ZrHcgJ4UYvR8771WeRGV0TASuX1tUUwMCjX1v8PLkNsvVnh7o0srKtbKYHRI6iRYS3F1cSh6fd8Fe5J249GSBCtlOD7t1gnv2W5A8sm5D9wm7+joCDs7Ozz99NN8TymPPPII/Pz8+BajLGRcS8a3JWiUBVAaWEJUbvuqIVPIYWRsVi7ijsRR9ppiz7faDvHia7iVsw85ikS+pzzWxm7oYjMOPhZ9+R4Go/mIXboUqowMvlUFWiUK1AawrBBTaTdpEmwffphvMRiM+nD79m0cPXqUb5WyatUqmHHnFEywbgUQR+2l7Zk0s9m3nyX6znSAg4+IinbRZwpw52AuUsIk8OphjlBusOLTx6LRnMwNhWSpkQzu6LMF1B1rYKSHyR960+iQhhJ7qZC6lp/Z1Knc+427IsZ/nyfg6fUt75CVi9X4e1k8tyGAScu9qsw0ry1nN6Qj6nQB5nzn32jCf10hX/V7f11F+MZz8HmkK4LnDYTAsH7vizjliXuaCNSJ3CTJU8E5yASe3c2pSO0UaEIz0UtQSDW48W8OdVUTkZrklgcNs6KZf388Fwl5YcPjcsiFFeLcb6nt21ogn/Pp7W/B0t4bHnrBSP3lFwT9+muTOWhJnjMpeJh3/DjNx7YaPhw2o0ZB6OXFr9E0SAoycPf0r0iPvQS/HpMR0Gcad5wSQckNTiOfew5ey5bBvFs3GuVBxGrJzZv8X9YfIvrbTyktwFhfSH526po1CN6wge9pOdT5+YheuJAW43ScPZvvZbQn4uVyvBsbi3w1XwK/Dhjr6WEZ913uZt6ydwUxGAyOOgnWQP7+mfAefxqzTkfgh0G6C06axF8x3G8Bst+/g+tLQ1CxYomTkxN69eqFvXv38j2M2kDqs+xaEsuNOfiOWqLHDVkbaoppCW7m7MO17N18q3q62IxHT/vJfIvBaB5IBGBWJe7OGjEwgO9nnzWp2YbB6Mj069cPRUVFuHPnDt9TPUywbgby0xRUuA47lk/dpv1mOFJxj5CXqqDCNSlCp9UWo9NIa3Qea9Og6InG5PTvabj1Xw5sPIWQFagx5SMfWDo2bFBFIiN+mReOEc+70oiUspC876ChVug9teG33NcXMuj8a2kszO0N8eiShjvLUyMk2LkoFtO/9IVTQMvcdi/LFuPqVwcgSclDjzfGwb6rB7+kdpCLLCl3JDqR+loRsuPl3D5qrHNQdzeHW2fTSi8ykH3m6u5smuFu5WKMvtMd4DfAopyTk1yo+OfDOG6/4DvqAfmMSAZ7S23flkBdUABpVBTNZiYxF2RgRW5hS0m/hohzGzFi5mrEvPQqFSFtx43j/6pxIMVM8o8fp5EfJAPZon9/XeRHjx5NXtRRpZAi6tI2xFz7B85+/REyeD5MLBz5pToytm1DPvfa/H/8Ebn791NxuHKKIZXk4XKhEiZmNuhuZoTqrhnqcYNY/++/p1EeDSHxyy8hMDOD63PP8T0tC9mPYhYtgsfixbDkBhGM9gcRq7/jvqvnCwv5nprpZGKC193d4WLcdEV4GQxGHahOsJaH45c3PsBJ6wX4evloOJCha9EFvNm9P77Wfwobdn6CRy3v4IenHsOSc73wS9gBLPB60LTABOv6c+q3NMScr/0xluDbzwJDnmqeuLbGIiL/JM5nbOJbtaO3/VSE2ozhWwxG06ORShH79tv0rsa6YN63L1wWLOBbDAajsWGCdSuG5Ghf2plFBWrXEFPquHbvrHM8EBGXCHdkGXEgE4cqEa5JpEhLO0Yv78zEha2ZcOlkguw4OSav8KZO8YZw5o80ZJHn+tCb79FB3OjH16ZiwR9BMChfJaZZyE2WY9eSOPr5jH294dndJFZk44tRCBpuhQFzWibqJPlkBG5+fxQOvbzQ9cWRMDKr+WIIcdhn3JPxDmoxzX8nudMe3XQRHySHurooGyL6626PzKE58USori63mxRlJNnpWnXdD0d6Bho8/okf3EPbvwOQDL6ISJyzbx8UiZXfgqkW6sF86ECYiOxo5rL/6tXQ02/4d0mrUqHw/HnqphZfu0ajLGjkx5AhVHxtaoq1GiTcOYSwsxtgaulEiynauATzS8tDXmv0iy/CcvBgZO/ZA61Ewi8pixbx8ZcxP1oGB3NDZBdI4O7dG9/5W8O8mq89Eee93nuPb9WdYo0GYTNnwnPpUph16cL3tjy53Oea+tNP8PvmGwjd3fleRnuCDPfucN+FPTk5OF9QwH0DKqc7931+1NYWvS0sIGAxMQxG66E6wVp8Ak/6DsfvrqsRe3khvHktuujWD5g/+RX8Gcu7Asx74ZWNu/HlRFdUdo8dE6zrj0alxaFvkpEeVbuoO0d/Eca+5qYrgtlGUGkV2BGzCEptEXIOXcaGNckQO3th8rLu6EyukijFuPbjBRw4KYFhaBBmLg6CmylgoGeE6b5fwEjA6mUwmo8i7jwo5YcfuCF/7W59MHJ2ppGCAlNWwJ/BaCqYYN0GkOSqcOWvLNzclwNHPxP0nVFezCPLw47m4fahXG5eTUXr0LHWcAlquYPnrf05OLE2FV69zWkExMRlXvfF9vpAnOV/PBNJ4z/MbEuFTyKU/s7193zMHl3H2/K9zQPJGP/r/TgED7PCsGddGiXP9fDqZGTFyjDjK79yERnNgUqiwM0fjiLjchy6vDAC7sMrF/dKIHcClER8JN0sgpobeLuFmlIHtUd3M9h713yRgt5NsCML4dz+697NjArVRPyvDVlxMpqdnhVb+yvhLiEiFHlcgm+oC4YPH873tk8KL15E8urVUOfl8T01Yzd5MpwXLGjQviwJD6cidf6pUzRWxHrECFiPHAljNzd+jaYnM+E67pz8BSp5EToNng+3oGE1vqeiGzcQ+/77QFUxCJo8fH7qKqK8+2G1lxnUqRfwSJgelg7qg7HCap6b+3+Dfv+93oUXxdevI/Hzz9Fp8+Ymd6PXlZSffkLRtWvw+/ZbVoSxnaPgTt7iZDJakJHMG+rrw93YGH4iEUxa2X7JYDAaiFaClPC7SJRZwq9zIOyruWmCCdYNg4jW5zdn4N75wirjQUgMCHFWD5jj2KbEakJk/imcy9jI/YjkYu+CE0gZ3x1O24/h1MCJ+OwtO6gvnMKS12QY/5k34t47h9w3p+GtCSYg77KP/XSE2IzSPRGD0UyQ84HUdetQrFDwPZVj7OkJt4ULWRQIg9HEMMG6DSErVOPq37q4BGtXY/Sb6QCfvuXjEpLvcB/mwTxEncmnURyhY2xobEhjZEnXlciT+Ti4Kgl+Ayxx71wBxr3pgYBB9T+okyKLxK3bd0b52/mJK5eInvN/CWw2kZdEXexZkYDeU+25z6H866kvxCm/99MEzP0uANZuzXtLddatJFz76gBMnSzR482HYGL/oPtYJlZTYZpEfJD3X5ipgpO/CB58DrVLsEmtB9IkIuTi9kxEc/spzWuf4QAH37q78ElxSlKUlHwnqivGSCJIuk+wg19/C+Tm5WLLli0YPXo0goKC+DXaD+QQnb5+ff1y2DgsBg6Ex6JF0DesfXFXZVYWdXKTSZWdDctBg2AzciRMu3atUShuTMS5ybhzch2yk27SjGq/no9x+2Ttv0ths2dXLfBrxfjlzHkcduyFdf6WyIq/iPkpNvi2XyC6G1b/Hp2feQb2kybxrbqR/P33KFap4P7aa3xP64G4v0kRRn0TE5oB3pyfNYPBYDBaHiZYNw6ktkvkqQLEXiyk53ukJo7QwoAK1YFDLGl9oLbIv/EfI1sRz7c0yNx7Hj+tSIXPqgmYPUBIhWly+442Ow5rJ51F8adT8cJQ3bjN0sgZj3kvp/MMRnNC6rUQ403B6dN0viwif39YDR0K8549afQfg8FoWphg3QZRSDS4vicb13Zn05iFPtMdqBCsp18qFpCidUQwJhWoSZSGb18LhI61gVcPs3LrNTVxlwvx7ycJ9PWRIoJDn3ZB14fr54QmLnLiQnjy18BywghxJ6ybH4GhC5wRNKykrHnTEXU6nzp7iau6y0ON4+om2c3rX4iiFyG6PWLH9zY9WpUGYRvOIvbfGwieOwB+k7kfX37/INs1JUxKIz6Ik5pEfpCLICURHx5dTSGsY3HJtAgpLm7LQPy1IlpEsc80e9i4NU7+ujhbSUXrnEQFNEotjcax9RLC0U/0wEA/MjIShw4dwsyZM2l1+/ZE2h9/1FusLoHEWHi++261jl6S8VZw9ix1Uxfdvg3T0FAa+WE5cCAEooZFANUVpUyMiAubEX/rP7gFDUengfMgNLPhl9YO8tN2d+pUaKVSvqcixSjIuo15V1OQyH1HNBohJnTri/edRKhBr4bVsGH0IkBdIa8pfO5c6uCw6Ns6q+aTbHRShNF69Gg4ca+VwWAwGB0HJlgzqmNj1EtQF5c4VTXIORuFg6sv42bwKCz7wAXk3ixtVhK2LziKy54D8c6X/rC/X/pID/8LWMsuhjNaDGLMkMfHQyOR0HMiQ+6c0cixcYxqDAajdjDBug1D8o5JTAiJCzE2FaDPNAcED7d6wGVMohPuHMpD+LE8GBjrI2S0NXVeN7QYYm0hru/dH8RTlwC55a3HRDsMfKLu+cykkN/aWWGY+MGD8SIk/5gI2k/8GMD3NA1ke5/8JbXBbvGK7FkRD7VSi8dW+PA9TU9hQjaurNyPYq0Wvd56CBbe9vTiBon4IA7qlLsSmgtOcqhJxIdnD/N67zOJN4pwcXsGzbYmF056T7GHRTPtf1Vx4sQJxMXFYdasWTBuJ0XCSAxI/Icf8i1CMSTiXITBFIGmQlhUYoBXy7JxtkiIXvZm3FqlOM2fD4ep5TMvyeFfcvs2FakLzpyBgbU1jfsgU0sM4LRaDeJu7KVitYWdFzoPexZWDr780rpBCkOGz5nDtx5Eq0jF4jNhyHLvgrc9LZAffxWLkgR4bUBvTK6kgGhZhD4+CPj+e75VeyQREYh791102r69To735kYaHa0rwvjWW7AcMIDvZTAYDEZ7hwnWjOr4I/JZbiSq5QYKWdj/cRQsnukD38N/490/A/Hx3q5wlmfi77n7cMKlH9762A+O5oYwLDOkmuv/Iwz026a7nMFgMBgNhwnW7QAidBIn9eU/s2jRPxJTETLK+oF4BpIxTKpRk0KNiTeL4NbZDJ3H2cBvgEWTFyzMuCfFX0vjqPBJxEu//pYY+aJrnSM8jnyXTIXrh9704Ht0KGUarJsXgXFvusOnjwXf27ic25SOa39nY8L7XvDo2nhF4+4ezsXJX9LwxJoAmNk0/aCMfIVj/rmGsD/OwnV4CAz9OyP5jpyK1EqJFi4hJIfajE4kpqO+jnzy/5BbGy9tz0J2opw663tOtms1tzVqtVrs3LkTIpEIEyZM4HvbLqTAYuTTT5eLtFBKkvD2+XCke3THSl97uFfUVdUF2HX9Ej6S+WD3IF94ljkMkNvcAn78kWZPK9LSqEhNIj803A8GKZxIRGrTkBB+7eYnPfYijf8gonXokKfg4j+QX1I/lOnpiHjySb71INLsa5h8C3i2Xzc8ZsJtKHU2lpy8hvyAQfjBvfr8ZrINA3/+mW/VnrTffqOvi7jdWztk30jh9he/Vasg9Ch/fGYwGAxG+4QJ1ozq2BL9KhRaCRmk4vqyvfhhVxGKBabo//l4zH/YDIX//IdFb6eBL/EJ9yXT8f5cc5Dhqj4MMC/wJ90CBoPBYHRImGDdjiB5vmFHcmmes0ZVjF6P21NB2tD4QTG6MEOJO4dzcfdwHlQyLYKGk0KNNnDwabpb+XOT5fjz3Tg4BYiQGSOjRfkeXuwBA6Pai+Wk0CHJsn52cyfqKi/LuY3pVIif8aUf39M4kMKOx9ak0iiQx1Z408KXjQX5HDa8EIUxr7khYJAV39t0FCQV4PJn+yFJy0OhWRdkZZvD3kd4v1AiKXhY2f5SF7SaYrqtyH5YlKNC94l26P6obZ3jQ5oDiUSCTZs2oUePHujduzff2zbJ/vdfpP5UMrBX417CbbwVmYEU7izA27cnvvC1h0e5r4waEVEX8VJiEfKM/bBroC+8Knz0JOaDOPClEREw694dNqNG0bgQfaOWc8cXZMXRgop56VEI7DcTvt0nQF/QsIsgapUc13Z9CuGGy3zPg2gk9zD7bBKCuvbHUkchVAVReOJSOvr07Ie3bKrfHvV1WEcsWADHOXNgPWwY39O6SV27FoVXrsD/m29YxXQGg8HoADDBmlEdx1PXIl58hW9xY6kiBZRCY4hqcUrgZtoZo91e5lsMBoPB6IgwwbodQgRDUoju0o5MyMUa6mrt+ogtjEQV7ZU6MTbhBrcDHMylcR12XkJ0HmtD84UrCsKNQWGmEn++GwtrF2MU5algJBRg4jIvCM1q/38RgZe4dStmYZMiJb/MC8eUj3yo8NoYkBzn/V8lIT1Siikf+9DX3ViQbb9jcSws7A3x0FtN40gk+wLJjSbu6eSTURCk3IDKyA5WA/rCq68tjfswaaSCnGRbkViWyzuzqAu+12P26DLelmZJt2ZSUlLw559/YvLkyfBow87QyGefhSIpSdfQynEo/C7+UpkhqDABl5y647MKgrUs5zZeuK3AMA811qXYY2MlgjX09OAwezZsx46FoW3j5LXXF4U0H+FnNyDh7hF4ho5B8IC5MDZpeCyPpCAdF/9ZDoGBMWz/ToJWUlWGtRq3oy7hjXgJ9IVGUMg18PPqguV+dnCuYRevT4Y1ycyLfvlldNq2DQKTxrtI1pTQIozvvgt9kYgVYWQwGIwOABOsGdWRJo3EgaQv+VbdGOX6MtzNOvMtBoPBYHREmGDdjiGCaPTZAlzclglxlgrdJ9mh+wS7KsVhIviGHcuj4nVBmhL+gyyp67piXnRDkearsWtp7H1BnPy/JLuZFJCsDVd3ZyHieD5mf+vP95RyfG0q8lMUmLzcm++pPyRmZM9HCZDmca/vI+9Gj+u4/Gcmru/JwbyfAhr14kBOIon3KKLFEpNuS6APNVxNo6FXkI7AOUMQNLUrv2bjQLLUbx/IwZVd2dA3AHpPdaA56U0dM9OYXL16FZcuXcKcOXNgbm7O97YdSAXrsFmz+FYZtBKsP3MWBysK1sp0rL4cjlivfnhNfgmzU1yxaZDfg4I1h89nn8GsSxe+1fxo1CrEXPsbUZe2w8Y5GKFDn4aFnSe/tGFkJt7A5b2fwMVvALqOfBHx73+AouvX+aWVo1VLEVEgg4GJJfxEBroK9zXg/MwzsJ80iW/VjowtWyAJD4fPihV8T9uAFmF85RVYjxgBpyee4HsZDAaD0R5hgjWjJnbHfYA8ZQrfqh3mhg6Y4v0Ru/DNYDAYHZy6CtZtR4Fi0OzhgMFWmPtDAMa+4Y64y4VYNy8cZ/5Ig6xAza9VisjCAD0n2WPeT4GY+rkvjeogxRJ/eyoCF7dnoihXxa/ZMEysDDCNe37i/iVOXOJa3vbGPeQmyfk1qqfTCGtaHJAUk6xIr8fsqGM8M/bBZXWBbJ+di2Oh5l7ftJW+jS5Wk9d+bmMGxnGfS0PFakmeCuHH83DgqyT8PDccG1+MQvSZAjgGmGDMk0L4mV+BraMWo3+e16hitUKiwcVtGVj3v3CaoT5ovhOeXBeEruNt25RYTejZsyfc3d3pCZdGU5Kk13YgRe9qjwJnwyNw0CQQi51FMEIxPSGo6pRAGhXFzzU/KVGncfSPZ5AYdhS9H16MAVM+ajSx+t7Vv3Hh72XUqd1t9MvITLiBHLPS/O+q0DcwQSdbWwTUUqwmLvX6FCIsOHeuTRYwNLC0hNd77yHr77/pe2AwGAwGg9FxGebyLIz0a3+nmKG+EMO5v2FiNYPBYDDqCnNYt3ESrolxYVsmMqKl6PKQLc25rk6MJe5Zkkd8+2AujZbw7mVOXdeksGFdCyZWhDz3no/iac6xc5Ap7p0rwKQPveDCzdfE3k8SYGpriOHPuvA9pRxclUSF5ocX10/YIrElu5bEwcrVCI+849ngTOeKkOiMza/co3Ecw5558PXXBNluyXckNOYj8XoRsuPlsHE3hmcPc3hyz+nWxRQG3EcavvEcYnZfQ9Ds/vB/vHe9iydWRFqgxrW/s3Bjbw6sXY3RZ7oD/PpbtPmBpVKpxJYtW2gsyIgRI/jetkHOgQNIWb2ab5WhMoe1PBFvn7mLA2p9GJOPrFgLBXdUF4pc8dOgLuhRISHGbuJEuDz7LN9qHkg+9e0TP0Ocm4TgAXPg1WU89PUb5y4EjVqJG4dXIyP+ChWqi3KSEH97P9RKOdz9h0Fv7WFopQ274FUWkvlNBNy6oMzIoAUgO23eDAOrps+2bwryjh9HyvffsyKMDAaD0Y5hDmtGbcjhxp5HUr6DVJ3P91SOUGCOUa4LYS9q+J2yDAaDwWj7sEiQDkrynSJc3JpJhc/QMTboPdUeFg7VFw4jRRPvHMpD2JE8bk8AOo20Rmfub63d6p/rTMTb/1Ym0SKM/gMtqAhKRGIiiFdH/FUx93eJeHZTMAQV3LzkdW54Pgr/+zkQVs51e20kToOI1URMHvOqW4NF+co49WsadbvP/s6/Vk5kEu2SHi2jER8k6iM1XAqhuYCK0x7dzeHZ3QxmtqUXHcSJObjyxX5olGr0WjQeVr4O/JKGIc5W4sqfWfTihZO/CfrMcIBXj7YXn1Edubm52Lx5M0aNGoXg4GC+t/WTs38/Ur77jm+VQSvBhrNnccCxO1b72cOO7m5ayFQqqIp1+3Z+6mXMTnLEun7e8DMU0MrsZbGdMAGuzz3Ht5oWmTgbYWf+QErUKXh3fZQWVTQSNl4kEXn+i3tWQKWQwNTaFVkJ12HtFMD9Xw/DxX8QBAaGyN6zB6lr1vB/0TD0DAzg//33dRZsqTuZ+9z8vqxf7mNrIfXnn1F46ZKuCKNZ40ZLMRgMBqPlYYI1o7YoNFJEF5xBZP5JFKoy+V4dZoZ2CLIcCn+rQRAK2HiBwWAwGDravWCtVmqRGiZBepQMuUkKKpCSInC2XkIqujkHmTSJKNlWSI+S4sLWTCoABw+3om7ZmgoLkiiP2EuFNOs67ooYLsGmCB1rjYBBVvUqsEee78h3yfS5uj1qiwtbMjHqJVeEjLbh13gQIuKumx+BIU85I3DIgw7Efz+OpxEnoxa68T01kxohwe734xEyxpo+b1M4hpNvF2HX0jjM/NoPDr4ivvdB8tMUSLhWhMQbYiTelND91q2zGRWnPbub0+KYlRG75zru/n4aHmNCEfrkYAiMGx5lkpeqwOUdmQg7lk9F8r4zHODSqXGKWrZGoqKicODAAcycORP29vZ8b+uEHI4lafnI3H8URbt+43vLQAXrc9hj3Qm/h7jCvJJdOiXqKGZkeGHTQF94VvL1dZwzB46V5WM3ImqVHNGX/8S9K7vg4NkDIUOegpl13e8+qI70uCu4vPdTGn1SzP3z6DQK3l3Hw8LOS7cCT7FWi7glS1B08ybfU3+cn3oK9lOm8K3aE/PWW9SZbf/YY3xP24QUYYxbuhR6hobw+uAD6OnX/feBwWAwGK0XJlgz6kOmLAYydQE3GgNMDCxhL/RhESAMBoPBeIB2K1iXxBbcOpALeWHVmbTmDobo+rAtuj9qVy+xtb1AMpVJcUYSy0Fyr4koaetRuShaFhLncfdIHu4eyqXFFAOHWtHIEOfA2meVlXByXSruHs5D35kOOLs+nXsNjug7vWp38NmN6UiPlGLKRz58TylEiN/+Zgye+iOoVvnTRCwnInf/2Y7o/XjjOJIropBqsOGFKBrFUvF9ycRqJN0oog5qEvVBimQ6+ovg0c0cnj3M4BJk8oCTvCzy3CJcW3UIBbFZ6PH6WDj2LC/C1Qe6T2zn9omzBfAbYIk+0xyqFdnbEydPnkRMTAxmz54NY+P630HQmGhUaojjc5Afm0k/54KYTBTGZUEtV8HCwRh2Gfv4NRsXrw8/hEXv3nyrcSE/J0lhRxF2dj2MRZa0oKK9R+MWBc1Ni8CdEz/TR6GpDYL6z4Zb8HAYGFZ9fNNwP4qxS5ZAVqds8PKQKBVSbLGuJ2C0gOacOQhatw5GTk58b9tFXViI6JdfhvXw4XCaN4/vZTAYDEZ7gAnWDAaDwWAwmop2KVhHnyvAkdXJkFUjVFfEytkIY193h2tI+3WO1gYSp3FpeyYiTuTDp68F+s10rJVISXYLEi9CXNek4J+VizFCx1gjeIQ1dTrXFlLE79LOLFrA7/zGDPr3w56p3O1ckK7Ebwsi8NRvQZXGmfz5bix97cQtXR2kYOHhb5Mx8sXqXd0N5cDXSchPVWD6Sl9oNMVIvSul4jQRqUkkipWTETx4B7V7VzMIzWqX2Zt6LhrXvz0Mu85u6P7yaBhZNExUJk5zcvGCOLyp636qQ4NiX9oiWq0Wf/75JxWrJ0yY0OyuD2WhDPm8KE3F6dhMFCXlQt9QAAsvO1j6OHCTPSx97bm2PQTGBgh/4gmoc3L4Z2g8RAEBsBo2DJYDB8KoER3nOSl3aU41ienoNGgePEJGcdu5cS4aEsd2cvhxxN7ch8LsePq8oUOegm+PifwaNUNE68Qvv4T40iW+p5bo68Nx9mw4zJhRr/2G5JHncCf+Ad9/z/e0fWQxMbj35pvweOMNWA4axPcyGAwGo63DBGsGg8FgMBhNRbsTrK/+lYWT69L4Vt0gWgnJT/YfaMn3dFxIJMXlnVk0r5rkOfed5VCrYogEhURDBW+SdZwTL4dvfwvquiZxErUp/Hfj32yc+i0NQ59ypuK1S7AJxr3hXqnDeOc7sbB2NYKloxGNfSEFE4u1gLGZACJzAWIuFWLBb4Ewtak8n/va7iycWZ9OCzT69q0+N7shRJ/Nx/4vktB9oh0y78mQclcCA6E+PLrqYj5IFjV5D3VBJVXi9trjSD0Thc7PDofnmFB+Sf0g4jm5WEGKa5LPq9eUmnPN2zMSiQSbNm1C9+7d0adPH763cSGHU2l6AfLLCNMFMVmQ5xTB2MpEJ0oTcdpX92jmal3ldyhj82Y6NSbm3Ps269YNBWfOQBoRAZG/P6wGDaKio5GjI79W3ZAUpOPuqV+RHncZfj0mI6DPNBgYNY5zvyArDnE39yE54jiMTKxJvgf09Q3Qb9IH9YoYIZ9P3tGjyNi4EaqsLL63akw6dYLLc8/BxM+P76k7ce+/D5OgoCaPYWlu8k6coIVBaRFGz/oVxGUwGAxG64IJ1gwGg8FgMJqKdiVY39yXg6M/pOga9YSI1pOWecG7d9OJl20JUmiPCNfEOe0cbEId1+5dal8MIzNWRv82/Hg+jEz0ETraBiGjrWsUQsOO6VzPg59yxu39OTC1NsSEpZ7cc5S6jmMvF+LEmlTkpyn5nsoxMNZDr8fs0XuqQ7nYlzN/pNEij5M+8IJbaOMX+BBnKal7OuZiIWIuFNJ9i/w/JOKDiNTE/V1f525OWCqufrkfQhtT9HzzIZg61e8iC/k6k9d2aUcmchMVNB6nJ7etTKxq74pvz6SmpmLnzp2YPHkyPOpYOK8ilUd6ZEMtV8LMxfq+KF0iUpPPti6ocnMR8dRTKFYo+J6G4/vVVzDli0+qcnJoIUAiXkvCwiDy8aHCteXgwTB2rv4uBoJKIUXUxW2Iuf4PnP0GIGTwfJhYNDx+R6NWITXqNBWq8zKi4cI9N4kVibiwBVaO/uj50JswNKp7RFFZSBZz4cWLyD9xgm4DPYGAZl3rC4V0Oxi7uyP3wAEErF0LoVvtc/MropFKETZjBvy+/RYi7/ZXIT913ToUnj8Pf+79sSKMDAaD0fZhgjWDwWAwGIymot0I1jmJcmx6KRoaNXl5WsglNxFbmAuBaSg8zRwgLOdKVENWdANxEiUsLHvDTVg+45iIdfPWBNQpyqK9I8lT4epf2fSigL2PkGYw10XUV6u0NAv59sE8WniQOIuJi9evv0WV2cwxFwqw7/NEmisde1EMlVyLx1Z4w8BID8d+SkXY0Tx+zdph5WKEh970oNnQ5MIGEZKnfOQNe+/GcXeSjOqkm7oc6kRuyktR0G2llGrpPvX4pz4wNK78vdYWrUaLiM3ncW/XFQTO7IeAqb2hJ6j7c5JCl5Gn8qlQLclVo8dEO3SbYFfrGJKOxLVr13Dx4kXMmTMH5ubmfG/11DXSw6DCMai+ZHMnjKk//si3Gobtww/D9cUX+VZ5VHl5KDx3DvlEvL59mzpmS8TrioJtsVaD+NsHEX5uI0wtndB52LOwcQnil9aforxUxN/6Dwl3D1NB2qvLQ/AMHYPM+Gu4ceQ7+PWaQvOqGzvOJWPLFuSfPImAH36AnkHpb0TcBx/Q7eA8fz7fU3fI86Zv2ICgX3/le9oXtAjje+8BAgG8P/wQrAgjg8FgtG2YYM1gMBgMBqOpaDeC9Y63Y5B8W8KdEYsRG/UUfk2Sw9HcBtLCSOg5vI2ZQY/AzdgA+shGXOSr+CNZBgdzI+QWFMGr01rMcnVBWamu8zgbjH65/k659gopDnhtdzZu7MmGpbMx+s1woJEfdRGFSPb0ncO5uHsoD2qlluZUk7zryoTjxJtF+Gd5PHo+ZoesWDmyYmQwNhdwj3J+jbohMNKDo58I0jw1pnzsA0un+kdeENGXxGckXNPlUJNCj2a2htQ9TXKoSZQKyVM/uyEd834KbLBruSg5D1e++A9qqRI933oI1gF1L8imUWlpkUzimifbnsR+kCKQHbngaG3477//kJ+fj+nTp0MgKD1SkMNhY0V6NAbE9Xtv2RLIrt7ke+qH0McHvl98AYGo5os56oICFJw7R53XRTdvwtjNjYrXVoMHoxA5uHNyHVTyInQaPB9uQcMaJCBrtRqk3TtPherspFtw9O4N767j4eDVk3wYuHPqNyTcPoAeD71BndZNgValQtTzz8Nm7Fg4TJ3K93LHtbNnkfLTTwhev546sOtDwqefwsjBAc5PPcX3tD/UYjEtwmg1ZEiDxH0Gg8FgtDxMsGYwGAwGg9FUtAvBmhSs27Qwms5r5f/gh1NfodjlQ8zsNBzWst/xzdnt8O38Cx5ycodQuhofn94K226H8ZyTECl3R+KH3FlYOOBZOJfRGASGenhmYzBzWVcBcRMT0frq7myY2Riiz3QHBA62rJMYV6wtRvw1buc7mEvdzg4+Quq6DhpqVS76gwjBf70Xh+CRVog6WQBJnppfUk+4l0ic1URUrivEyU/EaZL3TC6QEO2NFEikInU383LFCUkO+MYXozF+kTt8+zUsFz1u303cWXcS7iM7IXTB0Do7cok7/db+HJrxThztvafaI2SUdZXudkZ5VCoVtmzcDCdjGwTaeevE6UaO9GgMyOH51ObXYX2pALiXzvfWDSJW+3z6KQxq6SYvCxEjSeRDzvEjkN6+C7WIe74eofCaMh+mAfV3VZPCjPG39iPhzkHa9gwdC88u42BirisCqZSJcXnfp5AWZqDvxGWwsG1YfEtNiK9dQ/yKFQhcu5YKzIRitRphc+bA/Y03YNG7N+2rC0QIJ3Eg3h99dD+Gpb0ii4vDvddfhzs3kQsbDAaDwWibMMGawWAwGAxGU9EuBOtjP6Xgxr85uoYmByl5YZALu8LbzALF0i349swGeHdZh3GObhARPVWrhFrfCAbaPITdnootsufxep8psKmg3Q1/zgXdJ9jxLUZlUCH0vxxc2ZUFQxN99J3mQB3T+oK6uSilBWqEH82jhRpJ4cSAQVbU5e4aohP9shPk2Pr6PahkWtrmPljkFNxAusocLlbBsDI0IDp0KVoxMvOvI1NjDw+bYFhUMDzaeQkx61s/GNQg2EpyVUi4oYv4SLwhhjRfDedgU1pA0qOHGZz8TSp9r8R9vf2tGNh6GGPMq+58b92R50lw/ZtDyI/OQPfXxsCptw+/pHbIizS0iOW1f7JhamWgu7AwxKrOn09HQymWIT+mfKSHOCkXxdw/kaslnEI8YOmrE6ctvBsv0qOhxN38D5EXtqDnuDcR9vVSWMdyn7NGwy+tGRID4vTkk7VyVlcGEY4jzm9C3K39cPcZBFdBIKSXr6Po2jUYOnDba+BA6r428ffn/6Jqiou1yIy/St9TRtxl2Ll3gXdX7vX59oO+fukXmhRavLhnBcysXNDr4bdhJKy70F4fiBu6WKWC1/vv8z1A6tq1UGVnw3PJEr6n9hReuoTkb79F8KZNjR5j0hoh8Sfk/ZKc9PaY181gMBgdASZYMxgMBoPBaCrahWC9+ZVoZETL+FYZNIk4d3UWDuAp/K/rHHgZG6JEnlTm/4Rfr/2Ke0o3DO61AZPsHsxjDhpmhfGLmtap114gGdXEKU2iJojWQgockpiP+jh4UyMkuHMgF5GnCmjEBnke797m2PTyPWhJRrk6DIcvP4czal/Y6acgXemNsd0+xQArGxgQnUe+H/9dW4nzak846CchXdMLj/X5GD1F5d3yQ59xRs9JOodmCUSAJxnbNIf6RhGy4/dlolYAANuNSURBVOVUdKYRH93N4NbZFEaimm/3v7A1A3cP52HuD/61Wr8y0i7EULHappMLur8yGsaWtS8cR4T1q39n4ebeHOr6JpnjdY1u6QiQw1lVkR5GliLqlLYq45xOl+di/4H9mDFjBhx4Z21rQSHNx5Hfn0GXEc8j8sJWOPsPgK/XKGTv3o28o0erLsaor0+FZLtJk+rt7NVq1Ii9sZeK5Rb2XjSn2srBl1+qKyZIihaS2BDx1aswsLam/6cVEa+DyjuvyftIuHOIOqpVSik8Q0bTfGoza1d+jVJSos7g2sGvqZAdMuh/0CsjZDc1pAhl5DPPwGPRIlj07Uv7qHP4lVeo6GxgUbfCvUmrVkHP0BBuL73E97R/0n79lUapkCKT9XH0MxgMBqNlYYI1g8FgMBiMpqLNC9bEybp68h2dkFkGreoOTlx7HsfU4zClyysIMTODUVmtTp0LiSYfMTFvY0eaEyYN+Aa9KgiLROib/3Mg32LUBlL0MvxYHi5tz6QZyT1LMpLrUWxQKdMg6jQp1JiL9AgpiailSDJewqe3rsPCcz1e97fA9QsTcNDwf3im2zNwMNBHVuRIrIz3w9wRa9FFEIZ/T8zFXbdteDPAH2Ula5JfPf/nAGTEyJF4XYyEa0VI5f4fkbmAitMlIjWJPKkLGfek2PZGDB7/xOe+Q7wuqOUq3F57HMknI9H5mWHwGteZX1Iz4iwlLv+ZRS8eOAWaoO8Mh3pFn7RHNCo1xPE5yCeidIVID1MXK504XSZzWmhjxv9leU6fPo2oqCjMnj0bQqGQ7215rvy3EipFEUwsnZGbGoahM1dBX6Db44lgLIuOhpR73ercXJp1bWBpCZG/P0wCAuh8fUmLuUhzqouLNQgdsgAu/tVnR2vlcuomJuJ14eXLVNi1HDAAxQEuSC26g9SY87B29KcitEvAYAgMHvz+kZ8hUsQx5urf6Db6ZbgHD+eXNC9Zu3cj+59/ELhmDfSNdXFA0QsXwnr0aNhNmEDbtYEUIwzj9icifpv36MH3tn/IfkiLMHJ4L19e7+xvBoPBYLQMTLBmMBgMBoPRVLR5wZpkKf/w+F2+pUOrOIW/LryJMNE8TOv8FHxFQpRIHmr5ZVxKy4Kv+3g4Ei1H9jt+Prsewi7/4gmH8sKeoVAP/WY5QmCgR53C+uSxZDLUgz43lbRL5/UrtMvMc48dxeFKLiREnsrHxW2ZkBWq0XOyPbo9Ylsum7ourJsfjsIMFd/inr+Y5FhzH6DmFg6cewGxrt/jf95dYcZnaKu1ahjoG0DN7Qt7zr+LVJ+deN7DuVxhTYKhSB/g9mi3UFMa8UHEXTvP+ouQRKQneeq+/SwweL4z31t7ciPScPWL/TCyEKHnW+NoNnJtyEtW4NLOTIQfz4cn9z6Io9oluPkzlFsLlUV6FCXlQs9AAAsvO50wXc9ID61Wi127dsHQ0BATJ05sFd/pzITruPjPcnQd+RJuHP0Ow2evhnkT5ziTKI47J35GXkY0AvvNhG/3CdAX1O3ijrwgFwl71lOXrVGKFHoiY1hwP0r2o8fDNCQEevoPXuhSKaS4un8l/f/7Tny/nJO7uSFCMykgaNGnD5zmzaN92f/+i9yDBxHw/fe0XRuKbt9G/PLlCNm6ldtHy98J0t4huefElU6iYpyffJLvZTAYDEZbgAnWDAaDwWAwmoo2L1gTF+73U8oI1ppoHL4wF5dEL+KJ0JlwMyqfbazO+xDfXDoN6y478ZSzOQpSXsPquzkYMnADhpqWFwqIwOzZwxxatRYaVTF1D5NH4uYumSePpW0tnddWExmrp889LxGxeTGbCt90Xr/MvG4qK3SXrqsTxMstrzhPHvk2Xf/+PL8OfZ7S+fLL+NfRSBnHZHeJPluIi9syUJipQo+Jdug+wRZC89qLMiSH+cdp5S9KACpkxr+AtRGXUGgyGbN6LEJXM5P7kS+AFKkxL+OX6MsoMpmFZ/q/Df9KtLSuj9hg2DOu9L03BsfXpCD5jgSzvvGv03NqNVpEbr2A6J2XETCtDwJn9IWeoGZXemasjLrZ750rgN9AS/SZ5gAHn/rlD7dFyP5FIj3KxnmQR1l25ZEeZq7WtdquNSGVSrFp0yZ07doVffk4iJZCo1bh2Ibn4RY4lBYl9O/9OHx7TOKXNj5ySR51NyfePQKvzmMRNGAOjEV1c2jnpUUi7tZ/SIk8RaM+qJvaZwBkt8N0zuuLF6lj2aJ/fxobYtq5M3XfFuUl48Lu5TA2tUKfR5bA2KRhxUwbA0l4OGIXL4b/Dz9A6OZGBdjw2bPht2oVRL61E9NJ9rW6sBAeb73F93Qs7hdhfPVVWA0dyvcyGAwGo7XDBGsGg8FgMBhNRZsXrMnL+Wl6GBU1CbLsN/HR5cOQ01YJbhjQ/Wc87OgKoV4+kmMW47eYSBiKhJDKDeAX8A1mevrCiF+7LFYuRrBxM4aNh1D36E4mIYRm1TuFiXhNRWwiYJeI3WSePJYVuu/P8+uTdqXLdY8lonjJuvfnuanc/3N/Xve8lS/jPsqqPk09QCDQq4UozjvPK11Wfr4gQ4mUu1LICtQ0KsOzpxlE5gbl1+XX183rxPOsOBkOfp3Mv7BSNGox9/mF48Kd13CqeCqe7PEivI1LVWmlIhcK5TkcufkRrguX4vUej8CqglbZaaQVxr3ROE7UhOti/PNhPGZ9618nl3ZRah51VSsL5ej51kOwCarZmZ0aLqHudZK1HTzcigrV1q66SIL2Co30SMjRidMlzum4LKhldYv0aCxSU1Oxc+dOTJo0CZ6ennxv8xN+bhNSo8/A3MYdKoUEA6Z83CSubyKMx1z7G1EXt8PGtRNChz4Nizq4uNUqOZLDj1OhWpybBLeAIVSotnZ+MHZJq1Kh6Pp1nXh94QLN2S7u5484vTvwCBmFziOeK1d4saVJ+uYbqDIy4PPpp7RNCjKSnG7X556j7ZoI/9//4PL00zTXu6OSf/o0kr7+Gn7cxIowMhgMRtuACdYtQ1qEFIk3i6CQaKjJyNzeEP4DLGFi1bHu0mIwGAxG+6ZdFF3ctSSWCnd1Qa1KRLpEATMzf1T12x40zBIBg62Qm6xAbiI3JcuRm6SAUqqFyFJAhWtbd2NYExHbTUjFbAsHwzYV+0GiO8qL4jo3eW1Ecd2yKoT5svPksaSt0qIoR4W8FCWU3CBLZG0AE0vuA+D2qvLrlgrzamVZYV3LDc4u4U6eBPb2Q+FhbEAvUnx6PRoje63HUGtzFOb8hevynujv6kMvQuTFPoyv47pg9uBPEVThqoRffwtMeM+Lb9UfcsFkw/NR6DnZDj0fK1/IsTri99/C7V9Owm1YEM2rrimaIuGaGBe3ZyI9UorQsTbo/bg9N0it7FJL24ZEeujc0rxzmnsUk0gPgX6DIz0akxs3buDcuXOYM2cOLOpYZK8xII7jYxtehF+vKYi7sRcjnvgRInM7fmnjQZzQd0//BoGBMRWqHb178UtqpjA7HnE3/0NS+FEITW3h3XU83DuNgpGwdhcUitVq3Pl3NWLjjsE+1giWmQbUeU0iJMy7d28VERrEHR359NNwef55WA8bBvGVK0j84gtafFHfsPp9UxodjZi33kLItm3Qb0WZ6C1B2m+/UeHaf/VqVoSRwWAw2gBMsG5eIk7mI+xoHgrSlHxPKeQ6vntXMxrBSM5RGQwGg8Fo67QLwfryzkyc/j2dbzUejy71pFerKyLJVelE7CQy6URs0hZnqWBgrEedrjo3ts6VrRO0jWFg1PAogvZEyl3iEs5A0k0JQsZYo89UB1g4Pii+xl8T46+lcXxLg7ykeVgZbY6x3T/BQCsBEsOn49fckZjdcyFCRPpICn8YP6YPxcwBS9DFMBN3bs3EZsk8vN7/CdhX+AgcOhdj4HMWsLKyooKjoJ5Fv/Z9nghpvooWWqzNBQtFgRTXvzmE3PA0dH91DJz7VR0dQL5y984X0ugPklXdlRuIkkzw9uKikKTllwrTzRTp0Zjs378fubm5mD59OgyaWTw9s/MdGIsskBF/Fd1GL6SxII1JXnoUbp/4GUW5yTT6w6vLQ7VyNhM3NnF9x93cR5/DxW8AvLqOh717F36N2kFc2dcOrkJOyh30fXQprB0DaN4zdV6fO0ed2CTzmsSGmPXoUaM43JSQ3Or0DRsQ+MsvVHiOmDcPzs8+S19bdaSvXw95QgK83n+f7+m40CKMy5ZxO5AG3itW0BgYBoPBYLRemGDdPBRri+m5bsyFQr6nasi56PBnXeDWuWnvNGQwGAwGo6lpF4K1tECNX+aGUzduY2Fma4gFfwTVKctZJdciL0WBnEQ5FbDzeCGb9JHXRtzXJSK2LlpEJ2pTh3EHJiNaigvbMhF3WYygYVa0YGDZeIv8NAV+eyqSb3Fo7uH09RdwoMAIloJCFOj1wIjO72KQtQO4MRqgPI9jN5fhSKExrAQF3PK+eKjHCgwyf9BtYN45G/CLgVgspm0zMzNYWlpWOpmamlYqRhO3w5HvkjHvp4BauZ3TL8VSsdrK35GK1ULryosjEvc7ee7LOzIhyVej5yQ7dHvUDsambVPE0ao0KEzI1onTFSM9nPlIjxJxuhkiPRoLlUqFrVu3wtnZGaNHj+Z7m56ksGO4dWItzK3duGOII3qNX8QvaTgycTbunvkdqVGn4dNtAgL6zqiVI1qSn0ZFapJvbWAkhFfnh+ARyu3jprUrHloWSUEGLu5ZDoHACH0mLIXIzJZfooOIm5K7d1Fw+jQt2qiVy2HRt6/Oec2dPOsbNe+dB+SnMebNNyHy96dRIESIlsXEwHv5cn6Nyol89lk4TJ0K61Gj+J6OTUkRRosBA+CyYAHfy2AwGIzWCBOsm4fzmzMQcSKfb9WMgZEexr7hDltvQwj0OvZ5JoPBYDDaLu1CsCaQYnfX9+TwrYYz/DkXdJ/QOLfWk6viJL9Z58jWidjUmc09ygs1EJoLYE1EbF7ItnUXUle2paNRoxU/bAtkx8up4zr6bAH8B1qi7wxH2HkJqRD04/QwKPicch1aKOXxyJADFmYesHzA2aqGtCgCGRo7uFg6oap05wlLPeE3wBIajQaFhYUoKCi4P5F2fn4+nVcoFNQ9S1zYZUVso2JznPxMgSFPO6HL2OqjQNRyFe6sO4mko2EIXTAU3g935ZeUR63S4u7hPFz5M4tGqPScYo8u42xhKGw7Dv1qIz08be/HeVBx2tsOBqK2HWuSl5eHzZs3Y/jw4QgJCeF7mw6lXIwjvz8De/euyE0Nw/Anfqx1xEZ1EEdz9OWduHflLzh49UDI4KdgZu3CL60crVaD9JgLNPYjO+kmjQvx6vIw99gTeqTKbD3ISryJy3s/hZNvX3Qd+RIEBtU7p8kxQhqmK9hIJo1EAvPeval4bcE9NlfUBi0e+MortOAi+T+JGB28fj0MbcuL7SUokpMR+dxz6LR1K4vAKIM8Pp4WYXR9+WUascJgMBiM1gkTrJsecs74z/IEbsCViquXl+Hf5DzYer2Cud0Hl9bmKc7F3YuvYZ/BQjw3nTt/9L8GPacsmNrpQaBnCAeRH4KshsHDrCv09djdSwwGg8FoG7QbwZq4mze8EIWC9AczveqKW6gppn7mAz39pheLSQHCsgJ2iahNBG5S9JAWfeSd2PSRitrCNiVe1hUSe3FxRyZ1Eth7C2nhxdQwKb+0cXniR3/YeYn4VtUQwZoI10TALhWyC5HyrwM0enIUd74FoVBIo0XKCtolkyZdiqtf7oehiTF6vTUeZm4POk7JPnzrvxxc+SuLxsf0nmqPkFHW3Ptv3Z91lZEeFiLqlC6J8yAitXkrjPRoLGJiYrBv3z7MmDEDDg4OfG/TcP3wau4YcQ+FOQnoP3k57D0qv/hRW8hhPSnsKMLO/AFjEyuEDiNiePXxHcSFHX97PxJuH0Qx988zdCy8Oo+DiUXD3nvMtd24e/p3hAx5Cr7dJ/C9tYeK15GR98VrNfe9Ne/ZUyde9+0Lgajm73tDSP35Z0jCw2nxQJJNTf5P4qAmr0vDHTuKVSoqZgvMzJC5cyeKrl1DSbFGRinks0v86iv4cZPIx4fvZTAYDEZrorEFa2LyyYyVUZMKOQ8ztTHgzn06dh7z2Y3piDpVAFXuGnx9Ihq9u/vg5LGdCJl4ENPsiCVHi8LEpVh26C8oh47Hex/aoWSkQ+4YJudRJZgYWGOI81NwNnmw4DWDwWAwGK2NdiNYE8gA58/FsbQAXn2xdDLCtJU+MLdrWccncdkS4ZZMJa5sEjVC4kXUimI6ACmNFSFCtk7QJv1tGTJQTbolQdixPESfzuf2OD2olVrYeRojK07Br9U4mNsZwm+gJc15qw/X92Tj0o5MKnqr9eT3ndnlpvx8GN6RwioekPsbwbCfA6xsrKlTu0TcFhqYIeKQBNf+yaYD8z7THBA4xKrVueurjPSQKmHqoov00AnTOpFaZNvxsvPOnDmDyMhIzJ49m17AaApyUsNwZsdimFg4wsmnDzoPe5pfUj+yk+/gzomfISvKQadB8+ARMqpKZzQ5/GfGX0Xcrf+QEXsJdm6d4dX1YTj79a9VtnV1kNzrm0e+Qzr3vL0feafBInwJ0qio++K1KicH5j16wHLwYJp9LTAx4ddqPDRSKXVWO86aRQtGZmzZApG3Ny2uqJVI+LUAQzs7aORyWA4cCLeXXmJ5zZVAYlXyjh/XFWFsgaKmDAaDwaiexhKsiYEnkhv3R54qgDRPzffqsPUwRtBwK/j0sehw9YCImWXbm/fouR9Fk4QL51/F5tQueG7CewgR6kMrPYp1hz6HxDsLcWYD8O4y1/uCtZFIAJFl+fEFcVwPd3ke7mad+R4Gg8FgMFon7UqwJmTGyLBraSw38Km7aE1iOR7/2LtWOcQtBdn8pLhjqRu7tOgjGeAZifTvi9jWvIhNXNlWLsYQGLTeeBESB0JE6ojj+dzgTIOAwVYIHmEF1xBTFOWocWVXFm78m41iLf8HDUWf+z8mqxG7V4in1wdDZFG3fDey3Te9HI1Hl3jBu1flt/IT5zFxVctzJfB/ZiCKHY3Lidl5GRLk37SANtEFemZSmHXJhn2wHqysSp3ZJcUgm7uYX0eL9GgsyPdz165dtHjnpEmTalWAsy6Q+I0TmxZy32Uh1CoZhs1eXWNcRlWQvOm7p39Detxl+PWYjIA+07gTwcrdxwppARLuHKKOapWiCB6dRsO760Mws3bj12gYxK198d+PoNWo0HfC+zC1dOSXNC4kU7pEvFZmZMCse3ed85r7IWzMSA4isiZ/+y2dL1bWfNePob09XJ57Dpb9+/M9DALJKY//4APqSvf+6CMm6jMYDEYrozEE69QwCY6tSYVKVv0g39LZCKNfdqOGk45CbrIc/3yYwLc4NKm4G/U7/r58HB6j/sITTkpcufgYdngGYqzmCv7O74FXPvCBg0g3/iR3aZrZPngOYaBnjIle78HCqGnGWwwGg8FgNAbtTrAmkKv0R39MQdTpAr6nZrpPtMOgeU5tOmpDIdHw4rUcuYk6EZu0SdFCgpVziRubF7S5ieRlt1QRv6IcFY39CD+WhxzudXr3NkfwcGv49DWHQSUxGFlxMmx59R40qobvgt2mixCvOY2iE0EI7G+Psc/780tqhhTQ3Pr6PTgFiDDqpcoFu4RDd3B77XG4DApA52eHw9CkVNAtzFTi8p9ZuHsoF87BJug60RLmnqpyYnbJRIpBkq8cKfhYImJXnEihyIYIoyzSo3GRyWTYtGkTQkND0b+RBcioyzsRe+0fmmE9dNY3sLT35pfUHpVCisiLWxF7fQ+c/QYgZPD8KmM8spNv0yKKqdHnYO3oD6+u4+EaMBgCg8a7QJGbGo6Lez6ibu3uY1/lvvvNc+svyUnOJwUbz5yBIjUVZl27UvHacsCABrl5VdnZiF++HLJ79/ie2mM9ejTcFi6EXjNfoGrNaLgBSjQpwsgNVlyebtjdBAwGg8FoXBoqWKdFSHF4dXKtx/bkTsRH3vGEiVXH+J0kRqx9nyXSeUXWOmyJssX4Pt1w9e+HcDrwP3wUIsff5/6H09lKqPLlkGv1YeJmjy7T+2DSo9YwMdBCfvUG1q9JQoGFC8Z+0A8DvXXnfcFWI9DPcSadZzAYDAajNdIuBesSMu5JcePfHNw7X1ihYJ8OE2sDBA21QtdHbGHtUlVZvrYPEVgL0hRUFCYCdh4RtPl5pUxLt0OJiF2SkU3mze0NG90hqpRpaFHF8GP5SLpVBKdAE3QaYY2AIZYQmdc8+Ey+XYRdS+MaJFr7DbDAo0s8aaHFA5uuIGqXIXweK4K53AdZMdx2SpBDpSiGgaEebDyM4RRgQgszuncxpdvj7IZ0etvi3O8CHrjAoSyU4fq3h5F9JxndXxkNlwGlQji5kHBpRxYV6b16mKHPDAe4BJnySytHq9XSzOyyBSDLTnK5nLp5KxaDLDsZG+v2bRrpkZhTGufBO6dZpEfjk5aWhp07d2LChAnw8vLiexuGtDADR35/lrqg/Xo9hoDeU/kltaNYq0H87QMIP7cRplbO6Dz0Wdi4BPFLS1EpJEi8ewTxt/6jzme34OHw7vpwvcTxmiCv59bxNQjqNxsBfer2fhoTeWLifec1mTfr3FknXg8cCAMrK36tmiFidczbb0PJff71xWLAAHguXsxE6zLIExJw77XX4LpwIayHD+d7GQwGg9HSNESwJvGHOxfVPcrRNdQUY15pnDu8WjvEdPT3+/F0nkR/rN/7Ms4UFUPf9FEsGP8xejsVQTzpJ+4MXYIz83ZhV5E/5i1Q4+9vJXh08xj0s87Dv7MOIOGp0Rh46Rh2mozE55+7gFgDDPVFmO77BffYfs+BGQwGg9G2adeCdQnkJZNijESgJUKngbE+7LyEHeqWsqooylXxbuzSaBHyWJSt4raTHqxdSwVsW+LKdtNNlTmgq0KrKUbCNTHCjuUj5kIBzdkOHmGN4OFW1PVdF5RSDTa8GAVJrrpeojXJcdNwA+SZX/vD1kPIC+CxXB+/QjWQDL2QMdY4+0cGpn3hC+fA8vm3GVficG3VISr69nhtDIQ2OsGXuCMubc/EvfMF8B9oiT7THWDv3TiF35RK5f1CkETAvj+fmQt5ihiGBVqIZPoQFulDv1AN6OvB2MkcZp42sPF3hmOIO6x8HFikRxNw8+ZNnD17FnPmzKEXFBrK+b8/QGFOPEzMHTBo2meoKme6MjLjr+H2yV+gVkoRMvhJuAUN5ZeUkpceRd3UKZGnYGbtCq8u4+EePLzKmJCGoNWoqVCdEnkSvcYvgqN3b35Jy6NISbkvXsvi4mDaqZNOvOYmQxsbfq0HIXnV915/vXpndbESYelZUFg5o7uo6s/P7rHH4LJgAd9iEArOnUPiF1/A78svIfL15XsZDAaD0ZI0RLCOOlOAs+vTAU0Krl3/FAeS0mBoNx0z+02Dm6EYERdewa5Mvui6wAfDhyzHAGJu0QOmrPCGhWP7H7uSc6id78SWyfVWQ6aQw8jYDMQnrQg5D3n347pFHFrun/jkaXz5NTBz01B0d1Qi6vP/8EeMFRy5cwOLNx7BMw/r/pYwzPkZeFu0njEYg8FgMBhl6RCCNaPuECc0Lfh4PyubzMuRn6KEhhs8WXKDROLG1sWKlIraZbOg06OkCD+ej8iT+dBqi6mbnUR+OAfVr9AZKcj4z/J4KCRajH/bHSd/Sat17AsppjlwnhMubMmggrVKoYFPH0vcOZjHr1F77H2EmLnK775or1GocOfXU0g8fBch8wfDZ0J32p9yV4KL2zOReKMInUZYofc0hyZx8kvSC8rFeRDXtCxLTCM9zLxsYORshmIbI6gt9VFkoEShWCduky8+cYyTSJGSApAVJ5MmKErXkThw4ACys7MxY8aMBuWQp0afxdX9X3JHYH2MnPcjLbhYG8S5Sbhz8hdaWJFkVPv1fKxcnIdaJUdyxAnE3/wPhbmJNO7Du8vDlTqvGwuFNB+X/v0EClkB+k18n4rjrRVlejryS8Tre/dgEhR0X7w2srPj19JBiitmbNrEtypDi9SEi5gWpsK0/gPwkpUBqrvk4PvFFzANCeFbDEL6hg3IO3YM/t9+CwPu+MRgMBiMlqUhgvWej+KRk6CALPVdLDmWg/FDxiLuzArk9jmEt/wskZ2wG7clcohT12BPzkQsnvw2AvghTMhoa1qkvCNAiryTO4YrQ9brMJRBl/mWFoUXr2LtB/Gwe3Uc5o41h7WlBAfm7cUZz0AExEUisvtovL/E6X5Rxj4O0xFiPYpvMRgMBoPRumCCNaNOkCv9BRlK5N13Y8tp1Ahpk1v6jE31YWQioE5oEjdCMppDRlij0yhrWvijIZz6LQ1Rp/Ix61t/mFjqxD8iqt/Yl4PE62LkJOqyukswFOnDvbMpOo+zgXdvC+gL9Gi++Z9LY6kAr1HWf1cmeduPLvVEUWI2rqz8j3tvAvRaNB7mHraIvyqmQnVGtBSdx9qg1+P2MLdruAuk2kgPZxLpocuZ1hVDtIfIrvoicmq1+r4zu7KJuLcNDQ3vx42UFIAsEbfJPFnOqBqVSoVt27bB0dERY8aM4XvrhkopxZHfnqbu6K4jX4RHSM0nFkqZGBHnN9EiiW5Bw9Fp0DwITUvdwYXZCYi79R+Swo5y/dbUTU2e10hY/T7TUPIz7uHiP8th6eCLng+9BUPjtnNBRJnJfd/OnkXB6dOQRkbCJCDgvngtMDVF2Ny5KFaUPwaVRS2JxQsXYnBTZYwn+g3E81aCagVr086d4fv553yLQaBFGD/8EFpuO/t8/DErwshgMBgtTH0Fa3LOsPW1MnckcUNyrewg1v71AYqHHMALHvxFScVprN25DOaj92KWY+mYwcrVCJM/aPyostaINF+Nne/EQFtisi6DrOcRKIMv0Xl52A18/1oUrF8cjRmjLWBhZQgzvUR8PvgCvLZMxYgb/2DxlgB88m8XOPIeCiZYMxgMBqM1wwRrRoMhg86o0/m4cyiPuqqtXYzobXpkT8lPVaAwUwWBgR6suH5S5JG4skszs4W1KnR590gujv2Uiplf+dE4l8pIDZdg+6IYzPnWH4k3i3BjbzbUimL0mmKPLg/Z3v9/jq1JwY09lTsV6oKbrwbCxFPwndQDQXP6I/aSBJd2ZCIvRYFuj9qhxyS7+8J6XVGK5fcFaTrFZEKclAs9fT1YeNnxonSpON0UkR6keGBlQjaZiNBNDgXEgV3WkV0yEVG7ocUg2wskpmXz5s0YMmQIOnfuTPu0xRrEia8gnpsypNHIV6Zz21MDI4EJ7EU+cBYFIth6OK3eTqIzSKa0g2d39Hl0Cf37qiBRG7E39iLywhaaOR067BlYOejiE7QaFVKiztDYj7z0SDj79aduanuPrnR5U5MUfhw3Dq+mLu+gAXPa9L5BsqqpeH3mDCTh4TQqhPRViVaM385fwmVHH6jjk+Hfoz/etKneYU3w/+EHiLw7xgl5bdFIJIh+9VVY9OoFl2ef5XsZDAaD0RLUV7AWZynx57txfIv7mZSewvYDr+Kyxft4Z/gk2NPrkRpkh8/Ee5GTsGLCLNiV+dEk9Xemr+w48VCk/s+ZP9L5Vin3I0G0Ulx+/S9suaHll1hj5sHJGO0mx/Vle/HjPzLoqfTR6YMJeGmGJUrOTlgkCIPBYDBaM0ywZtQLEqsRd1mM8ON5iL0opk6Hklzqim5itVJLRdz70SJJcurOJn1EUCbFHe8L2ETQ5ufNbHTu3dQwCTeojcXD73jCt2/VWcBJt4uw79NEPLelE22TCJHIU/nU7Uyy33pMtoejrxB/8cVLuNEdFJK7iJcUQmTWDa4iUwgq09C06UjNTYHQqidsKujPw+aaQuhgQ4Vq4t4mIjURq41Na+/8qzrSQ1gqSvPOaXM3G+gJahb4mxpSDFIsFlcqZpOJiN36+vrVFoMUCiu/8NAeiY2NpSdz06ZNQ7bRLVzI2IpCVQa/tCr04GncBcXHbsEE5hj1v59hJKp6/0+LuYA7J3/l5rQIGfIUXPwG0H5Jfhp1UyfePQyBgRBeXcbBM3QsdVY3B6TY493Tv9PX0HPcG3DxH8gvaR+ocnN1hRZTUvieimgQFnEGbxV54btQY3x0KgxBvYbUSrB2mjcPDtOn8y1GCaQwJi3C+OKLsB4xgu9lMBgMRkU0GUfw+ZdheOiDl9G9+jrf99GKI3Bg8w4cu5MGhYk7uo+bhRnDvGBSyY9WfQVr4hre/laMrqG8ib/3zcMJs8V4a/AEOBqZgN6UWZyBU/+MxEG//VgR6l7uN9PCwRBTPvbhWx0Dck5zfnMGN67iOzi0pvl80cXS03N9Az2Yktgx7lFHMVQFUkgFIlialW5FVnSRwWAwGK0dJlgz6gQRj8OO5SHqVAEEhnoIGq7LpXbwrXthNrIriTNVNFKE5GPTmBE6r6ADWRIvQpzapM+9iyl1Sdt4GNNCjSTeoyL3zhXgzPp0/G9tIN+jg/w/984X4uK2TGTFyviBnhRJ0Qvwa6IcZkI9FEny4eK9AtN9+sOy3HPLkZXwIr4Jy8XwwTsxyqy8Yq0nAHVR937cHp3Hlbq4K6OxIz1aMyQKo6QAJHksK2aTPhJHYmxsXKmQTSYidAva2e3+J84dxi31FqitahKqy6On5g7UZpPRP+Bpvqc8BZmxtKBiQeY9BPabCZ9uj9KCjGkxFxF3ax+yE2/CwasXvLuOh6N3rzoVa2woSrkYl/d9RkVzkldtYefFL2k/kJiKu1OnQiuT8T3lkebewRM3JZjdpxcmGmXgyeNh6NRrWK0Ea4sBA+C1dCnfYpSl4Px5JK5cCV9uMvH353sZDAaDcZ+im1g1aRBeP9ELOzKOY6ot318NyriNmDf0CWxL90CfoZ1gmnUVx2/mIPiFf3Bs9SNwqjA0q69gTSIGt715D4oiNfKi52PRyYvQ8Mvc+x/B+yFuEKiu4Pdtz0Mx4hiecy0/JibnBaMWuvGtqhFnq+hdoKT4vlpZDCMTfbh2MoVPH/MGRxW2BCQKkZiFYi5yY2mF7pRcMmwH1G73qEBtLBLQSMTaDPWCrUagn+NMvsVgMBgMRuuDCdaMGiFOaCJSRxzPp0Ky3wALdBphDY9uZjSioimQi9XIjJXj4FeJMDIVwNLJmIraBWlKkCQBS2edC7usMzuDFHk8kU9jQyqDxJVseZXPy1Mex7pTSxBrMBsLBz8Pk7T/4bOIXEzrvxPdTEWkADlFlf8Nfr32N+KVthgxaAfGVBCsCRPf94Rvv/IFwFpDpEdrRiKRlBOxy4rb5IBEqK4YpKlpLW1CrQSZugA7Y99Ftrz09te6MtzlOXS3m8C3uO+IJA/hZzcgMewovDqPQ9CA2dCqVYi/fQAJdw5SIdUzdAy8ujwEE4vmL0xEcrIv/PMhTC2d0fuRxU2ej91SEId1+Jw5fKsialy4dgzPZmhhTI+VxVBoi7njgBBTug/Eew7Vf++NPTwQuGYN32JUJH3jRuQdPgz/775jRRgZDAbjPloURezA4tnz8cM1OSAYVkvBOgf/TvXDhEMD8ev1v/CkD/cbpRXj8kfD0H9ZBp47G4nvB5QffzWk6OKlnZm4e6juxc8JI190pechVUHOGa7+lU0LoJd1JJdgbKaPgEFW6D7Btk0K1yq5lkYhKiQaiI3icEP0E/SNan+KbqBnjIle79HoOQaDwWAwWitMsGZUCom3iDiZj/Bjeci4J4NndzMa+eHX37JWmdMNhexmez5KoFEeUz/3gQE/mCRRJPlpynLRIiWubJVMS13fLsEmNFbE1kN4X9A2tzfCqV/TcGVXFn0eSrEGaujBAHIkRM/CupxH8WSPJ+BpbAj6v6kv49iVDxDrOB2F0dsQOmBPpYJ14CBTdB+mbVORHq0ZjUZTbTFIhUIBAwODSotBljy2pmKQJK96e8ybSJNG8j315xGPd+Br1hcxV/9G1KUdsHENQeiQpyArykb8zf+QHnsRtm6dqZva2bc/9AUP7q/NQWr0OVw98CW8u4xHyOD50NNvu255jVoJlUICtVLCPUrpvK6tmyfFGNXf/cOv/SAkO5w7NOlQZ+G1s/dgFdILKxxFvIhdNUbOzgj6lcS8MCqD/E7QIoxSKXw+/ZQVYWQwGAwOyYU30KP/14gLnoW3BlzAJ3941E6wlt7AR+MmYFPA77i4biRKLgOqY75BL7/XIPgxHpee90TZI21DBOvCTCV2LY0j13LrhJmdAR7/xKfKWhipERIc+yGViro14eAnwuiXXWEkatu/H5H5p3AuYxM3V/PGFOgZYoTL83Az09VVYTAYDAajtcIEa8Z9SNZ0zPlChB3PQ8JVMey8RQgeYYWgoVYwtW5eAZBEexCxfPa3/jCxqp3oduynFOQmyuE3wJIK2DmJCuQly1GUo74vslccvKolW/H7pa8QoXBFny7fYpKzF4zp+LcQceFPYot0HhYE5WHT2c3oPGBfpYK1IYoQ5BxRTpgmU1uO9GjNyOXySoVsMhGhm+Rri0SiB1zZJZO5uTnN124uLmZsw9mMDXyrAloVsm/lI73IEG69LGElrEHAhBA+18xgDBEC+8+GtDAD8bf2Q6UogkenUVSoNrOu+RbZpoL8PESc34R7V/5Ct1EL4d6pZfOFaxKb77fJI79O6byuXVymLL+BkQiGRqYwMDaFIZ1MYKA1gvGv5/g1akCViv8dD0Pn3sPwmnXNkSBCHx8EfP8932JUhkYqxb1XXoFZz55wfe45vpfBYDA6LtJbP+Pr80F4an4/FH7TA0Hv2tc6EuRBtMj5dyb8JvyHof8kYPcEG75fR0MEa8LFbRkIO5rPt2oBN0wa/qwLvHpWPsYmzur/Pk+qlVhdgnOwCca+6tZkd402F3GFl3EhcwvkGt2dipVhamCNIc4L4GQSwPcwGAwGg9F6YYJ1B4d8nEm3JFQcjj5TAGNzAc2kJsUTiUO5JSDZbEe+S8H0L33h4FP7bOyjP6SAGDmHP+fK9+hQSjVUwCaFG5XSCgNYrRQyZRaSkt7D+rgcjO69CYOsrKHIfBNrwvUxou8n6K63Bz+e2QSfvtsxzrwy4b4Ygz9QoWevHs0qhDIehOzP1RWDlEql9DMionVlYjaZiNjdWMjUhfg5fC40xSq+pwzSXOxfcA3npWaw0ZcgU2yGR9f0Qj9fwf1Imspwl/vAK8sNaffOwdLBF95dHoZr4BAIDFo2VkallOLq/i9RkHEPfSe+ByvHhuUKa1SKSkRkndCsE6AfXFZnsZlrl8wbGpvReQNS7Ilfp/y8qMr877A5c6DOzeVbjYeA2x+tR46EaVAQTIKDYWhbL7Wh3SNPSsK9V1+Fy/PPw2bUKL6XwWAwOjpKRK5smGCtyTyAhf0ewk/q53H81o8YZsUv4GmoYE3Gbad/T6eGmZogP8H9ZjlSI01VHPkumZ7XqMVHsOfCr7glMYZX0DuYERSIkrMarewsdhz7GQa9fsTjjrqIkxHPu8CzR9s3mmi0KsSJryAi/yRyFYl0/EniPxxEvgi2Gg53sy7NWsuEwWAwGIyGwATrDkp2ghzhR/No5rNKpoH/ICt0GmEF11DTKm+xaw7SIqXYuTgGD73lAf8Bdcsk3fdZAo0CGTDHie8pz3dT7tDYEIJWnYh7GdehNB3MDeBsIFBdwIaTr6I4cBOmujoi8vJobMrlBnn6RDxUQ6XVcHu/HQb12YPJNg/mJ5tPvAyhiRHGjBkDR0eWB9daIcUgiXBdWTFIMpFikEZGRpUK2WQikSMkjqS2XMrciTPpv/Ot8kj2nsPy92Xos2kYpgQpcfqxkzjTrzdeXWQLUTXnEnrcrjg4dzT8O0+EpUPrqJBflJeCi/8sh5HIAn0eXQIDQ1H9xWY5eawoNlclIpfOV7esOrG5MYhfvhyFFy7wrcbDcvBg6HH7ozQiAsqUFCpYmxDxmhewRf7+0G9F8TctSeHFi0j47DP4fv45TAKYc4zBYLQP6jImf/AUrWGCtSbjIBaPfxRf3u2BD04exHt9LR+4M4iMeUNDQ/HHH3/wPaXY2dnV2gQQxp2T3D2Sh6LsSi7wc9j7CNF9gh1cQ6quYUIKLO5aEsuNH4oQfmo81siexlPet/HHuXRMnfYH+ptwr744BzdPT8a3UTL0HncMz7vpRGrish73ujudb08UF2uZQM1gMBiMVg+pcZZbiQFswoQJVMNhgnUHoChXRQsnEjd1TqIc3r0tQCI/fPpa3M+IbknE2UpsfuUeuj9qi74z6i767loaC+9e5ugxyZ7v0SHh3nduigK7l8Xfv0VQK9uF709/A4fQjRjv5AHD/K+w6uoldO7yLcY6uEBfkwe5ht/VFZvxy4UDCOq7FSPNLWBUyaZ66e8gXLh4AdevX0fXrl0xcODAVpWjzKgdxIFdUgCSCNgVi0GSwx8pBlmZmE0mUgyy7MnlxqiXkCWP5VsPolVx+yP57knysG/GFcRP64dn55jDqIbz04c9FiPQagjfalyqdjYXcROJz+DmedGZzEsK0lGYk8AdQ4y5924AtYqIzSW1/hsqNptx80RsbrmLaLUh//RpJH76Kd9qJAQCBK9fD0Mb3e3XarGYCtf3p8hIFCuVEHp73xexTYODYeRU+QW7jkDG5s3IPXBAV4TRqmoHHoPBYLQVWkqwloT9iqcfXoCtecPx8f5dWNzfutIYK3t7ezo+IuJ0RdauXYvx48fzrZohrz/5tgTxV8WQizXQF+jB1MYA/gMta3XX57XdWbi5r/RkVwsNCuPewLKzwFNTv0EXYw0KEpbgs6sS2MmvwWTIgfuCNbm1bcpH3rCooRgyg8FgMBiMxmfTpk145513+FYpmZmZ8PPzw927d/me6mGCdRtDKdMg+mwhjdlIulkEpwATdBppjYDBlhBZtExBtsogQvL2t2JogcTxizz43tpD/n7Lq9Fw62IGUysDGgGSl6KbSAyIyEIAjbq4TCSIDOlxr2HdvUgIhEJI5Qbw9lmGiZ49YGtQYUgu/Q5fnvkXPQb+hxGmD24zWw9jzFsTSOfJF+rw4cNU+Bw5ciR8fFqHA5bRcEgxyOriRki2tkAguF/40czCBLftvuOOmhViaMqhRfpvF/Hzj/kQu7rjf+tCEGJf88lpT7vHMNRlAd8qRa2SPyAol8xXJjZXtqxUbNajYnFlgjJtc1NBZgyyEm/Q/GxnvwFcv24dGrtB4jfagNjcGBSr1QifPx/qnBy+p+FYDRsGj0WL+NaDkJ9iRVISpOHhVMCWcJMiMREGlpYwCQwsdWJz8/rcMa4jQLZJwooV0BQVweeTT6BXh7shGAwGo/1RH8Fag5yTyzHh4eU47zwP6/etwdyAqn9DGhoJ0pgcX5OC+Ksl+c0aFCR9jq+PHoDDwC141t8N+tKjWLdnJQx7vQjNpY8h7r0VL/j58LVrQIsvunU20zUYDAaDwWC0OCwSpB2i1XAn7deLqJP63vkCmNkYInikLpfaytmYX6v1QHapvZ8kQpylxLSVvjCozMLMUawtRmGm6v/s3QVgk2f3NvCraeru7gYUd6cwhrvrGIy5+96NuTvbmGNjOGP4YLi7S6m7u6Xx5M399GZtoS2VFCrn9335N895QldJ+6ZXTs4pD6N1b29dv/USQisnI7gGm8HO0xR2HsbCiBB7DxOYWolxZGkaLvydI9zuFo06C1nFmdCY+MPZzAL1iTfYEwAjXi5/GSFb+sc6rU+cOCEE1oMHDxY6b0nLJpfLKwXYGSUxiLKvZtliBepiOUrzC3D4lcs4ax2Mp3/0heutv56qYVtqi+BkbyhlJWDjM4TAWRijUR42l89o5iFyxes8UK7pXE1hMwvGL+1djJzka+g57i04uLfjZ1ovfXZZi8zMEPzzzzB2duaV2mELCEujov4LsVkXNgtvTX18ygNs3cXE07PFPpEgLGF88UVYdu4Mjyef5FVCCGmN6h5Yl1z4CEP7vo0rXRbhnx3vYbCTIT9TtaYUWO/7PkXo0GakWd/h810b4NB7BeYH+sLcyATKnB/xzb51yNQoIJEWQWM1GS9P/BjteFP14Cfd4dsC5lgTQgghLQUF1i1IZnQpbh4sQMSRAmg0WoQMtAUb+eHepmmHpSf/zMD1vfmY/V0gLOyNIC1WCWF0pVBadylIV0Ct1AqhtJ2HSVkYrbvcur762ShMeNev2vl2aRESrH8plh/pz9i3vRHU586Xn7NREgcOHEBaWhoGDhwozPhrDd2mpEyaJALrY1/iR7fTQhqdgfNXjNBxgiNsxLo/rg6ewcfvajF+Y0/0cKv6SZtb7DUuGGQw5bawmS8N1F1nM6Qb675WWpSJM9s+hIHIEL3GvQ0zqztfBtxaJX3xBQoOH+ZH9ef54ouwf/BBftQwct3vHyG85iG2ND4ehubmMAsJKVvmyLuwDS1bTleZPCUF0WwJ4+OP6+3rSAghzU/NgbXs5u94+b0jsFv4DT540Bki2TV80LMj3r0WgDkfvYA+dhUfi4jh3H8aJnW0rTQapCkF1qwxJe5Mse4hViZO/jMUS9NvzcNug1nT/8JQK96WoryCdZufQkH/CiNBdIa/5An3ttRgQgghhDQVFFg3c0WZCmHcx81DBSjMUCCgN5tLbQffblYwFDfdcFSt1AgB9PV/83Bpew58u1tBWqQWQmqZ7q2xuUgIooVAmgfTtiyYdjeBkemdYR67Wy4eew0P/RRc7Zw7dpuVj0Xq/hsKXtEDMykshl1Bz549hEC6qrnVkZGROHToEOzt7TF06FDhLWn5sqSxWB39LD+6nRa5K4/i6/X2GL80FL3cVYj+5ARWXPfEUysC4WlW88+ut2UXTPH/mB/dO6yj+uyOj+Hi3wOdhz6r+x1Dsx4r0iiVSPz4YxSfPcsrdef2yCNwmjyZH+mfRi5HaXR0pRBblZ8vdF2zRY63urBZV7aBqOYnTpoyYQnjp5+WLWEMKRvZRAghrUvNgXXx4QUIGLwCHt/H4dyzflBfew8dO76PKH7+du0+vYlLb7RBxf/lb0qBdczJQhxbkcGP6sbITITpXwbAyKT5/u8eIYQQ0tJQYN0MySVqRB0rQPjBAqSFS4SOYjaWIqi/DUzMa37p3r3GNnZX6pbmb4uyykJjdm9yDjCDV0eLSt3SFnZ1W1goL1Xjxyk38PjqtkKX9u3YQscjS9OFB7MaFS/qgWXfeCjtUiAWi4VRIF27dkXnzp1hYlJ59Aqbb3zs2DGEh4ejZ8+ewoXNOyYtV4kyF7/dnMuPqiAtxNFXL2LPDRFsTZUoFNvjwc86YECoEe52z+jiOB6D3R/nR/dG3KXtuH50GUIHzEdA1wm8Sm7HQuv0pUuRu2MHr9QOGwPi/sQT96UjWJGVVRZg8xBbGhsLAyMjmAUFCYscb4XYbD52c5K5di1yd+9G0Pffw8jOjlcJIYToS1MKrFkzzMbX4iArKV/8XFvsFam9Z9Z94TshhBBCGg8F1rWk0j0IijlRiOSrEmRGS1GSp2RNkjCzMYRLoDk8Qs2FERzGjRQYs4WB8eeKhJEfcWeKYOtuLHRSs7nUVk73t8tRUVrWGX37bOmCNIWwDNHcTlzeLc3fGluIsPPTRHQa5Yg+sxv+AJF1mi+dH4HntrWH2Ki8O4J93y5szsaZDVlC17lzoBlOrc6EtqY9eLUUMsgWo17zwrVr14R51SykZmMYJBKJEFqz8Nrc3JzfukxKSoqwlJHd7sEHH4SHhwc/Q5o7pUaGFMl1JJdc1V2uCB3WBrr/x7bUV08LWWoR0nMN4dTWEpa1fJ5mhNcraGc3hB81LrVKiSsHliA99jR6jvkfnLw78zOkJiVXriDjzz9RGh7OK9UQiWDTvz/c5s+HsUvT+GOZhe6y2FhhkeOtIFuZlQVjV9f/wmt2MfP3b9KLDdnDlcSPPoKqsBABn31GSxgJIUTP6hpYs8flklwVVAqN8IpJK0cjGIj094rQ87rH/Nf25PGj2jHQ/dkw4T3fJrnnhxBCCGnNKLC+C/ZsPXvwc3FrjjCyoibs5WQdR9oLAayxmX6Ca9ZBHX4wH1HHCiESG6BNmC3aDbETupLvJbbIsTBTUblbml3XXST5KohNDMq6o3mH9H/d0rqLiUXlr4VSzjogYmHjaozRb3jrZdZuVqwU61+OwXNbO/AKEHumCId/TYOhkQEGPOKG6OOFiDtdhOEve+HmAd3XVHdcX47BIsz8vN1/Lx1UKBQ4c+YMLl68CDc3N6hUKuTk5KBDhw7CA3krq/IZeezc2bNnce7cOYSGhmLAgAF3dGSTpk+pkSNdchNJkitCSJ1ZGgVTsRW8LDrCy7KTcAnPP4AzWev4v9APQwMjPNb2T5iJrXml8UhLcnF2x0e634Ny9Br/DixsXPkZUlusW5mNp5BGR0OemiqEwYZmZjD184N5cDBsdD//Rs1gTJAyL6+8C5tddJ8Pe4mMWWCgEF4L87DbtoWRQy22et1D/y1h7NgRHk8/zatlVMXFkLIllbrPhY1FYcR2djAPCoKZ7nsjrvB7mxBCyJ1qG1izsYURh9ky+CIoSsu7RizsxULDT/AAG5hZN/xJRfZ3255vUpAVI+WVu+s9yxltB9OrcAghhJCmhgLrGuSlyLDrsyRkx8l4pXZYEDvyNa96LzvMT5MLgSqbSy3JVyKon43QTe3dyRIiw8adS11aWLbw8PZuafZAk4XW1s5lCw+FQLpCMG3JOiRqGTzv+ixRmF897Qv9zYpLulyC3V8l4fHV7YSP+9CvaUi7IUGfOS7w62ElfB9ZB8fYt3xg42IsdKyzMPvKrtyyd1AH7l1FyHQ4jKnTJ8Hd3Z1XyxQWFgqjP+Li4hAUFITS0lIkJyejbdu2whgQuwovS8/NzcX+/ftRUFCAwYMHIzg4mJ8hTZFao0R6aQSSJWUd1Oy6kcisQkDdEQ6m3vzWZdhYkN9vzoMWemjp50LtHsRwrxf5UePJS4vAmR0fwsEjFF2HvwSxUdWz4UnrpFWrIUtIEMLrW53YitRUIbCu1IWt+z0oMr6/rwJiTxQISxgXLoT98OHCkwjZf/+NQt3vaq2q6hlRrBvbZuBAOE2cCLOAAF4lhBBSUW0Ca6Hr+d884ZWp1WHNJX11j9kD+zZ89BR7defBn1ORFl7KK1VjndW9ZlBYTQghhDRVFFhXIzdJho2vx0JaWPc5aAzrOJ70gR88O1jySs2khSpEHmVzqfOFkSPenS2FudSBfWyqXDLYEOxleEIYzQNp9rYsoFZAXqKGqaWhEEbf3i3NxpCIjRv2sZxem4kr/+Ri9ndBsHSo25zqmrBu6ZN/psO/lw0ubc1BSJgtBsx3Fb6Wu79MEkL/IU97VBoXwiReLMbh39OQmyjnlRqYleKBJ3zQ6UE3oTuaXWbOnFkphL4lNTUVhw8fFn64WJd1Xl4eYmJiEBgYKATXzs7Owu3YjxMbKcJCbjYe5IEHHqjUjU3uH41WjYzSKCGcZiF1miRc6G72sGwPb4uyDmpHU9+7PlFzJG0pLuT8zY8aRmxggnkhP8PGuHE7nROv78WVgz8hpNcM4UJIbbCO5Upd2JGR0CoUZd3kFUJsEzc3/i/unSLd7+uEjz6Cbf/+KND9bmbd4bWi+/lmSzBd5s6FqIqluoQQ0prdLbA+tSYTEYcL+NHd9Z3rInRcN5RWo0XSlRLhv512s7RSWM4Wuwf2sRZG+9EYEEIIIaTposC6CqzLeNVTUSjNb9h2PhZaz/khCPaeVXcmsuA49jSbS52PhAvFcPQ1A1v60Ub3AKqqxYF1wb5NxdllCw8rdUvr3rI669S2dTMuC6RvC6bNbBpnzicLlfd8nYRpnwfANbjybOeG2rs4WVhC6eRnisFPusNN9/5Prs7Ehb+zdcce6DC8+pfcs69VyjUJ9i9JhaxYJbxUUa3UCiNYHLxN4BJoJgTel1MOwsrKEkOHDhX+3YEDB5CQkCCE1rfPqmbY+2VLFtl8azMzM3Tr1k3otr558yZ8fHzQq1ev/zq02dzrQ4cOIT4+Hv369UOXLl30MiqF1J5Wq0GmNKZsBrXkKlIl7JeiATwtQss6qC06wtksQPd9qduTNmx0yJ9RT6NAkcYr9feAx9Po5DCaH+mfRqPGtUO/IvnmQXQf9Rpc/XvyM4TUHfsdKNf9zmOLHG91YsuTkoTljeYhIeUhtu66yLRxO/jVUiminnxSmMVdHxbt28Pvgw8a/eMkhJDmpKbAOuZUIY4tz+BHtcMeYo1b5AN7L/39rmWL14sylcLfXWxko6PubwV9vcKTEEIIIY2HAuvbsE9v5ydJiD5Rcb6xBrLiS0gXBcPdzAqVHuNo8pGZdxnZcIevXQgsbxtd7RZijulfBfw3yoO9f7a4kYXU7L/B5juzxYls5IeDd90fnMkl6rJAumIorbsUpMl1D8y0sHQQV+6W5m+tnY0bfbxIRcKM6VdiMOwFLyGQ1xf2ftnL/rJ1b23cTTB3SZDue6XGP58nCV+PsboHvWwpZm2seCxSeDki6+xg36fbA+PMzEysX78eCxYsELqgNRoNtm/fLoz9mDp1Koyq6b5TKpVCN/b58+fh6+srLGOMjo4WOqtdXFyE4JrVGTZKhI0JsbQsC8ZvdWIT/WPf42xZPA+oryC15DrUWiXcLdrxgLoTXM2DIDJo2Dz6fHkaNsa+DoVGIixmrK8eTlPR3/XhRnsiQy4txLkdn0AmyRfmVVvZe/IzhOgPmyldyuZGsw5sFmRHRkKtexBi6uNTuQvb01Nv93U2Nzz+rbcgqeUDneqw0Nr/k09oeSMhhHA1BdbbPkhAXrJc9zt+L/46/guuy9zQrdu7GOvlDEPd31almcux8vQ2ZJsOxeQBz6A9X1wf1N8G/efRzgxCCCGktaPA+japNyTY8GosPyqjkmzFn6c+Q77n55gbNAhOt/Ir+X7sPP8Ojit8dLUsFGq7YXyPj9HNvHJwOeIVL2FJojCX+nABFKVqBOsejLV9wA6e7S3u+kc5m7dcmFEeRrPRHWXXZcLIErbsUQikdZeKs6XZCA99LX9sCEmeEmteiEHoUDv0e0g/D0ClRSqcWJWBG3vz0XGUPWuEhbxEg85jHbDjk0Qh/B/5qhfMrGoXLLCRLD/PDMejq9oKG8urs2XLFlhbWwujOxgWRm/atAkWFhYYN25cjd/L4uJiHD9+HFFRUejcuTM6deok/OBdvnwZtra2wqgQNveavU/WlX316lWh07pPnz7VhuGkbnJlSWUjPoSQ+hqUmlK4mbf9r4PazTwEhiL9fa2zpfHYHL8IgdZ9IFeVIqb4JNRaBT9bOwYQoa/rXPR0mtZoYXVBVizObPsQ1o6+Qme1kYl+XwFBSE3kaWnlY0Ru3oQ0Ph6G5uYwCwkpW+bIu7ANLWs3Yut2GX/+iax1FZefaiEpzkMELBFkYQLrCk9CqxVFuJgngcLMDj1sTHH79G3nWbPgOmcOPyKEkNatusCaNZSw/TG63/BIubwQv+eNwhjbDfg1sh8WTX0VvgYx2LVlIo57vY++me/jkMNKfNqvC9iADrGxAaZ/GQBjHmATQgghpHWiwPo2Oz9LRNTRW93VpchIfAfLIw6gQKN7UBbwE+YG9OGBtQIZ0dPwXUoPzO77Ftqb5OLq+fH42+ADvNxtCCpOIWajQTQqLXy7W6PdEFv497KuchY0C3bZyI5b3dK3OqfZwkOGLQus1C3Nr+tzFrS+qZQabHotDhYOYmHhYUMDN7b48eruXJxclQknf1MMfsIDjr6m2P9DirDIMS1cgh5TndF7prOwZLG2Yk8X4tAvaVi4si2vVC09PR0bN27EI488InRBM6zDet26dfDz88OQIUOEWk3Y+2Dzrdmyxb59+wrLFlk4ffHiRWF0SI8ePYQljVlZWdi3bx8UCoXQbc3GiJC6yZenloXTwhzqa5CpiuBqHiIsSGQXd/N2EIsaZyEcW8r4d/w76Gg/ErYm7jiS9jtmBn6NmMJTOJf9FxSampcBMSxAH+L+NFzMA3lF/1IijuDS3sUI6DoBbfvN1f2M0stkyf2lkctRGh1d3oWte6vKzxe6rs11vxtvdWGzrmwDUc33V1lKCqKeeEL3TssXnyokyXj91E2ke3XGJ4HO8OeZSF7GZTx3IxdSS2uYlRag0C4Uv3Z0h3vF/4Tuvxf8yy8w1X0shBDS2lUXWAuLFvfk8SPd3wNFO7H24Ie46fQt3tI99rVU7MPXa9+H48hdGJo2Be8kLMAXE2fCgT90D3vMDX49rMsOCCGEENIqUWBdAQtXl0y6Ds2tPYuaTFy++QnOKgPgXrQWMa7fYvZ/gXU+blyciI14H692HQQWXRbET8AXcaFYOOhj+N/W2Dv7+0BhNAXbXF1xnvStcJq9VUg1MLMuX3hYsVvaxs0EhuLG6a5sTP98kSQssJzxVWCDl0emXC/BoZ/TICtRY9BCNwQPKBstwmbSrXwsEqUFKiEUr88D3KPL0oUnDEa+6s0r1du8eTPs7e0xePBgXtHdG/LzhdCadUmzB+61ERkZiaNHj8LY2BiDBg0Sli6yH0Q2OoRhwXW7du1w5coVnDp1Sui+DgsLE0JtUrVCRWaFDuorkCjz4WIWyAPqTvCwCIWRqPFn0CaVXMa2hA/Qy3mG8N/dFPs6xvi8CX/rspnQbDTIzfxDSCg+jwxpFEqUuUJdZCCGk6mfEKqH2g3VvQ0W6o2BzewOP7YScVd2ouvwl+AR3J+fIaTpUWRllXdh6y7SmBgYGBnBTPd70aJCiM3mY1eU+uOPyN21ix+pEJN4DS9HZCJdA/gFdMOnAU48sJbgh4NHscGmG/Z0c4Zp4XVMOp2N4X0G4mnd/y5X5DB2LDyefJIfEUJI61VdYH38jwxEHy8fr6gqOYFj177H5qS2eHrCe2ir3YPP13wCr7E7EZY2DW/HzMSnk+bBmf+p0GeOi15HCBJCCCGk+aHAuoL0yFKsezGGH1WgScbh41NxuVJgrUDKzbH4MTMMC/r+D0HibIRfn45lme2wYNAShN7WtOngYwp5iRoluUoYGhn8N8KjUjjtYQzTWo6waA7ObMjCpe05mL04EFZO9e9iLc5RCoFy7KlCdJvshJ5Tnf8Lv1n3+faPEoTu6m4THdF3Tv1Gjqx7OQbthtih02gHXqleWloa/vrrL6HLmo0CuSU1NVUIs4cPH46QkBBerZlKpcKFCxdw9uxZeHp6CsG1jY2NsJiRzb2Wy+XCzGs24/rYsWPCHG12m9DQUP4eWrdiZU55B7XuUqTMFgJfFhJ7W3aEh0UHmBje2/EWsYWnsSvpMwxyfxRBNv2wOvpZdLAfiT4us/gt7qTWKKGBGmID43vS4ayQleD8P5+jJC9FmFdt4+THzxDSPLC51LLYWGGR460Qmy1UNHZ1/S+8NgsMRPyiRdDI+Ox4jQx7b97A30pLtCtKxBnXLvjwv8Ca0UChEcFYpEF+xmXMvCbDo/17Y7JZ5Z9Jtnix3YYNENGoJkJIK1ddYH1qTSYiDhforpUi/urHOGH6GKa67MN7m/7CgCk7McriMlZsfBxF/bdjWOIUfC/9CF8NfwC3HlX3m+cqjE8khBBCSOtFgXUF1/fmYe/iFH5UQZWBtY5sB7Ze+BQnpXZwNNIAxlYolgZi9oBP0Oa2v2N9ulqi2yQnYemhlZNRncZVNEdsMzhbfDjlM3+4tykPdetCrdTgwpYcnFmfBe8ulgh71B02ruXBd9zZIuz+KhlBfa2RGSNF98lOaDvYjp+tPdahvWTKDcz5PkgYL1IbbG41W4jIwuOK2HzqPXv2YPLkyULHdG1JJBJhbjULqjt06CDMrTY1NRWWM545cwZFRUXCzGs2hoR1Wzs6OuLBBx8UZl83RKmqENnSOCg0UhgaGMLW2B12Jh5NdixEqargvw7qJN3bAkUaHEx8/uug9rToADNxxYE89xbrmt6bshjDPF9AiO1AbIr7H0wNLTHO5+1Gmz9dV0W5STiz7QOYWzmhx5g3YWx2/75ehOiTMi+vUhe2JDKSLRrgZyvQSPDH8RPYe0dgraPKwYoLV/FjngKePt2xqp0jqnrNTuB338E8KIgfEUJI61RdYH3t3zyc/ytbd02NgsR38dn+zciFIewDPserA0fDUSRFytUn8NnZ8yg18Mfw0Wsx3bX88cjwlz3r/fcDIYQQQloGCqwrYN3AbI7xHaoLrAUlyMw5jVxxB7gUvoDFiWF4ot/j8Kh0G6DbJEcMWujOj1q27Hgp1r8ci6HPetQrQGZYGH341zQYGBpg8BPu8O1a/iBWq9Hi5JpMXNicjcFPeqDDcHssWxCBIU+612scCBs1su2DRDy1oV2tQ8WUlBT8/fffWLhwIczNK3fwso5pFjLPmDFDGB1SF2xuNZtvnZ2dLYTWLKQ2NDREfHy80IXNOqzZmBCpVCrUevXqJYwOEd1ljmtFrCv5au5u3Mw/gCJlFq+WMxKZwc+qOzo7jBVGaNzPoFWqKkaKpCycZkF1njxZCNS9LDrxkLojzMVN4yWjV3J3CXOqR3m/jkCbPjiY+jMSSy5hVuDie97lXZ30mFO4sPsr+HQYjvYDH4GB6LZfVIS0IDk7dyLtp5/4UQU1BdZQoVCuRl5eDN67ng7rdv3wg8edY5g8nnkGDqNG8SNCCGmdqgusSwtV2PRGLDQqXtCUQKIyhYVx5VeSapQFkIqsYWFY/jjW0tEIUz7xazJP9BNCCCHk/qhrYN002y71hI3qqJaBCFqNApYVvgJ5sWPw/tHfUGQzFO0s83AtLQ1WLgPgWEUGZGjUor90/2FzpLe+l4DOYx3qFVbnp8mx5d147Po8CR1HOeChn4IrhdXSIhX+ficeNw/kCxvEWVjNyIpVMLGqX/iWFl4K9zbmdXpgzMZ3sAfpLJy+Xbdu3YSliSzQZp3TdcG6tqdNmyaMFbl8+TL++OMPxMbGCgsdp0+fjkmTJgnd1qzGPga2rHH16tXCIse7UWtVOJ25FstuzseZrHVVhtWMUiNFVOExbIx7DZvjF6FYwTpk7g25WoLYojM4nPYb/ox6Gj+HT8fR9GVQ63722Dzox9r+ifkhv2Oo5zNCB3NTCavPZm0SPs4Jfu8JYfWN/P0I113G+7zdJMJq9jxjxKk1OPfP5+j4wFPoEPYYhdWkxVMXF/NrtaCR4VxSPP7R/RMbExP4ufljpKka17Oqfh8q3e9hQgghVTO3EcO7c4VXcIks7wirGZGRbaWwmmkzyIbCakIIIYTUWYtOXdkc6ZpVbi6393wRvY13YOXxifji2FM4IX4IE3zboar3cvf33fyxER5snrRzgBn6P1y3WdJsGeWxFelY9WQUzKzFWPB7iDDio+KiyYyoUqx+Llr3IBaY/UMQXILKgkDWcS2XaGBqWb8ALvWGBO6hdX/ZIXu2h4XKrNv5dmw5Iguft2zZAmVVL0m/i8DAQMybNw8dO3bE7t27hZnZrOuahdQstJ41a5awrJEF4hqNBhs2bMDBgwehUCj4e6hMpirGxthXcTJztTArubaSSi7hj6gnhCWCjUGhliK++LwQ9q6Jfh4/3ZiOA6k/Ch9vV8cJWNhmBR5psxzDvF5AW7vBsDS6+4zxe+14+kqcy96EyX6fwNuyMzJLY3Ag5UeM8HoZ9qZe/Fb3j0ohxdkdHyHh2h4MmPYFvNs9wM8Q0sLVEHjcOmX1302kOBIbic9jcpGnO1KV5uCS7tepq23V/9tAYQohhNSs82gHiE3q9ruSdVcHD6Rli4QQQgipuxY9EkQhVQuzjG/Lpe9ChoLCmygSB8HdwhLVrUyc90swHLxrNx+5udrzdTKyYqWY8XUAjM1qHx7fPJSPY8vTYW5nJIz1cG97Z0BwdXeuMCKk+xQn9JnlUmkGOOuu/ml6OJ5Y2w7mtnVbWsnuzuzfjn/bB54dLHm19tavXy+EyP379+eVciyoZkEzm0U9fvz4Oo3tqIgF4my+NXsZBFu22K9fv//GkOTn5wujQtjsayMjI+G/MWzYMAQEBAjnGZm6BH/FvYksaRULRWuJLQOc4Pc+vC078Ur9KDVypEtuIklSNuIjozQKZmKbsvEeFmVzqO1MmsfoHHbfOZj2M6ILj2Oy38dwMvODVFWI1dHPo53dEPRzfYjf8v6RFKTj9Lb3YWRiiZ5j34KpRf1G9BDSHOXt34+Ub77hRxVoJFh14iR22LXD8lCP/0Lr4rwIvHolCZEiM5gqZRA7BOPbjj4IrOJ/zjxfegn2Q4fyI0IIaZ2qGwlyCxu7d+jnNKgUd//jytxOjBEveVXaV0MIIYSQ1otmWN9m86I4JF4s4Uf6Yedhgod/DW7RixbP/ZWF85uzMXtxEKxdavdAMytOKjyIzU2Wof88V2G8x+1fI7YQ8cCPqYg5VYRRr3pVOaO6IF2O5Y9E4oUdHSAyrNvXOCdRhtXPRuOZv0IhNq57oJyQkCA8SGezrFkwfTsWNq9btw7e3t4Y2sBwIycnB0eOHBHGf7DZ1V26dIFYXBbQFxcX49y5c8KIEPYj6ubmhjFjxghLGnclfY7IgiPC7QQaFTLO50PubgdPTzEqZTFFhYg4UgiJgz3a9bVExcmtpobWeDjklzqN4VBrlEgvjSibQS25igzddSORObwsO/w3h9rB1JvfuvnQaNX4N/lbpEiuYYr/J8JcbVbbHLcIYpExJvi+i/u9uDIr4SLO7foMHsH90XHIk7qfjds2wRLSwskSExH15JP8qJZ0v7NSiiWQmVgi0LT6J0CDf/kFprrf64QQ0prdLbBm2OP9M+uykJMg45XK2MMlz/YW6DPbBRb29FiFEEIIIWUosL5N3JkibH0/gR/pB1sa2GWcIz9qedjXbOeniZj8sT88ajFaQ1qswok/MnB9bz46jrRH37muVY7zKMxQCCNGmHGLfKvtuGCjQja9EYdn/27PK7V35Z9chO/Px8xvAnml7lgg7ePjg759+/JKZQUFBcJtunbtKgTNDRUXFycE12wUyIABAxAcHMzPAKWlpTh16hSuXbsmBNde3UyRZLuDn2XUyNl6GYs/lWPo0h7o3cEIt2J2xY0IrHoqAUkOVjDPLIKkawc8/40nHCv87RBk0w9jfd7iR3dioS3rmmbd06yLmnVTGxoYwVMIqMs6qB1NfZv1y+lVGiV2JX2GXFkSpvp/AitjJ6F+OO13xBWdxqyg72BqWPdufX2KPr8ZN0+sQoewx+HXiRbDkdZJq1bj5ty5UOl+B+uT2M4ObVetgoFh/cZQEUJIS1GbwPoWFlhHHClAfooMSrkWxmYiuAabI2SQDawcqauaEEIIIZVRYH0bNg954+txwlxjfbB1N8bcJcEwMm2Z47/Zg891L8cIozxCh5YtQKwO+9pe3Z2HE6sy4OhrKgT5Tn4Ve3jLxZ0rwu4vkxHYxxoPPO1RY/dz4sVi/Ls4BY+tassrtbf7yyThJYiDFtZ/DEV8fDz++ecfocvaxKTqWeWsK3rTpk148MEHhYWMDcXC6itXrgjhtIODgzAz28XFhZ8F5HI59h/Yj0jrVYA1XxpWWoxTn1zG9n9LodBaY+gPXTC4jykPrOW4/uwRrFG2x+s/usMyKQq/zUyC7XcDMatX5T8iHg7+DfamnsJ1FlBnSWOFgDq55CpSS2/oqgbwtAgVwmkWUjubBdz3bmN9UWpk2JbwgTD6Y7L/x/91m0fkH8a+1O8xM/BbOJr6CLX7Qa2U49K+75CddFkYAeLgEcrPENI6Zfz5J7LWreNH+uEye7ZwIYSQ1q4ugTUhhBBCSF3UNbBumalrBWwkxfCXPOu8JKRKunfBZrG11LBaWqjC1vfjhS7pu4XV7AkAtjDxzIYsIYCe9nlAlWE1C7VP/pmBnR8nYuACVwx/0euuozpkJWqYWdWv0y01XFKrrvCa+Pn5wdbWFpcuXeKVO7ERHaNGjcK+ffuQlJTEq/XHZlWzkSALFiwQgmo2S3vPnj3CDzPDgvOuYYHlYbWOurgEacUmCJ3rCRdjDbt7lpMVISFCA+fh9rDVfSnFfh4ItlMi+vSdL988nbUWF7K3YGv8e8KSxI2xryOx5DI8LNsL4zGeDt2IiX4foLvTZLiYB7WYsPrWLHAWWk8N+Py/sDpbGo+9Kd9huOdL9zWsLi3KwtENr6AkLwVhs7+nsJoQHYfRoyEyq/qJ0fpg78t+5Eh+RAghhBBCCCGkKWjxgTVj62aCCe/6QmzcgNCahdUve8G9XcPC0KZKrdJi+8eJcPAxxcAFbrx6p5JcJf75Igl/vRknzJ+e/1sIQqrZ/s1Ghfz9TjxuHMjH9C8D0GGEAz9TMxZYm1QxUuRu2MdWlKmEhx6+R+yZn4sXL0KhUPDKnQIDA4URHjt27BDmUesDm5vNuqsfeughyGQyLF++HKdPnxYWPiaVXOa3KmPo4obJ3/XEzIlmlcNqRiJFoUwEK5tbP+IimFsaQJki58flIgoOI7boNFzMgzHR730hoJ7i/zF6OU+Hm3kbiAxa3svkS1UF2BT7OoxEpkIof2vkh1RVjO2JH6KL41gE2965ePNeyUm5hsNrnoOVgzcGzPgKZlYtdwQRIXVhZG8P98cf50cN5/7EE8L7JIQQQgghhBDSdLSKwJrx7myFiR/4CeMi6orNZBvzhjfaDbHjlZbnwJIUyIpUGP2ad5XLJNVKDc5uysKKRyOhkGow75dgYbFidd3mmdGlwvJDZs73QXAJMheu14asWF3lDOy7YV3fbCGmmU3dv8e3CwgIgJWVVY1d1gzrim7fvj22bNnyXze0PtjZ2WHChAnCJSoqCitWrEBM5kV+tpZu+zZqNLr/U+WX1QATfN9DH5dZ8LAIhaGoZS/IKVZkY33Mq7A2dtV93u8LoTWj1WrwT9JnsDV2Q3/Xh4Xa/RB3eQdObl6E4J7T0H3kqzAU0xxIQiqye/BB2A8fzo/qj70PuwYuzyWEEEIIIYQQon+tJrBmvDpaYt7PwWj3gK2wwbo2/Hta4SHdvwkeUHUXcUtwYWs2Yk4XYcJ7fjA2vzPRjD9XhD+eisKNvfkY86aP0K3Outarc21PLja8GovQB+ww6QM/mFnXLUCW17PDOk0YB1L7YPxuWJf1hQsXhO7mmgwcOFAYEcJC65o6suvD29sbc+fOFT6WrOI6jB6xsoCDuQaFuSylZlQoKdLC1OfWSsaKtJCocvn1li1fnor1sa/A3bwNxvq8CXGFcP54xh+682kY5f3GfRl7olErcWnvd7h58k/0nvAeArtN4mcIIRWxJa8ezz4L+xEjeKXu2BgQ9j6a88JYQgghhBBCCGmpWlVgzbDwdMTL3li4sg16z3KGZwcLGJmVfxnY2BC3tuboPtlJGHfBQlxr55bb4Rh/vhgnVmZg3Fs+sHGt/HkWpMux5b147PwsCR2G2wvBvV93K372TiqFBv9+m4yjyzMwRvf++s51rbJb+27YSBDTesywTr1R2uD51RWxkR+Wlpa4fLnyKI7bscBjxIgRMDY2FsaDsAWK+sTef8eOHeHgUFOHv+4+rLvdf19tY2sEdBcje1s6UuWA4mIcbuQbo22fqgN9jVa/H3NTxGZTb4h9Ff7WvTDc66VKo06iCo7jUs52jPN9G2bi6u/jjUUmycPxjW8gPyMSYbO+g7NPF36GEFIVA5FICJy9XnsNhrrf07XFbuv9+uvweOYZ4X0QQgghhBBCCGl6Wu1fa1aOxug7x1VYFvjMplA881contZdntncHjO/DsTAR9xg51l9F3FLkJskw67PEjH4SQ94dij/g18p0+D4Hxn444koYTTH/N9D0GOKMwzF1YfPhRkKrH85FlmxUmEEiH8Pa36m7uQlqjqPBFFI1ciOl+p1xjgLilln8/nz5+/aZS0WizF+/HgUFRUJixgbg5mRDb92O/Z9MYC0UI3yfmEj+D0ZhC4FkVg89CA+WJgB9eQOGNah6q+rqeG9D2nvpTRJBDbGvY729sPxgMdTlboqc2SJ+DflGwzzfB7OZv68eu/kp0fi8OrndPd5ewyc+Q0sbKufIU8IKcd+ju3CwhCybBncFi6Esbs7P3Mndo7dht3WdtCgSr8DCCGEEEIIIYQ0LQZaHX6dtCJsIeK6F2Lg39MaYY+X/5EfcaQAR5emw8zGEA885VGrAJiNDPnny2QE9rHGA097QGzcsOdBNr0RK4xg6TS6dksamcRLxcIyyCfXhfKKfrAfj1WrVglzqrt168ar1SssLMS6devQqVMn9OnTh1f140jaUlzI+Zsf1ZYSBbFSKO0t4GRXdVhtIbbH4+1W86OWJ6n4MrYlfoDezjPRw3kqr5aRqUuwNvp5+Fv3Rpj7o7x67yTe2IcrB35ESM/pCO41g0I0QhpImZcHaXQ0VAUFwrHY1hZmQUG0WJEQQmrB1dUV3bt3x86dO3mFEEIIIUQ/WEMo2/12/fp1XqkZvR62FVKrtNj5cSJs3Y0xcGFZNyfrTt74WiwO/pSKXjOdhS7pu4XVWo0WJ1dnYIfufQ2Y74rhL3o1OKxm2EiQus6wZgsXPfTYXX0LCxB79eoldFmrVCperZ6NjQ0mTpwo3P7GjRu8qh/uFm35tbowgm2AdbVhNeNm3oZfa3liC09ja8J7GOj2yB1hNVuyuDvpC1gZOenOL+DVe0OjUePqoV9wTXfpMfp/COk9k8JqQvSABdPWut/ZbKEiu7DrFFYTQgghhBBCSPNCgXUrdOjnVEjyVRj9hg8UpWoc+CkVa56PgYOvKRYsDUGnUQ53nT3NOrS3vBuPG/vzMe2LAHQcWftu6LupzwzrtHD9zq+uKCQkRJhPfe3aNV6pmYuLC0aPHo39+/cjMTGRVxvOz6onzAyrGwtSf2xMRkt0M/8QdiV9hgc9n0cnh9G8Wu5k5hphHMgYn/9Vmmfd2BTSIpzc/BYy4y9g0KzFcAvoxc8QQgghhBBCCCGEEAqsW5lL23MQdawQ4972EcZ/LH80EjkJMsz+LlAYAWJqJea3rF5mdCnWPBsNNkyGdWK7Ble9yK++5MXqOs2w1qi1SI8ohXsjBda3uqzPnTtXqy5rxt/fH2FhYcISxuzsbF5tGLHICJ0dx/Aj/bAz8YCf1d1HnTQ3V3J3YV/K9xjt8z+0tRvMq+ViCk/hQvbfGOfDlizq/0mA6hRmxeHwmudgKDZG2OzFsLL34mcIIYQQQgghhBBCCEOBdSuSeLEYR5elo/ccF/zzeTLOrMvCkCc9MP2LADj5mfFb1ezanlxseDUWbR+ww6QP/GBmffeAuy5Y+KyQauo0EiQ7TirMmnYOqN3nUB9t2rQRFivWZcwHm2PduXNnbNmyBcXFxbzaMN2dpsDOxJMfNdyDHs/DwKBl/Ro4m7URR9OXYYLfuwiwvrN7OU+WjD3JX2Go5zNwMQ/k1caXGnkUR9e/DI82Yeg94T0YmTTOEyyEEEIIIYQQQgghzRkF1q1EfoocOz5OgJOfKY4tS4dvdyvM/z0EbQbZ8lvUTKXQYO/iZBxdnoExb/qg31zXu44NqQ95iVp4W5cO69TwUqHL21DceDOARSKR0GV99uxZqNVlH2Nt9OvXD56enkJoLZfLebX+jEQmGOn1CsQGJrxSf+KUIJz8Jxz5+fm80vwdS1+Oc9l/YYr/J/C27Myr5eTqUmEBYzu7obrLA7zauNis7BvHVuDiv9+i64iXENr/4Rb3JAEhhBBCCCGEEEKIvlBq0gpI8pVY90oMVAotzGzFmPdLMPrPc4WRae2+/YWZCqx/ORaZMVJhBIh/T2t+Rv/Y/GqmLoF1Glu42EjjQCpq27atEFzXpcuajRMZPnw4zMzMsH379jqF3dVxNQ/GJL8PGhRad3WciEcHfwZbW1usWrUKp0+f1svHdr+wDvv9KUtwI/8Apvl/XuUiSXYb1lltLrZDmPtjvNq4lHIJTm99D6mRRzBwxtfwCB7AzxBCCCGEEEIIIYSQqlBg3cLFnS3CsgURUMk1GLvIFxPf84OtW+2DzvhzRcK8akc/U8z8JhA2rsb8TOOQFathbC6qU/d2argE7u0aP7BmYXXPnj2FLmuNRsOrd2doaIhx48ahtLQU+/bt49WG8bTsgJmB38DJ1J9XakekMYJBRCg0kQHC8bBhwzB58mTcvHkTq1evRlpamlBvTjRaNXYnf4n44vOYHvAlnMz8+JnKzmStQ6Y0GmN93rwnSxaLc5NweM0LUKsUGDT7O9g41+17RQghhBBCCCGEENIaUWDdQhWky7H1/QRs/zABYhMRHlnRBgG9at8ZrdVocXJ1BnZ8nIj+810x4iUviI0b/+7COqzr0l1dmKGAJF8F93b6XfxYnXbt2gmduuHh4bxSOyYmJpg0aRISExNx4sQJXm0YFszOClqMIe5P3nWutZHIDJ0dxmJBu98xO+xV5GTnYPny5bh48SLc3Nwwd+5cBAUFYdOmTdi/f79expfcCyqNEjsSPxaC6BkBX+m+Du78TGVxRWeF2dZjfRbBXFy7MTgNkR57BkfWvQgXv+7oO/ljmJjdu8WOhBBCCCGEEEIIIc2ZgZalb6TFUMo0OLMhCxf+zha6otns6tmLg2DnWfuuammxCru/TEZuogxj3/IR5kPfKxGH83Hur2zMXRLMKzULP5AvfK5zf6zd7fXhypUrOH/+PObPny90XddFVlYWNmzYgLCwMHTo0IFXG479GLPQNqM0CtmyOCjUpRAZiIUA18UsCB4WoTA2rPx9jI6OxtGjR4XPYdCgQfD390dubq7QBV5YWIjBgwcjOPjefV3rSqmRYWvC+5CpijHZ/2OYi6sOhfPlqVgT/TwGuT+KDvbDebVxsO9D1Jn1iDy7AZ0eeBo+oQ/yM4QQQgghTZurqyu6d++OnTt38gohhBBCiH707t0bJSUluH79Oq/UjALrFiTyaAGOLE2HmbUhQofa49iKdEx4zxc+Xaz4Le4uM6YUOz5KhJ2HCUa97q17X2J+5t64vDMH0SeKMPXT2o1P2Pd9CkSGBnjgaQ9eaXxs1vOyZcuEhYqhoaG8WnsJCQnCPOuxY8fCz6/q8RX3CvtcLl26JMywZn+ksODa0dERV69exbFjx+Dl5YUhQ4bAyqr296F7gYXUWxLegQEMMdHvfZgYVj0SRqGWYl3Mi0JgP9TzWV5tHCqFFBf//QZ56RHoNXYR7NxC+BlCCCGEkKaPAmtCCCGENJa6BtY0EqQFyEmQYdMbsTiwJBW9pjtj9BveOL02EwMfcatTWH3t3zxseCUWbYfYYdKHfvc8rGbYDOs6LVwMZwsX710HOMNmUvfo0QNnzpwROmrrytfXVwiB2R8DrOP6fmKfC/vDZMGCBcICxrVr1+LAgQPCeJCHH35Y6L5euXKlEGo3lee2JMp8bIx7HcYic0z2/6jasJr5N+UbGOvOD3Z/glcah6QgHUfWvQRpSS7CZn9HYTUhhBBCCCGEEEJIPVFg3Yyxec8Hf07FmueihZEf85eFoE2YLbZ9kIjggTboMs6R37JmKoUGexcn4+jSNIz5nw/6PeRap6WH+iTMsLaqXWAtK1YhN0l+TxYu3o6N81AqlYiIiOCVumnfvj26deuGLVu2oKioiFfvH3NzcwwdOhSzZ88WxoGw+dZsEeOoUaOEy7lz57Bu3TpkZ2fzf3F/FCmysCH2Vdgau2OC73swEpnyM3diM6vTJOEY6/MWDEVGvKp/WYmXcHjt87B3a4MB0z6HqYU9P0MIIYQQoifqTOz/5FV8f0nCC3WjyTuJJW++gz9uyniFEEIIIaTposC6GWILEa/uzsWKhRHIjpNh5reBGPqMJ0zMDbHrs0RY2osx5MnajcgozFRg/SuxyIyRYvb3QfCvw2LGxiAvUcOklh3WaeGlsHQ0grWzMa/cO2KxWOhMrm+XNdO3b1/4+Pjg77//hkzWNP54YONAJk+eLITU7GUarLuajQ1h3dZsOSPrwGajQlQqFf8X906+PAXrY1+Bu0VbjPH5X40hdELxBZzKXCOE1ZZGjRcgR5/fjNNb30Pbvg+hy7DnITJsvGCcEEIIIa1VCa58PxsT3/oWW2Lq8ZhRnYFtz03Es59+jc26x/yEEEIIIU0dBdbNTFqEBGtfjBFGfoQ97o7pXwbAOcBMOHd0aToK0hQY85aPMNf5buLPF2PNs9Fw9DXFjK8DYetW+8WMjaUuHdapwjiQe99dfUvHjh2FoDkqKopX6u7BBx+EpaWlMNOaBcNNBVvAOG/ePHTt2hX79+8XOsHbtWuHadOmCTO4V61ahaSkJH7rxpcljcP6mFcRaN0Hwz1fgsig+vtIoSID/yR9jjD3x+Bu0Y5X9UutUuD87i8Rfe4v9J38Efw7j+FnCCGEEEL0R1MSgfXPDELvlw6ghNfqRoXkDU9h4Zr7O4aOEEIIIaQuKLBuJiR5Suz5OgmbXo+Dd2dLPPxbCNoOtuNngWt7cnF9X56wZNHMqubZ06wj+NSaTOz4KAH9HnbFiJe8YGTSNO4KdZlhnXpDAo9293Z+dUVGRkYN7rJmM6TZ8kUWfO/Zs6fJzIlm2PzqLl26CPOtXVxcsH79ely5cgUTJkwQRpps3bpV+Jil0sbt1EmT3MSm2NfR0WEkhng8CQOD6p+MUWpk2J7wIQKt+6KTw2he1a/S4mwcW/8KinOTEDbnezh6duBnCCGEEEL0SHIar3Zri5m/STHpzUdQu5XklSni/8BjTx9E6DOz4MVrhBBCCCFNHQXWTZxapcX5zdlY8WgkpEVqPPRzMAbMd4OxWXmom3KtBAd/TsPoN3xg71X9TF+GzX3e8m4Cru/Nw7QvAtBplAM/0zSwkSC1CaxVSg0yo6Rwv48d1kynTp0gkUgQExPDK3VnYmKCiRMnIjU1FcePH+fVpsPU1BRhYWF46KGHhGCdjQnRaDSYNWuWsOF1xYoVCA8P57fWr8TiS9gc/xZ6ucxAP9eHeLV6e1O+g6GBEYZ4PM0r+pWbegOHVz8HS3tPDJz+FcytnPgZQgghhBA9MzBHyNxfcCTxMlY8FIyy11TWgTwSvy54Eaf7fovf5njh3q9TJ4QQQgipHwqsm7CEi8VY9VQUrv6Ti1Gve2Pi+36wc688tqMwQ4HtHyei/3xX+HW34tWqZcVKsfq5aGjUWsz5IQiuwfevO7k6Qod1LUaCZEVLYWhsACffmgP6xsa6rNnyxNOnTzeoO9rKykoIrVkHM7s0RXZ2dkJ39fjx44UxKGz2dmhoKAYNGoTDhw/jr7/+QkFBAb91w8UUnsS2hPcxyO1RdHeazKvVO5+9GcklVzDWZxHEjbBkMf7KLpz4600E9ZiC7qNeg6HR/R+hQwghhJAWzLwjHlv0OAa61WdfiwzXFs/DG1cfwJJf5sKb0mpCCCGENCMUWDdBLITe9kECtn+YgNChdpj3SzD8e965DFFRqsbW9+IR2McG3SbU3OnJOqrXvxIjjBGZ/KEfzKyb5qNWWYmqVksX2TgQtzbmMBDdfVZ3Y+vcuTOKi4sRGxvLK/Xj5OSEcePG4ciRIw1+X43J29sbc+bMQe/evYWg+urVqxg5cqQwi5vNtj579qzQgd0Q4fkH8E/SFxjm9aIwCuRukkou40TGKozx/h+sjB15VT80aiUu7/se4cf/QO/x7yKo+93Dc0IIIYSQithIs9pe9EFy4VPMfTceY3/9ETO8KK0mhBBCSPNioG1KQ3NbOaVcg7Mbs3BhczYC+thg4CNusHKsulNUq9Fi6/sJUEg1mPKJPwzFVT+4ZaMzDv6UhujjBRj5ijf8e90ZfDcVat3H+t3463hkeRvYuNbcScKCetcQc/Se6cIr9xebYx0dHS0EuQ3FxmuwRYdswaGrqyuvNk1yuVz43C9duoTAwEAEBATgxIkTMDY2xtChQ+Hm5sZvWXuXc3biaPoyjPF5A/7WvXi1ekWKLKyOfg69XWaiq+N4XtUPmSQfZ3d8rPvZLBHCagvbun8+hBBCCCF1CaKr+vNMEfkFurZ5E04bM3Fo6l1G+hWfwus9B2F56Aqc+G00nEW6xzRX30fvQb+i7fqbWDfKFVZWJri9RcTZ2RlisRgDBgzglXIvvfQSevW6++MyQgghhLRuLM/6/fff+VE5VmcZ140bN3ilZhRYNxFRxwpwZGm6ML958JPu8Gxvyc9U7cjSNESfKMTsxUEws6m6a6Ios2xciFatxdhFPrB1a9ojDCT5Svw6+yae2hha4xxrdpf9eUY4xr7lA6+ONX+d7hUW3C5dulToNPb3r89KnMrYiBEWArM50TY2NrzadBUWFuLo0aOIj48XFjWq1WphtEnHjh3Rr18/IcCujTNZG3A2ayMm+L4LL8uOvFo9lUaB9bEvw9HEFyO8X+ZV/cjPiMKZ7R/CzjUY3Ua8ArFxnSdHEkIIIYToRV0Ca9mVt9Gh80eodsOKz8s4G/4Vetw2HZAt2fbw8MDrr7/OK+XY4zlPT09+RAghhBBSNTYx4Pz58/yo3KJFi4RsiALrZiInUYZDv6QiO1aGvg+5oONIB4gMa+7AuLEvDwd/ScPMbwLh6FP1DOeEC8X454skYZTIA894wMik6U9/yUuWYeUTUXhxZ4cau1Byk2T48+koPL2pPYxMm87nderUKSGwZSGzPuzbtw8pKSmYMWMGzMyaR1jKPl42JoQtomRhdVxcnHD9gQceELqva3IsfTmu5e3BRL8P4WYewqs12530FXLliZgR8DXEovrMd6xa0o39uHxgCYJ7TENI75l6e3kuIYQQQkh91CWw1hTH4PixmyhU84KOMmEVnnhuK3zfXYP3BndEvwFtYHPbw2jW9dS9e3fs3LmTVwghhBBC9IONlS0pKcH169d5pWY0w/o+kUvUQlC9+tloYZHi/KUh6DzG8a5hNZvdfODHVIx+3bvKsJo9/3BqbaYw/7rfPFeMeNmrWYTVjKxEDVMLw7uGg2nhEjgHmDWpsJphncV5eXlISEjglYZhIS/rrt62bRtUKhWvNm2s82b27Nno37+/MNua3R+DgoLwzz//YMeOHUJ4fTutVoP9KUuEudXTAr6odVh9KWc74ovPY5zP23oLq7UaNa4d/hVXD/2MHqPfQJs+syisJoQQQkjTJruJ35+ejjmL9iFLo/sDzyoQA0eNxdix5ZcRfQNgCWO4dnsQowbdGVYTQgghhDQl9FDlHmMB3rV/87D8kQhkxkgx69tADH3Ws1ZLEIURHx8moO9c1yqXMMqKVdj6bgKu7cnD1M8D0GnUXebbNTGyYnUtFy6Wwj3Ugh81HaampkJozTqt9UEkEmHMmDFCWL17927hvtMcsIA3NDQUCxYsgJ+fH65duya8vFQmk2HlypXCqJBbn4tGq8bu5K+QUHwe0wO+gqOpr1C/m5SSa//NubY2dubVhlFIi3By8yJkxJ3DwJnfwi2gNz9DCCGEENKEKTNxatNGrNkVAUnD9l4TQgghhDQJFFjfQ+kRpVj7QgxO/pmBQY+5Y8ZXgUKncG0opGphyaJfT2t0n+zEq+WyYqVY/Vw01Got5v4QBLeQ24bSNQNCh7VVbQJrCTzaNb3AmunatStycnKQlJTEKw3D5vtMnDgRGRkZOHLkCK82D0ZGRsK8w/nz5wthflpamhBcs0B/w4YNyMzOxPbEj5AljcX0wK9ga1K7hYbFihzsSPwE/VwfgrdlZ15tmMLseBxe8zwMDMUYNGsxrB28+RlCCCGEkPvPOOQ1XNeqqh4HYhWG5VlaaC89C79qemDMu32GOK0E28fa8QohhBBCSNNFgfU9wJYJ7vkmGRtfi4VXJ0vM/z0E7YbU/sGiVqPFP18kw9hchAef9eDVctf35mH9KzFoE2aHyR/6VbuEsamTs8D6Lh3W7GtZmKGARxPssGbYrOnOnTvrrcuasbCwwKRJk4TB9BcvXuTV5sPKygqjRo3CtGnTIJVKeXe1FmtWr0bGNRWm+HwKKyPHshvfhUqjxI7Ej+Bt1RndnSbzasOkRh3H0XUvwSNkAPpMfB/Gpk1jkSchhBBCCCGEEEJIa0SBdSPSqLW48Hc2ViyMRGmBCg/9FIyBC9xgbHb3LuKKjv+Rgex4Kca97QtDo/JvmUqpwb7vU3Dk9zSMfsMH/ee5wkDUfOftsg5rk7t0WLNxILZuxjC3bbqhPFtWk5mZieTkZF5pOAcHB4wbNw7Hjx9HdHQ0rzYvbm5umDlzJvoP6oOM/GQYmqkhyvDEpnXbhGWNtXEw9UeotUoM83xeGCeSK0vCjfz9OJ25Dqcy1+BizjakSm5AqZHxf1E9Njs7/PgfuLjna3QZ9gJCByyAgQH9SiSEEEIIIYQQQgi5nwy0zWUwbjOTeKkYh35Jg1qpRdjj7gjodefM6doIP5iPA0tSMePrADj5lY8PYfOsd3ySCI1Ki7GLfGDrZsLPNF+HfmVfLw2GPuPJK3c6rLuNTKLGiJe8eKVpYuM7srKyMHXqVF7Rj4iICOzduxdTpkyBu7s7rzYfEmUeNscvgrmBPdxzRuDC+UuwtLREYWEh2rVrh4EDBwrjQ6pyJXcXTmT8gUm+HyGx5CKu5O1CiTKXn63M0ECMENtB6OIwHi7mgbxaTikvxfl/vkBRTgJ6jX8bts4B/AwhhBBCSOvk6uoqNF7s3LmTVwghhBBC9KN3794oKSnB9evXeaVm1E6oZ4V8MeK2DxLQdrAt5v0aXO+wOi1Cgv3fp2Dkq16VwuqEC8XCvGoHbxPM+CawRYTVjLxEddeRIKnhkiY7DqSiHj16ID09HampqbyiH23atBF+yLdu3Yr8/HxebR6KFJnYEPsq7Iw9MDHgXfTt01+Yb30reE9ISMCKFSuEUP52aZJwHE77DR0dxuDvhLdxInNVtWE1o9aqEJ5/AGtinsPB1J8rdVwX56XgyNrnoVKWImzOdxRWE0IIIYQQQgghhDQhFFjriVKuwcnVGfjj8UgYGhkIc6p7zXCBuMIIj7oozlZg+weJ6D3LBYF9bIQaa4Y/vTZTCMT7PeSKES97w8ik5XwLZcVs6WL1oz6UMo2wXNKjXdNfKGlubo6OHTvi9OnTvKI/PXv2REhICLZs2YLS0lJebdryZClYH/sq3C1CMdrnDRiKjIQ6664ePnw4Zs2aBRsbGyiVSvz777/4+++/UVRUJNymRJmH7QkfwdU8BGez1kOmLhbqtXU5dwfWx7wMqaoQGXFncWTtC3Dy6Yp+Uz6FiVnZzxYhhBBCCCGEEEIIaRoosNaDqOOFWPl4JGJOFmHih37CPGkrR2N+toyiVI3kayXCgsSru3MReaQAeSkyYaHi7Vgwu/X9BPh0sUTPac5CTVaswtb3EnB1Tx6mfh6ATqOr2BDezAkzrGvosE6PKBXO23tVPTKiqWFd1qzDOi0tjVf0Z/DgwbC3txc6rVnI25RlSWOFzuog674Y7vkiRAZ3fo+dnZ0xffp0jBw5Ulgyyb5uy5cvx7lzZ7E94WOYiHU1Se1eNlKVbFk8Vl9/Eqd2f4wOYY+h05AnIRLVbZY8IYQQQgghhBBCCGl8NMO6AXKTZDj4c5rQ9dtvrgs6jnKAyLB86aFapUXMyUJc3pGL1BsSXq2MBbDthtii8xhH2HmaCF3UOz5OhCRXhalf+Asd2uz9b/8oQRj9Mfp1b5jZNN2Fgw3BQn/WOR7Ur+quV9Zdnhkjxfh3fHml6Tt48CAKCgowadIkXtEfFlRv3LhR6FJmCxkNDJrewk02ymNL/Lvo7DgO/Vzn8mrN1Go1Ll26hJMnT0KtUQFuGdC25WG17jj3mu7nKd8I7l1sYW8jqvysm0qOtDO5yCg1gktXB3g4VH5OLtCkJ8aFvMePCCGEEELILTTDmhBCCCGNhWZY3wNyiVpY/vfnM9GwdTPGgt9D0HmsY6WwmoXMa56Lxq7PkqoNqxl5iRqXtudixeOROLY8HcdXZiAjSopx7/gIYfWNfXlY/0oM2oTZYfJHfi02rGbY16KmDmv2dXRvBuNAKmJd1snJycjIyOAV/TEyMsLEiRORk5ODQ4cO8WrTkVh8UViw2NtlZq3DasbQ0FD4Y6nflADALR1av+iyE6WF2DfvML5/Px4nl17F4jlXcPyKHCr+lJsqOw3bZh7FT18k4eyam/h5zAlsPCyDquy0IEZ+VvdxXeJHhBBCCCGEEEIIIaSpocC6Dlj3MxvpsXxhBNIjSzHz6wA8+JznHSFy+MF8rHk+GjkJ5Yve7koLnPsrW7iMfMVLCG73fZ+CQ7+mCV3V/ee5wkDU9Dpo9YmNBDG1qjqw1qi1SIsobRYLFyuysrJCaGhoo8yyZtisbNa9zRYVnj9/nlfvv+jCk9iW8AHC3B5DN6e6d5enl0biRO7v6DIgCDCVCzXJmWgcTRDB76GOWLiqN8bbZeP42nTky1hirUHmygicKvHAvHW98cTKvlg4ToWL36Ui97aJKeezN/NrhBBCCCGEEEIIIaSpocC6llhAve7FGBz/IwODFrpjxtcBcAm6s9s34nA+9nydDK2GF+pKCxz4MVX4b7GZzXN+CEJA75a/GI4trVQrtTCtpsOahf8alRYugWa80nz06tULCQkJyMrK4hX9srOzw/jx44URGlFRUbx6/9zI34/dSV9guNeL6OAwgldrT6LMx47Ej9DTeRrSSyN4FbAY3B3vHw7DQ+PMIZLJkFUAmDmbwkx4vkgEh4ntMX2RL/z4j6XIQPfDpPv/t/8oJpZcRKFC/x3vhBBCCCGEEEIIIaThKLC+i9ICFf79NhkbX42FR3sLYfxHuwfsqpwXnJ8ix97FKUJIBm0pcvIO4UrGGWTKFXeEZkARMjI342zaKeTc1gGalywXxo7M/DZQmFvdGrBxIEx1gTUbB+IabA5Do+Z3l23sLmvGw8MDI0aMwJ49e4SFhffLpZztOJDyI8b4vIUQ20G8WnsarRo7kz6Fi1kQujlOQkZp5QCe7UnM2XAWHw88hcMGbgib7Ahzo7KfRdNAZ3TpZw6WX8vO3cTOXRr4z3OHk5FwupJUSTi/RgghhBBCCCGEEEKaEgqsq8FGUFzYmi2M/yjJVWLuT0FCZ7WxedWBKhsX8u/iZKgUWkAVjn2nRuCHG6twKu49/HD6LZwoyPtv1i5UV3FId/7ra2twIuYVfHrkWZwtrThpFyjKVCLpUjE/avnYOBAD3b2xuq9vargEHqHNa351RT179kRcXByys7N5Rf+Cg4PRr18/bNu2DXl5ebx675zJXI/jGX9got8H8Lfuwat1czjtN5SqCjDC6xXkyBOgveOpHhEcxnfGS9t7YoRTBrZ+noyUwoq30SB/9yUseyUDismdMWOcmRBg3y5TyudiE0IIIYQQQgghhJAmhQLrKiRdLsGfT0fh8vZcjHjZC5M/8oe9pyk/W7W08FLhwkhyf8JRiRFCAz7Fwj5/YLzxcRyL3418dVmwVpz+EQ4Wd8Ks/pvwYv81GGVyEjujL+D2iddnNzVeuNnUsA7r6rqrmbQbpXBv17zmV1dkY2ODtm3b4syZM7zSOLp16yb8d/7++29IJNUv+9S3o+nLcCFnC6b6fwovyw68WjdslEi47jLe522YGJqjVFnAzzBayJNycGFbBlJlYli4O6DvQkdor6cgPuHWkz0apC07g18+yIPJIz3x+AuOsK7mLsXGjhBCCCGEEEIIIYSQpocC6wqKMhXY8XECtr4fj5BBtpj3SzAC+9RufvSVXbllV3QsXJbg/aH/YoqbK0TqDGQpAGOxJUyFpYlyZOYmQ2YxDAGmhrrvgC86OpigNPcUcsumYvwn/WYpsuKk/KhlkxWrYFLNwkX2fWFd7s05sGbYLOuYmBjk5pbfVxpDWFgYnJ2dsXXrViiVt82b0TOtVoP9KT/gZv5BTAv4Aq7mwfxM3WSWxgijRFhntb2pF69WVnouCn99HY3Dh6WQa5RIO1IAlaMNHJ3K7jelhy5izTIZfN/vi/kP2aCmaecte30pIYQQQgghhBBCSPNFgbWOSqHBqTWZWPlEJAxEBpj/Wwh6z3SB2Lj2X57kKyX8Whm28C0ncSE+3j8Xhw2G4wG/B2EhBNYSlMjVuvdtjVvxrNjEEmJ1CopuC6yZlKuV329LxUaCVDu/OlwCBx+TGjuwmwNbW1uEhIQ06ixrhs1XHzlyJEQiEXbu3AmN5s4J6vrA5k3/k/wlEoovYnrAV3A09eFn6kaqKsT2xA/RzWkSAm368CpgbmTHrzEGsBvVAaM7qxD5w3l8N/oIlh+3xgNvBSPIld0vpLi6NBcZEhnOv3oYr3XajZfZZWwEkm9/6YKORaX3TQghhBBCCCGEEEKailYfWEefLMTKxyIRdbwAE97zw5j/+cDKyZifrR3W/SvJrzyDGjCCg+e3eHngMow0OYCtN7cgRcFuYwgDob/z1kBrHS27bgjDKr4bGVGtpMOaBdZWVU0bLlu46NHMu6tv6d27N6Kjoxt9xrSRkREmTJiA/Px8HDx4kFf1R6VRYFvCh8iWxmF64JewNXHjZ+pGWLKY+BkcTX3R12U2r5axFNvznxXOzAr9vw/Duxu7YfYP/fDm5i54oLspyp5XMkPvNcPx9ZWRlS872sCrimk+Lmb16wQnhBBCCCGEEEIIIY2r1QbWuUky/PVWHPZ+m4xuk5wwd0kwvDtZ8rN1wwLrchrIJadxIeUAUtVmMDfvjj4BvaAt2ICEUjZT2AK2ZmKo5AVQlP0DyGTFUIm9YVPFd0OS17gjHZoKeXH1HdZsNrh7aMsIrO3s7ITliI09y5oxMzPDpEmThID87NmzvFqGBcXRhSfwb/K3WBX1FL67Ng7fXB2FH65PxvqYV4Tlh5mlVS8mVKil2BL/DiSqPEwP+AJWRo78TN0dTV+OYmU2Rnm/BgMDEXJlSTibtUn4GJZGzIehwe1PHhnA2MkSHoFmsKjDKyBu527Rjl8jhBBCCCGEEEIIIU1Jqwus5aVqHP49DaufiYa1szHmL22DLuMcITKs/1RboUH6P1qU5i3BpptfY296EuTaIqRlXYXSyB8OJqzVUwwXxxBYSLbheokSUF3GqSw5rJz7w76K74a2caY5NDmsw9qkisBaLlEjJ1EGjxYSWDNslnVkZKTQ/dzY2BgS1mnNxpDcvHlTd1/V4nreXiEM3pH4MW7k70OOLAFqbdkrBJQaKdJKw3ExZyvWxDyPdTEvIaM0SjjHSFXF+Cvuf9BAjan+n8FMXLsZ71WJyD+Ma3m70dN5Ok5lrsHyiEfwZ9TTSCy5iGCb/ljQZimGej7Db60/vlbdYWPswo8IIYQQQgghhBBCSFPSagJrFtTd2JeHFQsjkR5eiulfBWDY854wt6l6DEVdmFlXDFoNYef+HkbbqRAf+xy+OzIGy7PbYWjHNxFsaiLcwtT1XYxzysCO40Pw/uEFOGM0DdMC2sNIOFuZmU3znttcW7JqOqzTwiWwtBfDxqVuY1qaMgcHBwQGBt6TLmvGzc0No0aNwt5D/2B9xBvYm7IYJcocfrZm6aURQmh9KnMtShS52BT3OkzF1pjk9xFMDM35repGri7FuaxN2J38lTAY50j67yhVFaCv60N4MnQ9pvp/iq5OE2Bj7Ipgm4GwMnIq+4d60t1pEr9GCCGEEEIIIYQQQpoaAy1Lclu4jKhSHPo5DYWZCgxY4Ip2D9gJi+n0RVqkxO/zIqCSV/xSaqCQJSFHZQJbcxeYi+58bkBeehO5Gmc4Wzqguti83zxX9JruzI9ari3vxMO7iyW6TawcTh7/IwMFaXJhtnhLkpOTg9WrV2P+/Pmwsal/l3JtydQl+PP6iyg2SOWVujMWmcPHsgtG+bwOQ4O6PdFTqMhEbNFp4ZJSck2YTe1k5o8BbgvgadEeIoPqn5hJLL6EzfFv8aOGaW83DMO8XuBHhBBCCCHkFldXV3Tv3l1Y2k0IIYQQok9sp1tJSQmuX7/OKzVr0R3WpYUq7F2cjA2vxMI91Bzzl4YgdKi9XsLq7Hgpzm7MwvpXYvDLrJuVl8MJRDA29YW7pVuVYTVjYt5Wd776sJrxaFe/LtbmRli6WFWHNVu42ILGgdzi6OgIf3//e9JlrdVqsCPh4waF1YxCUwoX86BahdXsebA0SQSOZ/yBPyKfxLKIBYgsOApviy5wMw+Bl2UnzAr8Ft66tzWF1YyPVRf0cp7Jj+rPydQfg9wf40eEEEIIIYQQQgghpClqkYG1Rq3FxW05WLEwAkXZSsz9MQiDFrrDxLz+4zWUcg3izhZh/5IU/D7vJtY8H4OkKyUI7m+D+b+HYORrXvyW+mPnYdIiw9qqsJEgt8+wVqu0Qne8ewsN7dmzS+Hh4SgqKuKVxnE5dyeSJVf4kRay5Hzc3J+JyAgpFLqflco0KI3LwfWDOUjNV/NauZOZq5EjS+RHlSk1MsQUnsLe5MX49eYcYdZ1nixJGMHxRLu1mBn4NRSaEkhU+Rjt/bqwZLG2+rrMQU+nafyo7pzNAjDF/9N6jzEhhBBCCCGEEEIIIfdGixsJwkLkQ7+kQinTIOxRdwT2rf+4haJMBeLOFSH+bDGSr5YIgapfD2v497ASxlcYm5UHrCwkX/lYJArSFbzScH49rTD2TR+IjVt0I7zg55k3hM/Vs4MlrwBpERJsfjMeT28KbdBSzKZs69atsLS0xNChQ3lFv1iI/Gv4HKE7Ghol4pacxbJNKlh7GEKRKIHRwDaY8boXvO1FEEGG2MUXsXydHFY+uvNpGgS80RPTx5hXehWAv3UvTPB9V7heosxDXNEZxOouySWXYWpoJZwP0F28LDtDLCqfzB5VcBx7kr/GzMBv4GTmx6t1E114ErsSPxWWPtZWN8dJ6Os6F0aishnyhBBCCCHkTjQShBBCCCGNpa4jQe5LYJ2fJkfcmSJkRkuRlyKHRqWFkYkIjn6mcA02Q2AfG5jVcRlicbYCR35PFwLmHlOd0WOKU52DXhY6p92UCAE1ez+5SXLh4/FnIXUvazj5m9Y4TiTlWgk2vh7HjxrG0dcUGo1GmIsd9pi78DVpyRaPvYo5PwQLn/ct5zdnI+FCMaZ84s8rLU9mZibWr1+PBQsWwMrKilf152rubuxP/UG4rslKwZJxN5EdEIhnV/rBPjUOi2ckwv+9nhg1zALi6Jv4bl4GvBb3w7TexijeeQrff2uCsX91RUc74V1wBujqOB6pkhvIlMbAydQPAda9hYuLeSC/TWWsK3tdzIt40OM5tLEL49W6iy48IXRwd3WaiBt5e1GkzOJnKhMbGOv+O4PRxWFcvcNxQgghhJDWhAJrQgghhDSWJh1Ys/EOJ1dnIuF8Ma9UzdDIAG3CbNF3riusHMs7NKuiUmhw/q9snN2UBb/u1hj0qBusnY352buTFqkQr/t44s8WIeFiCbQaLXy7WQmd1H49rGBex+D85OoMnF5bdYhWW+a2Ysz4OkD4PC7vyBG+Zu7tLDD4CXfYube8LlHWDf/DpOt4dFXbSt/vbR8mwNnfDH1mu/BKy7RlyxZh8eKQIUN4RX/+insLSSWXyg4UcqReKoTM0Q5+AUbQpiTgu6lJCPikO4YOMgf2ncVXn4kxaVtXdLDW3T41Br/NTIbF5/0xu0/ln0M7Y090dRoPf6tesDJ25NWqsYWPa6Ofh791b4S5P8qrdafWqvBH5BPo5DAG3ZwmCHOyCxTpiCs6iyPpv6Gvy0MwE1vB2SxQCNHFotr/HiCEEEIIae0osCaEEEJIY2mSSxdZ5/LxPzKw7qWYu4bVjFqpxY19+fjjiUjcPJTPq3eKOVmIlY9HIvJoASa864exb/nUKqzOipPizPpM4eP5eWY4zm7IgqWjEca97YOnNoRizP98EDrUrs5hNcPC1Z7TnPhR3bGweupn/rB1MxHGYHSd4IQFS9sI9VVPRuH4ynQh4G1JZMUq4e3tSxfLFi62/JnD7If22rVrwg+uPrFAN1MazY90jE3g0csZAQFGECkkOPdpDAo6eiKkrQnMdL8JTNzNYCUrQkyEUndjDYqjSpBeqEJJ0Z3PabFO6k4Oo+8aVrOFj7uTvtDdzhkD3Rbwav1cyWF/PGnR2XGMcMxe7WBn4g5Pi1AYiUzR22WG8DGxpY4UVhNCCCGEEEIIIYQ0T40eWLOwes/XyUIorK1jzqoo1WD3l8m4uDWbV8rkpciweVEc9nyTjK7jHTH3x2B4dy6ffXw7FvDGni7Evu9T8Nvcm1j3YgxSb0iELu5HlrXBw7+GCEsZvTpYNnhWMgvR+s1zxajXve8IYO/Gt7sVZn8fBAfv8rEYDAurR7zkJQTZCRdKsOKxspC+pZCVqGEoNoCRafndMT9FLtRdQ1p+YO3m5gZPT0+cP3+eV/SjVJUPufrOEFxTXIBDz57Gzjw3jH3ZE77OhsIvAnGHIDw4xAAXnzqCTyYdw3ffS2FpYwizKvZ+5lazePF2JzPXIEeWhDHeb0BkUP+lp6xL+3TWOvR3mw9Dg8pPJLFzJobV//wTQgghhBBCCCGEkOaj0QPrQ7+kIeJww8LVw7+lI/xAPhSlahxZmoY/n4oWRkcsWNZG6ECuKmQuSJfj0vYcIdj+adoNHPgxDWz89APPeAhd1JM+9EeXcY6wcdV/JyYLrdsMssW8X4PRc7ozzKxrDuq8Olpg3CIfTHzft8YRKO5tLTD7u0D00r3PA0tSsel/schNkvGzzRcLpk2sKn+NUsMlcPI3q7TYsiXr06cPrl69ColEwisNp9LeuQBUk5OFrfPO4piBN2Z+HoJOwcYof57AFB0+HoS3NnTE2Oc74pnvXMDWLbq63fk9qOp93y6m8BQuZP+NcT6LYCZu2Az2M5nrYW/ihWCb/rxSTq6WwJQCa0IIIYQQQgghhJAWoVFnWLPZ0FveiedHGsgkVxFflAeRRSj8rJxhfGuBoSoFWaUlUFb8SAyMYGHuC1txWVhmaGwAIzMRbF2MMeQpD7gGV+68ZZ3crGs67mwR4s8VC8sc3dqYw7+HFfx6WguzkO8XlVKDrFgpMqOkKExXQK37WE0sDOEcYArXIHNY6z6numKzt0/8kSGMTuk01gF9Z7vA2Lx5hrvRJwuFz4V1ut/y77fJwucz+HF3Xmn5Nm3aBGdnZwwaNIhXGkaizMOvN+fwIx15MfY/fAqnHf0x70N/eNqKUOmpntQYLH0oFfZf9cWkLiJk/HEWP221x8NrQ3D7j4+TqT/mBi/hR3fKkyVjbcwLGOLxFNrZPcCr9VOoyMTKyMcwLeBzuJm34dVy13L3ILzgAKYHfMkrhBBCCCGkrmiGNSGEEEIaS5NaurhsQQQKMxSAthhxUQuxLFkKewsryEpiYOj0Cma2nQAvEyMosl7Bz9dOI5ePDDHQlqJUbYPuPXZgpmN556RriBlmfhModDAzpYUqxJ8rQvzZYiRcLIaByEBYmOjf00p4a2Zd9xnUzU1mdCkO/pSGwiwFBi5wQ7sH7PiZ5uP63jxc+zcPM78O5BVg+aMR6P+QK4IH2PJKy5eSkoK///4bCxcuhLl5w0ehsB/tn8Kn/zcWRHr6Ej56PAOVevINzNH32x4YMdAcFoZyxC++gJWb5LBwBiRyS/T4oBPGdL/zCZU2tmEY5f0aP6pMri7F2pjn4WPZFUM8nuTV+tuV+Bm0uv83xud/vFLZ+ezNSJFcxwTfd3mFEEIIIYTUFQXWhBBCCGksTSqw/mbUVeGtRrYNS45+iSK7F/BYtymwl67AtyfWIaD9Uoxy84ZpxTZPTQSOnH0UR4z/h6c7j4JDhaElBrrrbGxGRqQUceeKkBElhYO3Cfx7WMO/l7XQUd3QGdTNEfsWsk7rYyvSYedhInSg38+O8ro6vzkbyVdLdN9bP+GYPRHxy8xwPLa6LSztqx+R0hJt3LhRmGk9YMAAXmmYv+LeQlLJJX5UO4r0AqTmiOHS1hLm1TznM8jtMXRzmsCPyrH74vbED4W50lP9P23Q3GomvTQSG2NfxcMhv8HG2JVXKzue8QdKFDkY4f0yrxBCCCGEkLqiwJoQQgghjaWugXWjz7BmREb9Mbnrp5jZdhgcdf9FAwMTGMIYIpEhKu9hVCEz5hUckPTA2HbDK4XVDFvauPW9BKRHliJ0qD0WrmiDeT+HYMACN3iEWrTKsJphHefth9ljwdI2cAk0w7oXYnDgx1TIilX8Fk0bm2FtWmGGNRvtwmaLt7awmmE/wJcvX4ZUKuWVhqlq5vPdGLvZwq9D9WG17h6HIJs+/HplZ7LWIVMajbE+bzY4rGaOpP2OTg5jqw2rGdZBbmJYxWZIQgghhBBCCCGEENLs3JPAGoYO8HAcgABLa4jUSTh742cU2E5Fe1unyt3VysPYnZQBO79n0cG06rArsJ+N0InbabQDrJ31vzCxOWNzsQc/4YFZ3wUiJ1GGFY9G4tqeXKHrtSljwbqpZfn3Oy1cAvd2DR+J0Rx5e3vDyckJFy5c4JWGaWs3GCYi/Ya5Ada9YG3swo/KxRWdxdmsjRjrswjm4oaPcokuPIE8eRJ6O8/glaqxpYsmtHSREEIIIYQQQgghpEW4N4E1p1Fex6ELc7FLMQoT206Gl4lxpQ+gMOV7xGp7YIiHH6pr7sxNrDSBl1TByc8M078IQNjj7ji5OhNrX4hBRlQpP9v0yEvUMKkQWLMOa9Yx31rd6rKWyRp+XzcSmaKf60P8qOEMDcTo7/owPyqXL0/F7qQvhSWLbublyzPrS61V4Vj6CvRyngVTsRWvVo2NH6HAmhBCCCGEEEIIIaRluGeBtUZ+FFtPLcQxg+mY0/VFhFpZwqTSBI8chKemQeQwC8EmvFQFhbTyEBFSvbaD7TD/9xB4dbTEhldisXdxMqSFTW9MiDAShAfWSrkGWTFSuLdrvYG1r68vHBwccPHiRV5pmE4Oo+Ft2ZkfNUw/13lwMPXmR2UUaim2J3yIENtBaG8/jFcb5kruLt3/1aKz45iyQg3YSBBTGglCCCGEEEIIIYQQ0iLcm8BaHY2D519HuMUTmN/pMYSYmeKOYR7K60iQG8LJuS1qWhdo2ErnVNeXsZkhBj7ihrk/BaEoW4nlj0bi8o4caNRNZ0wI67A2tSrrqWed4OxjZss0W7NevXrh0qVLkMvlvFJ/BgYijPF5E65mwbxSP10dJ6Cb4yR+VO7flG9gbGiBwR5P8ErDsBEfpzPXor/rfKGj+25oJAghhBBCCCGEEEJIy3FPAmtp/q84VFSK/KxvsfhAN7yyuxNe3j0amzNS8V/DtDICRVoHeFnW3Clp59G6g8z6svc0xZSP/THseU+c25yNNc9HC6M3mgJZcXmHdZruY3JrZy4skmzN/P39YWtrK4TW+mBqaIlJ/h/B36onr9Sege7XRF+XuRjk9ugd3xc2szpNEo6xPm/VKlyujTNZ62Fn4olg29otjKSRIIQQQgghhBBCCCEtxz0JrM0cv8LHI6/g60qXXZjs6gGzWx+B+RN4fOg/GG9bU3814BJU83lSs6B+Nnj41xD497TGX2/GYfeXSZDkKfnZ+4ONBLk1wzo1vBQerXgcSEVsljUbC6JQKHilYVhoPd73XQz3egnWRs68WjMPi1DMClyM3i4z7wirE4ov4FTmGiGstjSy59WGKVRk4lLOdiEcry02EsSERoIQQgghpCVTZ2L/J6/i+0t1azgpjT+AZR+9imeffhHvLNmJiGIar0gIIYSQpu+ezbDWF7+e1vwaqS8jExH6PeSKeb8EQyZRC2NCzm/Ovi9jQrRaLeS6j8HUyhBajRbpN1v3wsWKAgICYGVlJSxg1BcWOofaDcWCNssw3ucdtLcfDidTf4gNTIROahORBTwt2gujP+YE/YDpAV/CxTyQ/+tyBfJ07Er6HGHuj8Hdoh2vNtzx9BUIsO6le59teKVmKo0Saq1SCOMJIYQQQlqmElz5fjYmvvUttsTUdim3CmnbnkDXwKF4avlJREUew7Jnx6Jt96fxT5aa34YQQgghpGlq1MBaXHmrYoO5BpvBLcScH5GGsnUzwcT3/DD6dW9c2ZWLVU9FIelySdnJe4Qt0dRqIIwEyUmUQSXXwkX3fSZlWJf1hQsXoFTqtwteZGCIAJveGOb5POYGL8FzHbbgxY478XT7TZgW8AUGuS+Es1kAv3VlSo0M2xM/RJB1X2Gho76kl0YipuikMLu6tuTqYuEtjQQhhBBCSEukKYnA+mcGofdLB1CXR+marF14cf6vyByzFDdunsC/+88i4szbaBf1C15cch21jb0JIYQQQu6HRg2se0yp3diB2uo715VfI/rExoPM+zUYbcJssfX9eOz8JBHF2foZQ3E3bH41Y2JliLTwUjgHmUFs1Owa/xtNYGAgLCwscOXKFV65//amfAexgTGGeDzNK/pxNH0pOjmMha2JG6/cHVu4yDrDjUX0JAchhBBCWhjJabzarS1m/ibFpDcfgT8v350GmXu/x7bCrnjny7kIFFYAiWDV7Rn8tnIJ3hhg17h/BBJCCCGENFCjPlbpOd0ZTv6m/KhhOoywh283K35E9I2FxL1nugjzrdmYjhWPReLM+kyolY07505eoobY2ED477MlkDQOpDI2woN1WZ87d07vXdb1cT57M5JLrmCszyKIRUa82nDRhSeRK0tEb+cZvFI7MrUEJoa0pJMQQgghLZCBOULm/oIjiZex4qFg1P7peQkiDlyD3G84wlzycHbTEnzy/idYsiUJQbOfxvwHvWHMb0kIIYQQ0hQ1amBtKDbA+Hd8Ye3SsGDLu7Mlwh5350ekMVk7G2PsW77C9y38YAH+eDIK8eeK+Fn9Yx3WbH41Q4F11YKCgmBubo6rV6/yyv2RVHwZJzJWYYz3m7AyduTVhlNrVTiWvhy9nGfCVFy3J6XYSBAaB0IIIYSQFsm8Ix5b9DgGutU1XpYhIyZH98dYBr4b7I9ec97HL799imen9kBA2Ps4VUCLFwkhhBDStDX6q8FYADrt8wA4+tav0zqwjzXGv+srLAok945PFys89FMwOo50wM7PkrD1/QQUZuh/TIisRA0TS0MU5yhQnK2Ee1uaUX471j3cq1cvnD9/HiqVilfvrSJFJnYmfab7g+kReFq251X9uJK7C1po0NlhDK/UHhsJYmJIT3IQQgghpGljj+dqe2kwtRRFUi0QtQIH2v2Cm3nZSErNQfzGh2F74j3M+eQCSvlNK2KvsszPz8eZM2fuuOTl5fFbEUIIIYRULysrq8rHEiUlJcJjjdq6JykwC61nfxcojAgxNKrdgzBTa0MMf8kLYxf5UFh9n7AO+e6TnTD/txAYm4nwxxOROPlnBpRy/XVlyIpVMLUUI/VGKey9TGBmLeZnSEUhIbrvgbExrl27xiv3jkqjwPbEj+Bv1QNdHMfxqn6wwPl05loMcJ0Pw3qMGJFrWGBNHdaEEEIIIf8xNIE5a8o27If3P5+NNsJz+ybwnfQeFvU0QNy2nYiRs1pl7I/IGzdu4Lnnnrvj0pT2qRBCCCGk6Tpx4kSVjyUSEhL4LWrHQPfApPbxth5Ii1S49m8e4s4UIStGCpWi/D9vamkIlyAztBlsi5CBthAbU1DdlKRcL8HBn9KgKFVj0GPuCOprw8/UnlajRX6qHBnRUhTo3qZcl0CSr4KNmzFMLAwx+jVvfktyu/DwcBw/fhwLFiyAWHzvgv3dSV8hV56IGQFfQyzS78TDo+nLkCoJx8zAr3mlbs5krkeWNBZjfd/iFUIIIYSQlkcR+QW6tnkTThszcWiqA69WpxD7Z/vhwe1h2Jn8N0bb8jIKsHOiF8aem4cTkUvQ97YXqbm6uqJ79+7YuXMnrxBCCCGE6Afbz8a6rK9fv84rNbvniTDroO051RkzvgrEM5vb45EVbfDwb8F4dFVbPLmhHSZ/7I/QofYUVjdBnu0tMeeHIHSb5IS93yZj86I45KdU0Z5RBYVUjQtbs7Hi0UisfDwKe75Kxul1WUi5JhHeR8K5YkQeLsBfb8Uh9kxRnV4m0Fq0adNGCKpZ58u9cjFnG+KLz2Ocz9t6D6vZmJFLOdsxyO1RXqm7sg5rGglCCCGEEFLOCu1GdIZxyUUcipTwmo48GRfCS2Do2wVe+tmLTwghhBDSKO5rKiwyNICNizHsPU1h5Wikn5ltpFGx71mXcY6Yv7QNLB2MsOqpKBxbng6lrPoxIUlXSoTljUd+S0dBes1zsJMulWDb+wnY+m4CinOUvEoYkUiEnj174uzZs1Cr1bzaeFJKrgnLEMf4/A/Wxs68qj/HMlYiwLoX3C3a8Erdlc2wppEghBBCCGnFZDfx+9PTMWfRPmQJD8lFcB39JuZ5JOLbh1/En1dyISuIwOb/zccnUfaY8soYeJTtPCeEEEIIaZKojZnUi7mNGMNf9MK0LwKEQHrFoxGIOFLAz5a7sisXf/0vDsVZdQuf488X489nopAdL+UVwrRr1054Yqexu6yLFTnYkfgJ+rvOg7dlJ17Vn4zSKMQUntC9//m8Uj8ydTFMKbAmhBBCSGumzMSpTRuxZlcEJLyHRGQ/FN/+uxRzjdbgoc6OMLNriylL8jDis534eZwL/RFICCGEkCbtns+wJi0Pm0vN5pIfX5kBR19TDHnKA44+pkJt33cp/Fb1w5ZvzvgqQOjCJ2WuXr0qdFmzWdas61rfVBolNsa+ChsTN4z2fp1X9WuD7v27mAUhzP0xXqmfv+LeRKB1H3R2HMsrhBBCCCGknAK5MTcQU2AKr7YhcLeo/rEjzbAmhBBCSGNp8jOsSctjIDJAx5EOmL80BPZeJljzbDR2f5WEAz+m8ltoIJNcRHj6PkQUZqBUU834EE0GkrJOIUfFj3VkRWrs/jIZGjU9r3JLaGioMOObLWFsDAdSl0CtVWKY5/O8ol/RhSeRI0tEb+eZvFJ/NBKEEEIIIaQmxnAI7IJe3dvWGFYTQgghhDQl9KiF6I2ZlRhDn/HEjG8CEHOqCBqVFtAWIy5yJj489R72J63BtnMT8cO1bUhWqFA5tpYhK/EN/HrhC1ySVUisdTKjpbi4NYcfEUNDw/9mWWuqC//r6UruLsQWncI437dhJNJ/V7taqxLmYrOw2lRsxav1x0aCUGBNCCGEEEIIIYQQ0nJQYE30TqMClNKyIFUjP4hdiVnw8Hwds3qsxMt9HoNh5lKcz02HvELTtKLgR/wdHw+1gQGq6qVmgTV1WZdr3749VCoVIiIieKXh0iThOJz2G0Z5vwEbY1de1a+ruf/ovr8adHYYwysNwzqsTQ0t+BEhhBBCCCGEEEIIae4osCZ6d3V3Lr+mu4MZ9cekrh9guGcH2OvubQYGJro7HQuzKwTTqrM4HnEQYr9H4GFYdShdkqsUFjGSMqzLukePHjh9+rQwHqShSpR52JH4Mfq4zIavVVde1S8WLp/KXIsBrvNhKDLi1YahkSCEEEIIIYQQQgghLQsF1kTvUsMl/JqOoQM8HAcgwNIaInUSzlz/CQW209DJ3gWmBuwGRYiP+gynjJ7AOGdDaFB5HEhFqTcqvF+CDh06QKlUNrjLWq1RCmG1h0UoejpP41X9O5O1AXYm7gi2HcArDaNQlwrd2hRYE0IIIYQQQgghhLQcFFgTvZKXqlGQquBH5TTK6zh4fjb+UY7ExLZT4WlsJNz5SjLfx99ZgRjVbiScRUoYGVTfeZsZXcqvEUYsFgub3M+cOdOgLutDab8K4e9wr5d4Rf+KFJm4lLMNg9we5ZWGY93VjAmNBCGEEEIIIYQQQghpMSiwJnolLbyzQ1ojP4q/Ty7AcYMZmNP1ZbS3soSx0F2dg9ikU0iTHsD6o33xxtHvEauMxb8nRmBL3p3d1KUF1Xdft1YdO3aETCZDVFQUr9TNtbx/EVlwpNGWLN5yLGMl/K17wt2iLa80nExdAkMDse7jNuEVQgghhBBCCCGEENLcUWBNGpc6GgfOv4ZIq+cwv/PjCDEzRXkPtSNCu/yDD4ccxLth+/BOvxfgJw7A0N5/Y7TtnV2zGo1GuJByRkZG/3VZS5VFuJq7G3tTvsOa6OexIvIxrIp6CtsTPhLGcWRJ4/i/KpNeGolDqT9jpPdrwqiOxpJRGoWYwhMY4LqAV/RDri6hcSCEEEIIIYQQQgghLYyBVh8b2wjhFFI1lky+wY8Aac4r+OjcPsj4cRlP9O3yG0Y6e8C84lMmpT/g+xP70L7v3xhiIebFCuxzIep+BVZWVrCxsYGtra3wtuJ1E5PW121bKM3GymNvQ+uaDg2UvFo1Nqe6j8scOJh4Y03Mc+hoPxK9XWbxs41jQ+xrcDELRJj7Y7yiH7GFp3E0Yxnmh/zOK4QQQgghpL5cXV2FRoidO3fyCiGEEEKIfvTu3RslJSW4fv06r9SMAmuidysfj0Respwf6U/3KQ4IHW+KgoICFBYWCpeK19VqNUxNTe8IsW9dZ0G3gYEwi6TFiC48gX0p30OmLuaV2rEQ28PZLAgTfN9p1K9JTOFJ/JuyGI+ELIOp2IpX9eNG/n5cydmFWUHf8gohhBBCCKkvCqwJIYQQ0lgosCb33f4lKbj6Tx4/0p9JH/rBt1vVoSe7G0skkkoBdsVAu7S0FCKRCNbW1tUG2sbGxvy9NQ9s/vS+lO/4Ud35WHbBeN93IRY1zuet1qrwR+ST6OQwEt2cJvGq/lzM3oqE4guY5P8hrxBCCCGEkPqiwJoQQgghjYUCa3LfZcVJsfqZaH6kHzauxliwNAQGovp1AyuVykoBdsVAu6io6L/u7NtD7FtvLS0tm1R3Nutc3p74ET+qv2Cb/hjt/b9G+dwu5WzHxZyteDj4VxiKyieX68upzDXIkyVjtM8bvEIIIYQQQuqLAmtCCCGENBYKrEmTsHlRHBIvlvCjhnvgaQ90Gu3Aj/SL/QiwH5rqAm2pVApDQ8Mau7PZ8sN7pVRVgJWRT0CmLhKONRIJki4WoURsAc/OVrAxM0DF+FldXIyE8yWQ6j7+wM4WMDXkJ7iRXq+ird1gfqQfcrUEyyIewQMeTyHEdiCv6tfhtF+h0igx1PMZXiGEEEIIIfVFgTUhhBBCGgsF1qRJKMxUYNWTUVDKNLxSf54dLDD1U/96d1c3lEKhqBRgV7zOurM1Gg3MzMyq7M5mF313Z+9PWYKref/ormkhvRSJX59NQam3JUwLi5Ft6IiRH7ZDn44mMNL9JxU3o7DsyUTkeVrDJKMAxX7BeGKJH9wq7KY0M7TGo21X6XU0yNH05UiVXMfMwG94Rf/2JH8NS7ED+rs9zCuEEEIIIaS+KLAmhBBCSGOhwJo0GVHHC7Hrs0RoG5BZWzkZYfqXAbB2bprzpdmPT3Fx8R1h9q1jmUwmdGffCq9vXSoG2nXpzpapS/Bb+FyotHJAI8PZeUexS+KEQd90whAPKQ5OP45zPTrgqZfdYGWsRPQ7x7EqKwQv/eIBu+RoLJmRBKdvB2F6TzF/j2VGeL2MdnYP8KOGKVJkYkXkY5jq/xncLdryqv5tS/gA7uZt0cN5Kq8QQgghhJD6osCaEEIIIY2FAmvSpEQeKcA/XybVK7Q2MJdj1lchcPG15pXmRy6XVwqwK15nQTfrzjY3N68UYFcMtFl3dkU38vbj35RbXctqFEfmI6XEFL6dLWGmLcXxWcdxsntHLHzWBfZmaiR9eRy/nffEYyv94RIViZ+fyUHbZX0xPLjyXBC2gHGy/8f8qGH+SfoCaq0SY33e4pXGsTH2NbSxHYyODiN5hRBCCCGE1BcF1oQQQghpLBRYkyYnK1aKPV8nIydBxit313aILYrdzsPQVItJkyY1qYWH+sLC6pq6s1nYLRaLhdnZtwLsTLujSBOd4e+hIjVyNl3A9z8CYd92Qu+OJjA3BFQZydj62A2cShHBUK2G7eTueP4tJ1jcNsfaxNAST7Xb0OCvc0ZpFDbEvoJ5wb/C1sSNVxvHqqin0Nt5JoJtB/AKIYQQQgipLwqsCSGEENJYKLAmTZJaqRFGhFzenov0yFJerUwkNkBwfxt0HucA9zYWwrLDNWvWICQkBAMGtL5Qko0TqRhgs7dRVmshN8/kt+A0SiStvIjlK1TouKgjBg2yhIOpAaCS4OKLp7FV5ouZH3nD6Vok1n+QCat3+mHeUFP+j8stbLMS1sbO/Kh+NsS+BhezAIS5P84rjef3m/MwzPN5+Fh15RVCCCGEEFJfFFgTQgghpLHUNbAW8beENCpDIxHaDrbDzG8D8eT6dpj0oR8GP+GOQQvdMPRZD8z8JhDP/BWKUa95C2E1wxYZjh8/HpcuXUJUVJRQa01MTU3h4uKC4OBg9OzZEw8++CCs7cu+Nv9RyxH+yUn8utYAfT7rigcHW5WF1UxhLiIjDOA/xwttXYzgODQI/dtoEPdPYdn52yg1te+Ar0pM4UnkyBLQy3kWrzQuubpE6AwnhBBCCCGEEEIIIS0HBdbknjOzFsO3mxW6jHNEt0lO6DjSAW5tzCE2vvPu6OTkhOHDh2PPnj3Izs7m1dbL0KDiskQ10pedw9oTlhj9XWcM7WsGq4q7Ka0s4WSjQtrpEgg97UVFSMnSwiLQTDh9O5HBbXNC6kCjVeNo+gr0dp4BM7EVrzYe9t9TaKQUWBNCCCGEEL1hDRwJxRcRUXAEUQXHkCq5ITzuJIQQQsi9RYE1afLYSJDOnTtj+/btwpiQ1szWxJ1f0ynOx76VxZCmZWHzrAN4rfNuvNxpNz75OANFMi1gbI/eL7jB/sB5fDLiKD4dfwkXXf0xdc6dSyxFBmJYG9V/HMiV3F3QQo3ODmN5pXHJ1WVjZUwNb+s4J4QQQgghpI4KFRk4lblWGG93KO1n3fXVOJG5CntTFmNT3P9wOWcHpKpifmtCCCGENDaaYU2aBXY3/fvvv4XrEydOhEjUOp9ruZi9FYfTf+NHtaRSIPtmMaQ21nD3NkLFHu1bXMyCMDvoO35UNyw8XhaxAA94PIUQ24G82rgK5OlYHvkIXuiwo0Gd4YQQQgghpExrnWEdX3wex9KXQ61V8krVzAxt8KDnc3Aw9eYVQgghhNQWzbAmLZKBgQFGjx4tLB88fvw4r7Y+ftY9+LU6EBvDqYMDvKsJqxl/6178Wt2dzVoPOxO3exZWM2x+tZHIlMJqQgghhBBSb0kll3Ek7fe7htWMVF2If5O/FbqxCSGEENK4KLAmzQZbQjhu3DhcuXIFERERvNq62Jl4wNeyGz/SDxEM0dF+BD+qmyJFJi7mbMMgt0d55d6QqyUwoXEghBBCCCGknti86mPpK6CFhlfuTq4p0f2blfyIEEIIIY2FAmvSrNxawrh3715kZWXxauvSx3WO7v8alB3oQWfHsbAwsudHdXM84w/4W/WEu0U7Xrk3ZLo/FkxEtHCREEIIIYTUT2zRGSg0bC+KGjn7z2PJzC14/+FjOBLJu60VRTj/1T58MmUXlq3Jxa1NOtmyWOTKkvgRIYQQQhoDBdak2QkODkaXLl1a7RJGN/MQ9HSayo8axtbYA/1c5/GjuskojUJ04XEMcFvAK/eOXFUCUzEF1oQQQgghpH4iCg6XXSnJxPYPIqAa1Q0POCdj3ceJKNRokPXXYSzfa44HnvSA9GgckivsXLxZcIhfq79saTwSii8KM7TTSyOh0ar5GUIIIYRQYE2apf79+8Pe3l5YCqPRPaBsbfq6zkWwTX9+VD+WYgdM9HsPRiITXqmbo+lL0clhNGxN3Hjl3pFrJDAR0UgQQgghhBBSd2xpeL48pezA0h0Ljs7GC7McYarQwMTeGGKREmnH86ExLcHJP7NgOywA3hUeemaWRvFrdcPGkITnH8Df8e9gZ9InOJT2Mw6n/Yo9yV9hU9wbuJSzHaWqAn5rQgghpPWiwJo0S2wJ46hRo1BcXIxjx47xauvBlg2O8n4d7e2G8Urd2Jl4YmrAZ8JM7PqIKTyFbFkCejnP4pV7S6YugYkhdVgTQgghhJC6U2pue5WmWoqrn+/BsouumPaKByyghapUBYXWEcMec0D0J0dxJLG8A1px+7+vBbascWvC+ziTtV53PZ1Xy7Gg+nLuDiHMTpPc5FVCCCGkdaLAmjRbt5YwXr16FTdvtr4HdSy0Hub1Asb5vA1LIwderRlbsGig+79jvd+qd1jNXq54LGM5ejlPh5nYilfvLbZ00ZQCa0IIIYQQUg9iA2N+jVEgdsm/+GmnFab/3h/dndiuGEPYBVvA2NoSrsH2sBMrUCzVlt1cR1zHVygWK3OwO+krlOje3g0L0/en/iCM3yOEEEJaKwqsSbPm6OiIESNGYN++fa12CWOgTR8sbLMSY3zeRIB1b5iL7fiZMuwBuZt5W/RzeQiPtfsTIbYDcSJzFT9bd1dyd0GtUaGLwzheuffkQoc1jQQhhBBCCCF1x16pZ8EfM2syE7F5aS4UeYlYNX41npx+E9kqI/jM7YpOGSfx1vAjSOnRAf0CxcLtGXsTT36tdo6lL4dUXciP7k6tVeJQ2q+6typeIYQQQloXA60Ov05Is3X8+HGhy3rOnDkwMzPj1daJ/UizB8QKtVTowmbd1+ztLazDY0XEoxjv+zZ8rLryau2weX/LIhbgAY8nEWI7iFfvvS3x78Dbsgu6OU3kFUIIIYQQ0hCurq7o3r27sCOmNbicsxOXcrfxo2po1JBKABMrw0qdXsM8X4CHRSg/qlmeLBnbEj/QXVMjZ/8lrF+WjFwTR4T9rzcGhRjp6nJEfHkE268rddeNEfR8GCZ2ZXVgoOsjCLDpLVwnhBBCmrPevXujpKQE169f55WaUYc1aRH69esndFu31iWMFbH53uZiW2EZorWxc6WwmrEychTGebCujbpuIz+btR52uvd7P8NqRkYjQQghhBBCSAME2w7Q/TFc3jVdJZEhzG4Lq62MnGsdVjM3Cw6XXSnJxPYPIqAa1Q0POCdj3ceJKGR/tkgLcXFPJrTtfdBtmDf8ncv/a//9W0IIIaSVocCatAgVlzAePXqUV0l1ujlNFl5qeClnB6/cXZEiS9hcPsjtUV65f2gkCCGEEEIIaQhzsQ26ONZtxB3bB9PHpW5Lx9NKw8uuWLpjwdHZeGGWI0wVGpjYG0Os+2tcU5SP2DQ50vbcwNETEhibsRnaZbJlsVBq5PyIEEIIaT0osCYthomJCcaPH49r164hPJw/MCRVEouMhOD5VOZqlKpqN0/veMZK+Fn1gLtFO165f8oCa+qwJoQQQggh9dfRYSQ62o/kRzUzNDDCALdH6tRdzSjVMn5NRy3F1c/3YNlFV0x7xQNC+4WxHR5YNAjPLh2ErsmX8cfqfLDhILewJYyEEEJIa0OBNWlRHBwcMHLkSOzfvx+ZmZm8SqrCljW6mYcIQfTdsC3l0YXHdQ/SF/DK/SVXSyiwJoQQQgghDdbNaRIGuz8BJ1N/XqnMQPcns5dFJ4zwegX+1j14tfYMRWXzqAEFYpf8i592WmH67/3R3amsk1qdX4C0NA3MXazhZCeCWqZGxQGHhgbG/BohhBDSelBgTVqcwMBAdOvWDdu3b0dpaSmvkqqwB+c38w8gszSaV6p2NH0pOjqMFuZi328qjRIqrQKmNBKEEEIIIYToga9VN4zx+R/G+byNjvajEGwzACE2g9DVcQKm+H+CoZ7PwNms6kD7bmyNyx4/azITsXlpLhR5iVg1fjWenH4T2SrA0M4CyhMn8e6ATfgjyRPjZjrARPgXbGyJLUwMzfkRIYQQ0noYaHX4dUJaDHa33rZtGxQKBaZMmQKRiJ6bqc7htN+QXhqJGQFfCbPAbxdTeAr/Jn+DBW2Ww0xsxav3j0SZj19vzsbToZtojjUhhBBCWgk1Mvd/jq/CR+LL57rw2t3JEg9hzZ//4FK6EraBAzB13gR0sq+8kPsWV1dXdO/eXVhiTvQnofgCDqX9wo+qo4E0XwGRtanu8S0v6XR2GFvnOduEEEJIU9S7d2+UlJTg+vXrvFIzSvFIi8SCVzYaRCKR4MiRI7xKqtLHZTYK5Gm4WXCIV8pptGocy1iOXi4zmkRYzbBxIOzFmcYi6jYhhBBCSOtQcuV7zJ74Fr7dEsMrd6NB/vG30D9oCBZ+vx/hMeex8a0p6NxuKpbFKvhtyL3gbdkZ5mI7flQdEczsKofVbMFjiO1AfkQIIYS0LhRYkxbr1hLGGzduCBdSNdal3N/tYRxLXw6FuvJSl6u5/0CtUaGLQ9Pp7JAJCxctquwGJ4QQQghpUTQliFj/DAb1fgkHSnitNlTx+POFT3HB43kcjrqAg/8ex/UbyzFSsgWvvLkf+fxmpPGJDAzR02mq7lrdHrt2sB8hjAQhhBBCWiMKrEmLZm9vL3RaHzhwABkZGbxKbtfebhgsjRxwJms9r7BO5lKcylyDAW4PV1gWc//JdX+4mYhoFAghhBBCWjoJTr/aDW1n/gbppDfxSF1GKMtScS1FC+tuw9DJtuxPPmPvIRgXAhRERCBXJZTIPeJn3QO9nWcKCxxro43tYHR1msCPCCGEkNaHAmvS4gUEBKBHjx60hLEGrFuZLWC8mLMV+fI0oXY2a4OwZDHEdpBw3FSwkSCmYkt+RAghhBDSUhnAPGQufjmSiMsrHkKwGS/XhlkQhnS3RNGhpdgaI9MVNCg4twrLrwKeA3rBVVx2M3LvtLUbjAc9n4OzWSCv3MnG2A39XOehj8ssXiGEEEJaJwqsSavAhru7uLhgx44dUKvVvEoqcrdoK2xEZ0sYixRZQng90G0hP9t0yNlIEBEF1oQQQghp6czR8bFFeHygG4x5pdYM3TBt+Xa8E3oA84Mc4eblAuc+7yBt7I/Y+Wkf0COp+8PDIhSjvV/HeJ93EWr3IHytusPHsitCbAZhhNfLmOT3ge7xeH9+a0IIIaT1osCatAq3ljCyDuvDhw/zKrndALcFSJFcxZ7kr+Fn1UN4UN3U3JphTQghhBDSXLDHorW96IU6G0e+fg1fHTNA99nP4tlnn8FjI/2QseVTfLguCqznmtw/9qae6Ok8DYPdH8cQjyfR13UO3Mzb8LOEEEIIMdDq8OuEtHj5+flYs2YNwsLC0L59e14lFR1M/RmXc3dgXvAvcDD15tWm42j6cshURRjm9QKvEEIIIYQ0bXUJoqv880wRiS+6tsGbThuhOsQW+NVMdnkROnb5GKbvX8bpdzrBnBXVWdi5oAPGbuyAVTH/Yq6HoXDbW5ydnaFSqRAaemfDwkcffYRBg5rWmDhCCCGEND3btm3DV199xY/KXb58Gd7e3rhx4wav1IwCa9LqxMXFYefOnZg6dSrc3Nx4ldyyIeZV5MgS0MtlBro7TebVpmNfyvcwFpljkHvTG1dCCCGEENIo6hhY524Mg8v0FLx28To+6WLKq0DBnmnwHXkEkw/FYFmYFa+WYePz2O6Xzz//nFfKtW3bFo6OjvyIEEIIIaRqGRkZiI6O5kflHn/8ceEJ/NoG1jQShLQ6/v7+6NmzpzDPWiKR8CphYgtPC2H1EI+ncTpzLSTKfH6m6RBmWNNIEEIIIYSQaontPWGDbEQkVXysq0ZRcipKdGc87Ix4rRz7I9Le3h4DBgy440JhNSGEEEJqw9XVtcrHEtbW1nV6xRkF1qRV6tWrl/BDREsYy2m0ahzNWCZ0Vre1C4O7RSiOZazgZ5sOmVpCgTUhhBBCyC2ym/j96emYs2gfsjRlJZteT2FeYBG2PP0klpxI0z1+KkXi/s+x8LWTEPV5AjPblHddE0IIIYQ0NRRYk1aJPaszYsQIyGQyHDp0iFdbt6u5/0CtUaGzwzjheLD7Y4gsOIz00kjhuKlgHdamhpVfwkoIIYQQ0mopM3Fq00as2RUBCQ+sYdUXn+z6E4+77sOz/T1gJraA74Nv4UbXN7F183Noa8JvRwghhBDSBFFgTVotY2NjjB8/HpGRkbh27Rqvtk5ydSlOZa5Bf7eHIRaVvUTUzsRTCK8Ppf5S9fKf+4RGghBCCCGk1TEOwWvXtVXPr7YKw/IsLbSXnoWfmNd0TIPn4Jfz2SiIv4LTJ8/iRqoEyQc+xii3CjcihBBCCGmCKLAmrZqdnR1GjhwpdFmnpaXxautzNmsDbIzd0Ma28vb3Pi6zUKTMQnj+AV65/2gkCCGEEEJIbYlh49sRvfr0QDt3c/rjjxBCCCHNAj1mIa0eW8LIZlqzedYlJSW82noUK7JxKWcbBrkv5JVyxobmGOD6sDDLWqEu5dX7i0aCEEIIIYQQQgghhLRcFFgTosMCa3d391a5hPF4xkr4WnWHh0Uor1TWzm4orI2ccCpzLa/cPwq1FFpoqMOaEEIIIaQFk8vl/BpRqVS0JL4Cum+UY/cNdiFl6L5Rjv3OoPtGObpvlGtO9w0KrAnhhg8fDoVC0aqWMGaWRiOq8BgGuC3glTuxBZWDPZ7E5dztyJen8Or9IVdLhLcUWBNCCCGEtEzsFY8ODg78iCxatAhffvklP2rdWNBibm7Oj8hHH30kXEgZdt+gJ3fKfP7553jnnXf4EWGjYEtLm8Yrxu+3xYsX4/XXX+dHTRsF1oRwFZcwXr16lVdbtiPpS9HRfhTsTNx5pWpu5iEIsQ3DobTfeOX+kKmLITIQw0hkyiuEEEIIIYQQQgghpCWhwJqQCmxtbTF69OhWsYQxtvA0sqVx6O0yi1dqxmZZp0luIK7oLK/ce6zD2kRE3dWEEEIIIYQQQgghLRUF1oTcxtfXF3369GnRSxg1WjWOZixHL5cZMBNb82rNLIzshXD7cNpvUGuUvHpvyTUSmBha8iNCCCGEEEIIIYQQ0tJQYE1IFXr27AkPD48Wu4Txau5uIXTu7DCOV2qni+N4Yab1xZytvHJvsZEgphRYE0IIIYQQQgghhLRYBlodfp0QUoFSqcS6devg6uqKYcOG8WrzJ1eXYnnEAmGRYhvbQbxae/HF57Ez8VPMD/kdlkb2vHpvXMzZhviic5jsT8tFCCGEEEL0ycbGBt7e3nj66ad55f6QyWTCQqjvvvuOV1q3LVu2wMzMDCNGjOCV1kuj0eCZZ57BTz/9xCut286dO4W3Y8aMEd62dk899RSWLFkCkYj6Mnfv3g25XI4JEybwSuv23HPP4auvvhL2lrV2+/btQ2FhIaZMmcIr9w5bBqpSqZCcnMwrNaPAmpAaFBQUYO3atejXrx86derEq83b8fSVSCq5gllB3/JK3W2Jf0/odB7p/Qqv3BunMtciV5aEMT5v8AohhBBCCNEHQ0NDIRAkhBBCCGkMJiYmwhPTtUGBNSF3kZCQgG3btgnPQLExIc1ZsSIbKyIfxWT/j+FhEcqrdZcvT8OqqCcw1f8LuFu04dXGdzjtV6g0Sgz1fIZXCCGEEEKIPvz1118wMjKCp6cnrxBCCCGE6AfL1tjjjHHjajealgJrQmrh3LlzuHDhAmbPng0rKytebX52J30JpUaGcb5v80r9HUtfXtapHbhYmGt9L+xJ/gYWYjsMcJvPK4QQQgghhBBCCCGkJaHhPoTUQo8ePeDl5SUsYWQzd5qjzNIYRBUewwC3BbzSML2cZ6JEmYsb+ft4pfHJ1RKY0NJFQgghhBBCCCGEkBaLAmtCaoktXlSr1Thw4ACvNC9H05eio/0o2JnoZ6yJsaGZ0Ol8LH2FECTfC3J1sTA7mxBCCCGEEEIIIYS0TBRYE1JLt2btxMbG4vLly7zaPMQWnUGWNBa9XWbxin60tR0CWxM3nMpcwyuNq6zD2oIfEUIIIYQQQgghhJCWhgJrQurAxsYGY8aMwZEjR5CSksKrTZtGq8bR9GXo6TwdZmJrXtUPNrt6sPsTuJK7E3myZF5tPDIaCUIIIYQQQgghhBDSotHSRULq4fz588Iixjlz5jT5JYyXc3bifPZfeDjkd4hFRryqX3uTF6NYmYPJ/h/xSuNYcn0ypvh/ClfzYF4hhBBCCCEtixqZ+z/HV+Ej8eVzXXjt7hQZJ7FhxVacTVHBof0wzJk7DIGWzbg/S5GBkxtWYOvZFKgc2mPYnLkYFmhZq44zefw/WLcvBQp+XEYM576TMa69TRPtWlMg4+QGrNh6FikqB7QfNgdzhwWitt9C+v6Xa57f/9pRZ+7H51+FY+R7z6FLbV9424CvZdNWj9+V8nj8s24fUirfOSB27ovJ49rDprl9UTTFiNizBhsPXke63BxeXUZg1oww+JrX7hNpab83NMUR2LNmIw5eT4fc3AtdRszCjDBf1ObL0SR/b7DAmhBSd7t27dKuXr1aq1QqeaXpkakk2p+uT9fezDvEK41DoizQ/nBtsjam4BSv6J9Go9Z+fWWkNk+WwiuEEEIIIaSlKb78jfYBS2gNwzbyyt1Jry/WDrWBFs5dtGFhnbVuImhFbZ/V7s5U8Vs0M9Lr2sVDbbSAs7ZLWJi2s5tIC1Fb7bO7M7V3/4yk2stvB7GmtDsu7b+M1Mr5rZoWqfb64qFaG93H6NwlTBvW2U0rgkjb9tnd2tp8C+n7X1Fz/P7XUvFl7TcPWGphGKbdmMNrd9Ogr2XTVq/flZff1gZVcd9A+y+1kc3tziGP066a4aX7+I203j2HakcM7qR10n0uorZPaXek1+InpYX93pDHrdLO8NJ9Pkbe2p5DR2gHd3LSfW10v0ef2qG9+5ejaf7eoMCakHpSKBTaVatWaXfv3s0rTc+xtBXaNVHPazUaDa80nvNZf2uX3pyvVaoVvKJfUmWREFizcJwQQgghhLQw6mLtzXVPa7ualv2RXOsQRhmv/S3MWAufZ7QH89RCqfjS59r+uvfj/fxJbYlQaU6U2vjfwrTG8NE+czBPK3xGxZe0n/c31cL7ee3Ju35Cmdr1Q4y06PqDNq6Z5C7K+N+0YcbQ+jxzUFv2LSzWXvq8v9YU3trn7/YJ0/f/Ns3v+393am3xzXXap7vqvgYsRKt1YN3Qr2UTVd/flTqZ64dojdBV+0MLuHPkbJ+itYW1dvSyWB6oqrVFZ9/XdjWE1uPpEzX/7P+/vTuBj7K69z/+ncwkISE7hAABGwmCCyAQBRc2xaXqRVs3REGuYsWLWmxte3sV9LZ/LX9f9VbLtVoXlCK2Rbj/izuCC1tAEZBFFhGCCWQPgeyTzPL8ZyYHSQDDkm0mft6v1+Mz5/fMxJxznhwyv5w5p8ONGyXW2zcnWIq7zpqzx6SXPeXWut8NtexKte7PPFGNgnPcCN257kA782/CeMMNNygrK0tffvmliQaPirpibSxZrNE9fxZYa7q1Del6vey2cG0o/h8TaVlOT2Xg3Ik1rAEAADqYKn326wydM+El1dz4iKb0MeGT4Mldqjkr6jRg2v26NLH+7W3M4Kl67KYk5bw5Vxvrf4UMHZ5cLZ2zQnUDpun+SxPrP4YdM1hTH7tJSTlvau6JKlSVpTW7XOpx4WAl200sqHmUu3SOVtQN0LT7L1V9F8Zo8NTHdFNSjt6cu1FN1Zj+P0rI9f+JVX32a2WcM0Ev1dyoR05tcGheWwal0x8r/a/NWrNLrh4XanDI3xzV2re5ULH9b9EvbuqjiEAsTLFD7tCkAVLu2s0q8QSCx9Xhxo3qfdpcGKv+t/xCN/Wpbw2FxWrIHZM0QLlau7nEN9I2IUjHjfqeAXBa4uLiApswrly5Uvv2tf6mg6didcHflBabodTO55lI6wqz2XVZz6n6vGhBYD3rllbrqZLDFhn4/wAAAKAjsSm6/yT9dUW2Nr12p/pFmfBJqM5aqz1WogYN7WGSFn4x6ndJmpS/XluayloEo+osrd1jKXHQUPU4UiHF9LtEacrX+i1NJx68h7ZrXZ5Daen79bdH79OdEybrgSf+rg2lwdoO1cpau0dW4iANbVxh1XfhliYTT/R/Y6HX/ydmi+6vSX9doexNr+nOUxscmtWWwen0x0rfzaHt6/LkSEvX/r89qvvunKDJDzyhv28oDcF2iNbgGSuVs/MVjY03IR9v2Xatzfb1ce9UxTaRNuhw40b0YM1YmaOdr4zVkebwqmz7WmX76tU7NVZNZVGCddwgYQ000xlnnKERI0bo3XffVUVFhYm2r8Lq3dpVtlIje9xtIm3jR7FDfccQrcp/1URaTq23ktnVAAAAHVK0Bt07Q1NHNUwenBzXwf0q871FT41vuLm4XbEpiQr3Xck75DKxEOE6qP1lUnxqvO/7P8Iem6JEX6As75CaqlHVN6u1x+vW2t/co2eXZ6ko7wu9MfMOXTDgNs3NOmqntaDg0sH6CqtxF8Yqpb7CaqoL6f/GQq//Tyx60L2aMXVUo6TzSWlmWwan0x8rfTeHVu/xyr32N7rn2eXKKsrTF2/M1B0XDNBtc7OO2mwvBHmKtHTmdL15qLcmPTRKSSZ8PB1u3DgOT9FSzZz+pg71nqSHRjXVGsE7bpCwBlpARkaG0tLS9NZbb8ntdpto+1mZ/4oGJl2jxMhUE2k7o3v8TN+UZSq3apuJtAz/kiCRJKwBAACCnn85upM9msvyeGTJoYjwxm9tbfZw35tdl2pqvSbSPo5X5+87AiyPPJbkiPB//w3Y7PJX0VVTq6Zq5HH01uirb9WTK7O1M3Oplqz4SnszZ2pI0SI9OH2xCtq3OY7Dkqe+woH6HWGTvb7CaqoLg73/T9kPrv9bUTPbssPxONR79NW69cmVyt6ZqaVLVuirvZmaOaRIix6crsWhfHN4CvXhb6/R9S/kafh/LtSsUQnmwvF1uHHjKJ7CD/Xba67XC3nD9Z8LZ+kEzRG040bj3gFw2q644orAedmyZYFze9lT/rkKa3br4pQ7TKRtJUT2UEbyjfo076+yrJYb2fxLgkTaO5sSAAAA4HtDGxWnSNWqqrbxR5fdtTVy+67ERoXYcnJhUYqL9P3uW1Xb+GP67lrVuKXI2KgmP9qdMOJ3WrhkgR4Z2cU8L0wJlzyoR6/spMrMxdoaHB8IbSBMUfUV9v2+b0IBbtXWV1hNdSH931jo9X8ramZbdjgJI/S7hUu04JGR6mIqHpZwiR589Ep1qszU4lC9Oaq2a86ki/Tjp/doxJOf6oOZwxV/gkxnhxs3GqjaPkeTLvqxnt4zQk9++oFmDo8/YeI3WMcNEtZAC/Fvwnj99dfr22+/1caNG020bXktj1bmz9HwbrcpyhFnom1veLfxqnYd0tbSD02k+WqZYQ0AABASLMs66aO5InucrW4q1d6ihh9brlNJVpE89hT17dbwI99t73h1/r4jILKHzu4mle4tavQR/bqSLBV57Erp263R8gZH81SXKi/3gJyN5o1EKKFrtOR2qq75Td7CItWjvsJq3IUlyiryyJ7SV011YbD3/yn7wfV/K2pmW3Y4nmqV5uXqQOObQxEJXRUtt5wheHN4DqzQ41cN0z3/dGjyvHV6/5GLzcatTetw40aARwdWPK6rht2jfzoma9669/XIxWaz0RMI1nGDhDXQgg5vwrhq1Srl5OSYaNvZWrpEHm+dhnS9wUTaR3hYp8D62f6NH/1LebQE/9dhDWsAAAA0FJ0+WsMTqrR+yTZ991unp0BrPtgt9btaQ08mexFMotM1eniCqtYv0bYjFVLBmg+0W/109dCmEhAVWn5fP6Wm36pFDT/D7czWynWl0lmj1D/ofp2OVvro4UqoWq8lRyrs68I1qu/CoU0moOj/hkKx/1tRs9qy46lYfp/6pabr1kUFDZZCcSp75TqV6iyNCrWbo3KDZl13lX6/cYBmfLxGcyb1Uydz6UQ63LjhU7lhlq676vfaOGCGPl4zR5P6nWxrBO+48UP6+QTaRO/evTVy5MjAJozl5eUm2vrqPNVaUzBfI7r/qxxh7f8XwXMSL1NSZC+t9X1PLYElQQAAAH7onNrx8v0aP3GGlhWZN9YJIzV9Sl/lvjBFD83foqKybH3y1N16eJVDY385Uf0j658WOhI0cvoU9c19QVMemq8tRWXK/uQp3f3wKjnG/lITG1bIuUMv3z9eE2csU31zxGrYvbcrrfYT/Wran7Uqt0rV+es0Z9qtemJXiiY+NkFnOgKvDCoJI6drSt9cvTDlIc3fUqSy7E/01N0Pa5VjrH45sb++q/Ex9fWh/0O+/1uKc8fLun/8RM1YVmQSsqfQlh3OsWNl7LB7dXtarT751TT9eVWuqqrztW7ONN36xC6lTHxME0Lq5nBq65/u0szP65R+8zil7FioF59/Xs+b46VFW3To8BjxQ/h3w7lVf7prpj6vS9fN41K0Y+GL37XF88+/pEVbDh35I0UojRsWgFbxwQcfWPPmzbPq6upMpHWtyp9rvbFruuX1ek2k/RVW77ae2TLOKq751kRO33vZT1mr8+eZEgAAADqk2p3WU+fJso950wQaKrc+vSvZkgZbs7NcJuZTsdl67uY+lt339tb/Ftf3Bty6YPpia3+Dp4SWCmvzczdbfeyH6yMr9oLp1uKjK1T+qXVXsu/64NnWkeaotL56ebI1sPOR1yp6gDXpxS2+rxq8KjY/Z93cx37ke469wJq+eL/VqMbHra8P/R/y/X9yaq2dT51nyT7GerPEhBoo//QuK9lX38GzsxrcNyfZlqHoNMbKyq9etiYP7Hzk3lC0NWDSi9aWULs5nFusx/sd6dNjjnNnWTtqzXN/AP9uOLc8bvVrWP+jjnNn7fD99BghNG7Y/P/xfTMAWpjb7daCBQuUmJioa6+91kRbR0VdsV77+me68cwn1CtmgIkGh2X7Z6usrkA39/mDiZye/937mM6IGaKM5J+aCAAAAHCYV1W5O7Qtp0bxfQeqf3Loz570VuVqx7Yc1cT31cD+yUdmGp+MulLt2bZLxbZk9Ts3XUkRJh7MvFXK3bFNOTXx6juwv06tC+n/RkKx/1tRs9qyw6lT6Z5t2lVsU3K/c5X+g745Ot640SxBNm6QsAZaUUVFhebPn69hw4YpIyPDRFveBzlPq85boxvSZppI8Khxl+nVnffoqt4P6az4S0301P1j98MamHS1BiRdZSIAAAAAAADoaFjDGmhFsbGxGjdunFavXt1qmzAW1ezRrrKVGtXjbhMJLlGOeF3cfaJW5L0st7fhLrynptZTqUg2XQQAAAAAAOjQSFgDraxXr14aNWpUYBPGsrIyE205/kTwwKRrlBiZaiLBZ3CXf1F4WCetL15kIqfOv+liJxLWAAAAAAAAHRoJa6ANDBkyROnp6Xr77bflcrlMtPmyyj9XYc1uXZxyh4kEpzCbXZf1vE/rihYG1ts+HfUzrDubEgAAAAAAADoiEtZAGxk7dqzsdruWLl1qIs3jtTxamf+qhncbryhHnIkGrzNiBystNkMr8ueYyMnzeF1yW3UsCQIAAAAAANDBkbAG2ojD4QisZ71v3z6tX7/eRE/f1tIlcnlrNaTrT0wk+I3u+TNllX+m/ZVbTeTk1HqrAmeWBAEAAAAAAOjYSFgDbejwJoyZmZnKzs420VNX56nWmoL5GtF9shxh4SYa/OIjUpSRfJM+zftrYIb4yXK6K33/tSkiLLo+AAAAAAAAgA6JhDXQxlJTUzVmzBi99957OnTokIk2Vuk6oL3lX+jrQyu1u2yNSpzfNkrwriteqLiIbjo7YYyJhI5h3W5RjaciMEP8ZNV6KxUZFi2bzWYiAAAAAAAA6Ihslo95DKAN+deyLigo0IQJExQeHq7yukJtPvCedhz8VJXuA+ZZRzhskYE1oPvHj9aSfU/rpj5PqlfMAHM1tHx9aIU+zn1ed/d/RZ0csSb6/b6t2KCP9j+ne855zUQAAAAAAADQETHDGmgnl19+eSBRveTD95VZME9zdk7RF8WLjpus9nNbtdpdvkbv7ZulCHuU4iKSzZXQ0z9htLp2+pEyC183kaY5PZWKtHc2JQAAAAAAAHRUJKyBduLfhPHKa8doT9ICfV70T1nymisnVuMp1992TVNOxSYTCT2X9fy3wLIgxTV7TeT71Xoq2XARAAAAAADgB4CENdBOatwV+qDwCXljjr+O9Ym4vDX6328fD9mkdXLUmRqQeJWW571oIt+v1lOlSBLWAAAAAAAAHR4Ja6Ad+JeO/yh3toqd9bOLvVVV2vPxfm38+IAKSj3HzLX2HizT1+/kaP3yQyp3maCPx3Lp3ZxZqnIdNJHQcmn3yb42yNKuQ6tM5PhYEgQAAAAAAOCHgYQ10A6+KVvtOzJ9jyzVfLlTs69eq4Vzc7Xmv7/U7Cnb9Nn2OtUGstaWKpdv0usT1+mfb+Rr3X+v16zx27W77MheqU5PhT7Je96UQkuUI1aXpEzSivxX5PLWmuix/EuCMMMaAAAAAACg4yNhDbQx/+zqz4sW1Be8tdr6TI7qbhik6/50oR5YeLGutBdo9dsHVFNnSbVlWj+3RFnp5+mhN4Zr6rN91buiUGu3uOtfb/iT36XO/aYUWgZ1uTYwe/qLooUmciz/kiCsYQ0AAAAAANDxkbAG2lh+9c7AMhgBYeE659GhGnd5tPom+X4cbTY5bJYsy3fJJnn2F6qwUOpzU5xKlmYr88tY3bp4jCaNDK9/fQObS98zj0JLmM2uy3rep/XFi1ReVxSIeSy3Cqt3a/OB95VZ8LoKqnepqGa39lVuVZ2nJvAcAAAAAAAAdDw2yz/dE0Cb+azwH1pT+LopNeRRycIN+vNst0b9aahGZXTyPXm9/vFoqXJjI+RIiFZMRZn2eXvozlfP07ldbOZ19bp2StOd/UJzaRC/d7P/IJfXqeROfbSldImcnnJzpTG7zaH+CaM1pMsNSonua6IAAAAAAADoCJhhDbSxwppvzKMGvC7lzPlCs5+p0ZAZA3XJkEhF+n46LY8lj8sj96WD9Yt5w3Tfc3011J2n996uMi88osSZHUj4hiL/3826RfXV3or1Wlf85vcmq/38s6+3H/xYb+z+uZbnvdTk2tcAAAAAAAAILSSsgTZ2eNmL73hqtf3JNXphnluX/nGYrrsiVp0d9bOnHV2iFBNtV9ch0Yrwle2JMYp0SM5cV+B6Y5YqXaXmceiwLK+W7n9WqwvmmsjJ21iyWAv2/FpOd4WJAAAAAAAAIJSRsAbaXMNVeDzKn/OF3lgeoXHPD9MVl0Qp0m4u+TjSuis1LUyF75TooEdybs1TfpnULSPKPKMxj1VnHoUG/8zqj3Kf07aDy0zk1PnXtl6091HWtgYAAAAAAOgAWMMaaGML9/xW+6q21BcqSjTv6i+0+agVPrrcOkQPPJyiuE5S1ec7teTZPG06GK4op1NWxtm6d9YZSvZPuT6Ozo4kxUUkKzbc93rfOS68m+/czVeuP0faO5tntr+dh1bo/Zyn6gtet0o2lWjfgTB1OTdRPXqEK/y7P6l55cyv0oEyrylL9oRode0eLocpn9/lOo1Nvd+UAAAAAAAAEIpIWANtbEXeK9pQ8v9M6SR56lSxzyln52h1SXYc96MRMeFddUuf/6sKV1Fg2RH/UeEqNuf6x/71nyPCohQXkaLY8ORAAtuf0I797pysGEeSbLbW//CF01OpOTvvVq3v7K0o1YdTNyizMkapSS7lfi31f2iQfnpjvK9eNsldobX/mqlFux2KjvS/2qa4q8/Xvz3SVTGBr1ZvfPofldr5PFMCAAAAAABAqCFhDbSxXWWr9W72H0yp5fSLH6l/+dF/mNKx/D/q1e6DKvcnr+uKA+dAYjtQ9p+LA8njMNkDye9GyezA4/oEt3+mtiPse6Z3n4INxYu1Iv8l3yNLZW99pqf+YtOFjw7WuNERKn0tU8++3UXjZ/fX+b3tUmmO3rgtS52fHqGfDDo8p/pYZ8VdqnFpj5oSAAAAAAAAQg0Ja6CNub0uvbxjkmo85SbSMm488wmlxQ41pdNT56kOJK4Pz8o+ktD2J7gLVeU6KEteRdnjGyS0j112JMoRZ77i93vt63t1sHZ/4LH7QJmytnsUd36iusdZOvD3NfqvBQka/5dzdH4vu9xbt+iZB6o0+MEU1ea4FZuRqotGd1ZgsnUDNoXp3nNeV+fwRBMBAAAAAABAKCFhDbSDNQXz9VnR302p+ZIie2tyvxdafSkPr+VRhavEzMhuOFO7MJDo9pfdVq0ctkiTwD522RH/utp2W7he3DHRfNXG3DnZevWOXfLelaEJExMVH2HTwfkr9fQfnUoY3V1pMTX6+qNyxU+9SPdOiT0maX39j2aqb/zFpgQAAAAAAIBQQsIaaAcub63mf/PgdzOMm8em29KfVs/O55hy+6pxl5mZ2Ydnahf6zvWJbX+iu35muc13HD30WKr5Kktzp+2R85qBuuPB7uoa458zLbnzS7Rjd6TOGhmrTvKqaE6mnnkjTpPfOl9nx9a/+rDh3W7Tpd3vNCUAAAAAAACEEhLWQDsprP5GC/b8JjAjuTkuTpnoO243peDnT9Z/WfK2Vhe8ZiJ+lspXbtMLv85XwuTBuuXurkrq5E9q+3lVsTlf2w8mKGNMZ/lXsK58Z62efsquG98ZpkFHrf4xMOnHurLXz00JAAAAAAAAoaR11w8A8L1Sos/SjWf+n8DyGafrwuRbdFG3CaYUGsLDIhUT3sWU6rm+2aNX/r1APX95oSbe2zBZXa/0nZ36n5k7temAr+Cu1u7l1XKd2U09Y+qvN2QLzN4GAAAAAABAKGKGNdDOSpzZWrLvv1RUs9tETiwiLFqXpd6ncxPGymYLvQRtTsUmLdr7iCm5tOtXn+rFZR5TNnqdobteOlsDUu3SoWIt+/VWfbLbrsROLpVHdNV1fx6oi9N8145yUbfbdUn346+PDQAAAAAAgOBGwhoIAh7Lra9Kl2pTyds6UJtjoseKDOus85KuUkbyTxUb3tVEQ4/TXaHnt483pZPlVU1upUqcEeqW3umYzRYP+0na4+oTN9yUAAAAAAAAEEpIWANBxP/jWOzMUn711yquyZLLW6Mwm0MJkT3VPapfYGPF8LBO5tmhbd6uaSpxfmtKLSNMdk09d76iHPEmAgAAAAAAgFBCwhpAu9h84D19nPsXU2oZZyeM0bVn/MaUAAAAAAAAEGrYdBFAuzgn4XJFOxJNqSXYlNH1RvMYAAAAAAAAoYiENYB2EWGP0pW9fm5KzXdB8k1Kie5rSgAAAAAAAAhFJKwBtJv0uOGBRHNz9eo8QJekTDQlAAAAAAAAhCoS1gDa1cjudzdrKY/enQfpp2f+Xo6wCBMBAAAAAABAqGLTRQBBYVfZan20/zk5PeUm0rQw2XVRyu0a1u1WhdnsJgoAAAAAAIBQRsIaQNCocVdo28Gl2lTyrspdhSbaWERYtAYkXanzu4xTYmRPEwUAAAAAAEBHQMIaQNDxD0vlriIVVu9SheuAL+JVJ3tcYFPFpMjezKgGAAAAAADooEhYAwAAAAAAAACCApsuAgAAAAAAAACCAglrAAAAAAAAAEBQIGENAAAAAAAAAAgKJKwBAAAAAAAAAEGBhDUAAAAAAAAAICiQsAYAAAAAAAAABAUS1gAAAAAAAACAoEDCGgAAAAAAAAAQFEhYAwAAAAAAAACCAglrAAAAAAAAAEBQIGENAAAAAAAAAAgC0v8H0gr6FgSAXn4AAAAASUVORK5CYII=;" vertex="1" parent="1">
          <mxGeometry x="40" y="50" width="712" height="234.39" as="geometry" />
        </mxCell>
        <mxCell id="DZzNzvdSw967rxI9cEoq-3" value="&lt;font style=&quot;font-size: 15px;&quot;&gt;（a）输入：图结构数据&lt;/font&gt;" style="text;html=1;align=center;verticalAlign=middle;whiteSpace=wrap;rounded=0;" vertex="1" parent="1">
          <mxGeometry x="130" y="284.39" width="170" height="30" as="geometry" />
        </mxCell>
        <mxCell id="DZzNzvdSw967rxI9cEoq-4" value="&lt;font style=&quot;font-size: 15px;&quot;&gt;（b）输出：低维向量空间中的点&lt;/font&gt;" style="text;html=1;align=center;verticalAlign=middle;whiteSpace=wrap;rounded=0;" vertex="1" parent="1">
          <mxGeometry x="480" y="284.39" width="240" height="30" as="geometry" />
        </mxCell>
      </root>
    </mxGraphModel>
  </diagram>
</mxfile>
